STARTFONT 2.1
COMMENT 
COMMENT Copyright (C) 2012-2015 Uwe Waldmann
COMMENT 
COMMENT Permission is hereby granted, free of charge, to any person obtaining
COMMENT a copy of this font software and associated files (the "Software"),
COMMENT to deal in the Software without restriction, including without
COMMENT limitation the rights to use, copy, modify, merge, publish,
COMMENT distribute, embed, sublicense, and/or sell copies of the Software,
COMMENT and to permit persons to whom the Software is furnished to do so,
COMMENT subject to the following conditions:
COMMENT 
COMMENT (1) The above copyright notice, this permission notice, and the
COMMENT     disclaimer below shall be included in all copies or substantial
COMMENT     portions of the Software.
COMMENT 
COMMENT (2) If the design of any glyphs in the fonts that are contained in the
COMMENT     Software or generated during the installation process is modified
COMMENT     or if additional glyphs are added to the fonts, the fonts
COMMENT     must be renamed. The new names may not contain the word "UW",
COMMENT     irrespective of capitalisation; the new names may contain the word
COMMENT     "ttyp0", irrespective of capitalisation, only if preceded by a
COMMENT     foundry name different from "UW".
COMMENT 
COMMENT THE SOFTWARE IS PROVIDED "AS IS", WITHOUT WARRANTY OF ANY KIND, EXPRESS
COMMENT OR IMPLIED, INCLUDING BUT NOT LIMITED TO THE WARRANTIES OF
COMMENT MERCHANTABILITY, FITNESS FOR A PARTICULAR PURPOSE AND NONINFRINGEMENT.
COMMENT IN NO EVENT SHALL THE AUTHORS OR COPYRIGHT HOLDERS BE LIABLE FOR ANY
COMMENT CLAIM, DAMAGES OR OTHER LIABILITY, WHETHER IN AN ACTION OF CONTRACT,
COMMENT TORT OR OTHERWISE, ARISING FROM, OUT OF OR IN CONNECTION WITH THE
COMMENT SOFTWARE OR THE USE OR OTHER DEALINGS IN THE SOFTWARE.
COMMENT 
FONT -UW-Ttyp0-Medium-R-Normal--18-170-75-75-C-90-ISO10646-1
SIZE 18 75 75
FONTBOUNDINGBOX 9 18 0 -4
STARTPROPERTIES 19
FONTNAME_REGISTRY ""
FOUNDRY "UW"
FAMILY_NAME "Ttyp0"
WEIGHT_NAME "Medium"

STARTCHAR DDefaultChar
ENCODING 0
SWIDTH 1080 0
DWIDTH 9 0
BBX 9 18 0 -4
BITMAP
0000
0000
0000
5a00
4200
0000
4200
4200
0000
4200
4200
0000
4200
5a00
0000
0000
0000
0000
ENDCHAR
STARTCHAR Space
ENCODING 32
SWIDTH 1080 0
DWIDTH 9 0
BBX 9 18 0 -4
BITMAP
0000
0000
0000
0000
0000
0000
0000
0000
0000
0000
0000
0000
0000
0000
0000
0000
0000
0000
ENDCHAR
STARTCHAR PExclam
ENCODING 33
SWIDTH 1080 0
DWIDTH 9 0
BBX 9 18 0 -4
BITMAP
0000
0000
0000
0800
0800
0800
0800
0800
0800
0800
0800
0000
0800
0800
0000
0000
0000
0000
ENDCHAR
STARTCHAR PQuote2Ascii
ENCODING 34
SWIDTH 1080 0
DWIDTH 9 0
BBX 9 18 0 -4
BITMAP
0000
0000
0000
2400
2400
2400
0000
0000
0000
0000
0000
0000
0000
0000
0000
0000
0000
0000
ENDCHAR
STARTCHAR SNumberSign
ENCODING 35
SWIDTH 1080 0
DWIDTH 9 0
BBX 9 18 0 -4
BITMAP
0000
0000
0000
0000
0000
2400
2400
7e00
2400
2400
7e00
2400
2400
0000
0000
0000
0000
0000
ENDCHAR
STARTCHAR CurrDollar
ENCODING 36
SWIDTH 1080 0
DWIDTH 9 0
BBX 9 18 0 -4
BITMAP
0000
0000
0800
0800
1c00
2a00
2800
2800
1800
0c00
0a00
0a00
2a00
1c00
0800
0800
0000
0000
ENDCHAR
STARTCHAR SPercent
ENCODING 37
SWIDTH 1080 0
DWIDTH 9 0
BBX 9 18 0 -4
BITMAP
0000
0000
0000
2100
5100
5200
5400
2400
0800
1200
1500
2500
4500
4200
0000
0000
0000
0000
ENDCHAR
STARTCHAR SAmpersand
ENCODING 38
SWIDTH 1080 0
DWIDTH 9 0
BBX 9 18 0 -4
BITMAP
0000
0000
0000
1800
2400
2400
2400
1800
1000
2900
4a00
4400
4600
3900
0000
0000
0000
0000
ENDCHAR
STARTCHAR PApostropheAscii
ENCODING 39
SWIDTH 1080 0
DWIDTH 9 0
BBX 9 18 0 -4
BITMAP
0000
0000
0c00
0c00
0800
1000
0000
0000
0000
0000
0000
0000
0000
0000
0000
0000
0000
0000
ENDCHAR
STARTCHAR PParenL
ENCODING 40
SWIDTH 1080 0
DWIDTH 9 0
BBX 9 18 0 -4
BITMAP
0000
0000
0400
0800
1000
1000
2000
2000
2000
2000
2000
1000
1000
0800
0400
0000
0000
0000
ENDCHAR
STARTCHAR PParenR
ENCODING 41
SWIDTH 1080 0
DWIDTH 9 0
BBX 9 18 0 -4
BITMAP
0000
0000
2000
1000
0800
0800
0400
0400
0400
0400
0400
0800
0800
1000
2000
0000
0000
0000
ENDCHAR
STARTCHAR SAsterisk
ENCODING 42
SWIDTH 1080 0
DWIDTH 9 0
BBX 9 18 0 -4
BITMAP
0000
0000
0000
0000
0000
0000
0000
2400
1800
7e00
1800
2400
0000
0000
0000
0000
0000
0000
ENDCHAR
STARTCHAR MPlus
ENCODING 43
SWIDTH 1080 0
DWIDTH 9 0
BBX 9 18 0 -4
BITMAP
0000
0000
0000
0000
0000
0000
0800
0800
0800
7f00
0800
0800
0800
0000
0000
0000
0000
0000
ENDCHAR
STARTCHAR PComma
ENCODING 44
SWIDTH 1080 0
DWIDTH 9 0
BBX 9 18 0 -4
BITMAP
0000
0000
0000
0000
0000
0000
0000
0000
0000
0000
0000
0000
1800
1800
1000
2000
0000
0000
ENDCHAR
STARTCHAR PHyphenMinus
ENCODING 45
SWIDTH 1080 0
DWIDTH 9 0
BBX 9 18 0 -4
BITMAP
0000
0000
0000
0000
0000
0000
0000
0000
0000
7f00
0000
0000
0000
0000
0000
0000
0000
0000
ENDCHAR
STARTCHAR PFullStop
ENCODING 46
SWIDTH 1080 0
DWIDTH 9 0
BBX 9 18 0 -4
BITMAP
0000
0000
0000
0000
0000
0000
0000
0000
0000
0000
0000
0000
1800
1800
0000
0000
0000
0000
ENDCHAR
STARTCHAR PSolidus
ENCODING 47
SWIDTH 1080 0
DWIDTH 9 0
BBX 9 18 0 -4
BITMAP
0000
0000
0100
0100
0200
0200
0400
0400
0800
0800
1000
1000
2000
2000
4000
0000
0000
0000
ENDCHAR
STARTCHAR Digit0
ENCODING 48
SWIDTH 1080 0
DWIDTH 9 0
BBX 9 18 0 -4
BITMAP
0000
0000
0000
1800
2400
4200
4600
4a00
5200
6200
4200
4200
2400
1800
0000
0000
0000
0000
ENDCHAR
STARTCHAR Digit1
ENCODING 49
SWIDTH 1080 0
DWIDTH 9 0
BBX 9 18 0 -4
BITMAP
0000
0000
0000
0800
1800
2800
4800
0800
0800
0800
0800
0800
0800
0800
0000
0000
0000
0000
ENDCHAR
STARTCHAR Digit2
ENCODING 50
SWIDTH 1080 0
DWIDTH 9 0
BBX 9 18 0 -4
BITMAP
0000
0000
0000
3c00
4200
4200
0200
0200
0400
0800
1000
2000
4000
7e00
0000
0000
0000
0000
ENDCHAR
STARTCHAR Digit3
ENCODING 51
SWIDTH 1080 0
DWIDTH 9 0
BBX 9 18 0 -4
BITMAP
0000
0000
0000
3c00
4200
0200
0200
0400
1c00
0200
0200
0200
4200
3c00
0000
0000
0000
0000
ENDCHAR
STARTCHAR Digit4
ENCODING 52
SWIDTH 1080 0
DWIDTH 9 0
BBX 9 18 0 -4
BITMAP
0000
0000
0000
0400
0c00
0c00
1400
2400
2400
4400
7e00
0400
0400
0400
0000
0000
0000
0000
ENDCHAR
STARTCHAR Digit5
ENCODING 53
SWIDTH 1080 0
DWIDTH 9 0
BBX 9 18 0 -4
BITMAP
0000
0000
0000
7c00
4000
4000
5800
6400
4200
0200
0200
0200
4400
3800
0000
0000
0000
0000
ENDCHAR
STARTCHAR Digit6
ENCODING 54
SWIDTH 1080 0
DWIDTH 9 0
BBX 9 18 0 -4
BITMAP
0000
0000
0000
1c00
2000
4000
4000
5c00
6200
4200
4200
4200
4200
3c00
0000
0000
0000
0000
ENDCHAR
STARTCHAR Digit7
ENCODING 55
SWIDTH 1080 0
DWIDTH 9 0
BBX 9 18 0 -4
BITMAP
0000
0000
0000
7e00
4200
0200
0400
0400
0800
0800
0800
1000
1000
1000
0000
0000
0000
0000
ENDCHAR
STARTCHAR Digit8
ENCODING 56
SWIDTH 1080 0
DWIDTH 9 0
BBX 9 18 0 -4
BITMAP
0000
0000
0000
3c00
4200
4200
4200
2400
3c00
4200
4200
4200
4200
3c00
0000
0000
0000
0000
ENDCHAR
STARTCHAR Digit9
ENCODING 57
SWIDTH 1080 0
DWIDTH 9 0
BBX 9 18 0 -4
BITMAP
0000
0000
0000
3c00
4200
4200
4200
4200
4600
3a00
0200
0200
0400
3800
0000
0000
0000
0000
ENDCHAR
STARTCHAR PColon
ENCODING 58
SWIDTH 1080 0
DWIDTH 9 0
BBX 9 18 0 -4
BITMAP
0000
0000
0000
0000
0000
0000
0000
0000
1800
1800
0000
0000
1800
1800
0000
0000
0000
0000
ENDCHAR
STARTCHAR PSemicolon
ENCODING 59
SWIDTH 1080 0
DWIDTH 9 0
BBX 9 18 0 -4
BITMAP
0000
0000
0000
0000
0000
0000
0000
0000
1800
1800
0000
0000
1800
1800
1000
2000
0000
0000
ENDCHAR
STARTCHAR MLess
ENCODING 60
SWIDTH 1080 0
DWIDTH 9 0
BBX 9 18 0 -4
BITMAP
0000
0000
0000
0000
0200
0400
0800
1000
2000
2000
1000
0800
0400
0200
0000
0000
0000
0000
ENDCHAR
STARTCHAR MEqual
ENCODING 61
SWIDTH 1080 0
DWIDTH 9 0
BBX 9 18 0 -4
BITMAP
0000
0000
0000
0000
0000
0000
0000
0000
7e00
0000
0000
7e00
0000
0000
0000
0000
0000
0000
ENDCHAR
STARTCHAR MGreater
ENCODING 62
SWIDTH 1080 0
DWIDTH 9 0
BBX 9 18 0 -4
BITMAP
0000
0000
0000
0000
2000
1000
0800
0400
0200
0200
0400
0800
1000
2000
0000
0000
0000
0000
ENDCHAR
STARTCHAR PQuestion
ENCODING 63
SWIDTH 1080 0
DWIDTH 9 0
BBX 9 18 0 -4
BITMAP
0000
0000
0000
3e00
4100
4100
0100
0200
0400
0800
0800
0000
0800
0800
0000
0000
0000
0000
ENDCHAR
STARTCHAR SCommercialAt
ENCODING 64
SWIDTH 1080 0
DWIDTH 9 0
BBX 9 18 0 -4
BITMAP
0000
0000
0000
0000
1c00
2200
4900
5500
5500
5500
5500
4a00
2000
1f00
0000
0000
0000
0000
ENDCHAR
STARTCHAR LtCapA
ENCODING 65
SWIDTH 1080 0
DWIDTH 9 0
BBX 9 18 0 -4
BITMAP
0000
0000
0000
0800
0800
0800
1400
1400
2200
2200
3e00
4100
4100
4100
0000
0000
0000
0000
ENDCHAR
STARTCHAR LtCapB
ENCODING 66
SWIDTH 1080 0
DWIDTH 9 0
BBX 9 18 0 -4
BITMAP
0000
0000
0000
7c00
4200
4200
4200
4400
7c00
4200
4200
4200
4200
7c00
0000
0000
0000
0000
ENDCHAR
STARTCHAR LtCapC
ENCODING 67
SWIDTH 1080 0
DWIDTH 9 0
BBX 9 18 0 -4
BITMAP
0000
0000
0000
1c00
2200
4000
4000
4000
4000
4000
4000
4000
2200
1c00
0000
0000
0000
0000
ENDCHAR
STARTCHAR LtCapD
ENCODING 68
SWIDTH 1080 0
DWIDTH 9 0
BBX 9 18 0 -4
BITMAP
0000
0000
0000
7800
4400
4200
4200
4200
4200
4200
4200
4200
4400
7800
0000
0000
0000
0000
ENDCHAR
STARTCHAR LtCapE
ENCODING 69
SWIDTH 1080 0
DWIDTH 9 0
BBX 9 18 0 -4
BITMAP
0000
0000
0000
7e00
4000
4000
4000
4000
7800
4000
4000
4000
4000
7e00
0000
0000
0000
0000
ENDCHAR
STARTCHAR LtCapF
ENCODING 70
SWIDTH 1080 0
DWIDTH 9 0
BBX 9 18 0 -4
BITMAP
0000
0000
0000
3f00
2000
2000
2000
2000
3c00
2000
2000
2000
2000
2000
0000
0000
0000
0000
ENDCHAR
STARTCHAR LtCapG
ENCODING 71
SWIDTH 1080 0
DWIDTH 9 0
BBX 9 18 0 -4
BITMAP
0000
0000
0000
1c00
2200
4000
4000
4000
4e00
4200
4200
4200
2200
1e00
0000
0000
0000
0000
ENDCHAR
STARTCHAR LtCapH
ENCODING 72
SWIDTH 1080 0
DWIDTH 9 0
BBX 9 18 0 -4
BITMAP
0000
0000
0000
4200
4200
4200
4200
4200
7e00
4200
4200
4200
4200
4200
0000
0000
0000
0000
ENDCHAR
STARTCHAR LtCapI
ENCODING 73
SWIDTH 1080 0
DWIDTH 9 0
BBX 9 18 0 -4
BITMAP
0000
0000
0000
3e00
0800
0800
0800
0800
0800
0800
0800
0800
0800
3e00
0000
0000
0000
0000
ENDCHAR
STARTCHAR LtCapJ
ENCODING 74
SWIDTH 1080 0
DWIDTH 9 0
BBX 9 18 0 -4
BITMAP
0000
0000
0000
0e00
0400
0400
0400
0400
0400
0400
0400
4400
4400
3800
0000
0000
0000
0000
ENDCHAR
STARTCHAR LtCapK
ENCODING 75
SWIDTH 1080 0
DWIDTH 9 0
BBX 9 18 0 -4
BITMAP
0000
0000
0000
4200
4200
4400
4400
4800
5000
6800
4400
4400
4200
4200
0000
0000
0000
0000
ENDCHAR
STARTCHAR LtCapL
ENCODING 76
SWIDTH 1080 0
DWIDTH 9 0
BBX 9 18 0 -4
BITMAP
0000
0000
0000
4000
4000
4000
4000
4000
4000
4000
4000
4000
4000
7e00
0000
0000
0000
0000
ENDCHAR
STARTCHAR LtCapM
ENCODING 77
SWIDTH 1080 0
DWIDTH 9 0
BBX 9 18 0 -4
BITMAP
0000
0000
0000
4100
4100
6300
6300
5500
5500
4900
4900
4100
4100
4100
0000
0000
0000
0000
ENDCHAR
STARTCHAR LtCapN
ENCODING 78
SWIDTH 1080 0
DWIDTH 9 0
BBX 9 18 0 -4
BITMAP
0000
0000
0000
4200
4200
6200
6200
5200
4a00
4a00
4600
4600
4200
4200
0000
0000
0000
0000
ENDCHAR
STARTCHAR LtCapO
ENCODING 79
SWIDTH 1080 0
DWIDTH 9 0
BBX 9 18 0 -4
BITMAP
0000
0000
0000
3c00
4200
4200
4200
4200
4200
4200
4200
4200
4200
3c00
0000
0000
0000
0000
ENDCHAR
STARTCHAR LtCapP
ENCODING 80
SWIDTH 1080 0
DWIDTH 9 0
BBX 9 18 0 -4
BITMAP
0000
0000
0000
7c00
4200
4200
4200
4200
7c00
4000
4000
4000
4000
4000
0000
0000
0000
0000
ENDCHAR
STARTCHAR LtCapQ
ENCODING 81
SWIDTH 1080 0
DWIDTH 9 0
BBX 9 18 0 -4
BITMAP
0000
0000
0000
3c00
4200
4200
4200
4200
4200
4200
4200
5200
6a00
3c00
0400
0300
0000
0000
ENDCHAR
STARTCHAR LtCapR
ENCODING 82
SWIDTH 1080 0
DWIDTH 9 0
BBX 9 18 0 -4
BITMAP
0000
0000
0000
7c00
4200
4200
4200
4200
7c00
4800
4400
4400
4200
4200
0000
0000
0000
0000
ENDCHAR
STARTCHAR LtCapS
ENCODING 83
SWIDTH 1080 0
DWIDTH 9 0
BBX 9 18 0 -4
BITMAP
0000
0000
0000
3c00
4200
4000
4000
2000
1800
0400
0200
0200
4200
3c00
0000
0000
0000
0000
ENDCHAR
STARTCHAR LtCapT
ENCODING 84
SWIDTH 1080 0
DWIDTH 9 0
BBX 9 18 0 -4
BITMAP
0000
0000
0000
7f00
0800
0800
0800
0800
0800
0800
0800
0800
0800
0800
0000
0000
0000
0000
ENDCHAR
STARTCHAR LtCapU
ENCODING 85
SWIDTH 1080 0
DWIDTH 9 0
BBX 9 18 0 -4
BITMAP
0000
0000
0000
4200
4200
4200
4200
4200
4200
4200
4200
4200
4200
3c00
0000
0000
0000
0000
ENDCHAR
STARTCHAR LtCapV
ENCODING 86
SWIDTH 1080 0
DWIDTH 9 0
BBX 9 18 0 -4
BITMAP
0000
0000
0000
4100
4100
4100
2200
2200
2200
1400
1400
0800
0800
0800
0000
0000
0000
0000
ENDCHAR
STARTCHAR LtCapW
ENCODING 87
SWIDTH 1080 0
DWIDTH 9 0
BBX 9 18 0 -4
BITMAP
0000
0000
0000
4100
4100
4100
4900
4900
4900
5500
5500
2200
2200
2200
0000
0000
0000
0000
ENDCHAR
STARTCHAR LtCapX
ENCODING 88
SWIDTH 1080 0
DWIDTH 9 0
BBX 9 18 0 -4
BITMAP
0000
0000
0000
4200
4200
2400
2400
1800
1800
1800
2400
2400
4200
4200
0000
0000
0000
0000
ENDCHAR
STARTCHAR LtCapY
ENCODING 89
SWIDTH 1080 0
DWIDTH 9 0
BBX 9 18 0 -4
BITMAP
0000
0000
0000
4100
4100
2200
2200
1400
1400
0800
0800
0800
0800
0800
0000
0000
0000
0000
ENDCHAR
STARTCHAR LtCapZ
ENCODING 90
SWIDTH 1080 0
DWIDTH 9 0
BBX 9 18 0 -4
BITMAP
0000
0000
0000
7e00
0200
0400
0400
0800
1000
1000
2000
4000
4000
7e00
0000
0000
0000
0000
ENDCHAR
STARTCHAR PSquareBrackL
ENCODING 91
SWIDTH 1080 0
DWIDTH 9 0
BBX 9 18 0 -4
BITMAP
0000
0000
3c00
2000
2000
2000
2000
2000
2000
2000
2000
2000
2000
2000
3c00
0000
0000
0000
ENDCHAR
STARTCHAR PRevSolidus
ENCODING 92
SWIDTH 1080 0
DWIDTH 9 0
BBX 9 18 0 -4
BITMAP
0000
0000
4000
2000
2000
1000
1000
0800
0800
0400
0400
0200
0200
0100
0100
0000
0000
0000
ENDCHAR
STARTCHAR PSquareBrackR
ENCODING 93
SWIDTH 1080 0
DWIDTH 9 0
BBX 9 18 0 -4
BITMAP
0000
0000
3c00
0400
0400
0400
0400
0400
0400
0400
0400
0400
0400
0400
3c00
0000
0000
0000
ENDCHAR
STARTCHAR AccCircumAscii
ENCODING 94
SWIDTH 1080 0
DWIDTH 9 0
BBX 9 18 0 -4
BITMAP
0000
0000
0800
1400
2200
4100
0000
0000
0000
0000
0000
0000
0000
0000
0000
0000
0000
0000
ENDCHAR
STARTCHAR OLowline
ENCODING 95
SWIDTH 1080 0
DWIDTH 9 0
BBX 9 18 0 -4
BITMAP
0000
0000
0000
0000
0000
0000
0000
0000
0000
0000
0000
0000
0000
7f00
0000
0000
0000
0000
ENDCHAR
STARTCHAR AccGraveAscii
ENCODING 96
SWIDTH 1080 0
DWIDTH 9 0
BBX 9 18 0 -4
BITMAP
0000
0000
1800
1800
0800
0400
0000
0000
0000
0000
0000
0000
0000
0000
0000
0000
0000
0000
ENDCHAR
STARTCHAR LtSmlA
ENCODING 97
SWIDTH 1080 0
DWIDTH 9 0
BBX 9 18 0 -4
BITMAP
0000
0000
0000
0000
0000
0000
3c00
0200
0200
3e00
4200
4200
4600
3a00
0000
0000
0000
0000
ENDCHAR
STARTCHAR LtSmlB
ENCODING 98
SWIDTH 1080 0
DWIDTH 9 0
BBX 9 18 0 -4
BITMAP
0000
0000
0000
4000
4000
4000
5c00
6200
4200
4200
4200
4200
6200
5c00
0000
0000
0000
0000
ENDCHAR
STARTCHAR LtSmlC
ENCODING 99
SWIDTH 1080 0
DWIDTH 9 0
BBX 9 18 0 -4
BITMAP
0000
0000
0000
0000
0000
0000
1c00
2200
4000
4000
4000
4000
2200
1c00
0000
0000
0000
0000
ENDCHAR
STARTCHAR LtSmlD
ENCODING 100
SWIDTH 1080 0
DWIDTH 9 0
BBX 9 18 0 -4
BITMAP
0000
0000
0000
0200
0200
0200
3a00
4600
4200
4200
4200
4200
4600
3a00
0000
0000
0000
0000
ENDCHAR
STARTCHAR LtSmlE
ENCODING 101
SWIDTH 1080 0
DWIDTH 9 0
BBX 9 18 0 -4
BITMAP
0000
0000
0000
0000
0000
0000
1c00
2200
4200
7e00
4000
4000
2200
1c00
0000
0000
0000
0000
ENDCHAR
STARTCHAR LtSmlF
ENCODING 102
SWIDTH 1080 0
DWIDTH 9 0
BBX 9 18 0 -4
BITMAP
0000
0000
0000
0e00
1000
1000
1000
7e00
1000
1000
1000
1000
1000
1000
0000
0000
0000
0000
ENDCHAR
STARTCHAR LtSmlG
ENCODING 103
SWIDTH 1080 0
DWIDTH 9 0
BBX 9 18 0 -4
BITMAP
0000
0000
0000
0000
0000
0000
3a00
4400
4400
4400
4400
3800
4000
3c00
4200
4200
3c00
0000
ENDCHAR
STARTCHAR LtSmlH
ENCODING 104
SWIDTH 1080 0
DWIDTH 9 0
BBX 9 18 0 -4
BITMAP
0000
0000
0000
4000
4000
4000
5c00
6200
4200
4200
4200
4200
4200
4200
0000
0000
0000
0000
ENDCHAR
STARTCHAR LtSmlI
ENCODING 105
SWIDTH 1080 0
DWIDTH 9 0
BBX 9 18 0 -4
BITMAP
0000
0000
0800
0800
0000
0000
1800
0800
0800
0800
0800
0800
0800
3e00
0000
0000
0000
0000
ENDCHAR
STARTCHAR LtSmlJ
ENCODING 106
SWIDTH 1080 0
DWIDTH 9 0
BBX 9 18 0 -4
BITMAP
0000
0000
0400
0400
0000
0000
1c00
0400
0400
0400
0400
0400
0400
0400
4400
4400
3800
0000
ENDCHAR
STARTCHAR LtSmlK
ENCODING 107
SWIDTH 1080 0
DWIDTH 9 0
BBX 9 18 0 -4
BITMAP
0000
0000
0000
4000
4000
4000
4200
4400
4800
5000
7000
4800
4400
4200
0000
0000
0000
0000
ENDCHAR
STARTCHAR LtSmlL
ENCODING 108
SWIDTH 1080 0
DWIDTH 9 0
BBX 9 18 0 -4
BITMAP
0000
0000
0000
1800
0800
0800
0800
0800
0800
0800
0800
0800
0800
3e00
0000
0000
0000
0000
ENDCHAR
STARTCHAR LtSmlM
ENCODING 109
SWIDTH 1080 0
DWIDTH 9 0
BBX 9 18 0 -4
BITMAP
0000
0000
0000
0000
0000
0000
7600
4900
4900
4900
4900
4900
4900
4900
0000
0000
0000
0000
ENDCHAR
STARTCHAR LtSmlN
ENCODING 110
SWIDTH 1080 0
DWIDTH 9 0
BBX 9 18 0 -4
BITMAP
0000
0000
0000
0000
0000
0000
5c00
6200
4200
4200
4200
4200
4200
4200
0000
0000
0000
0000
ENDCHAR
STARTCHAR LtSmlO
ENCODING 111
SWIDTH 1080 0
DWIDTH 9 0
BBX 9 18 0 -4
BITMAP
0000
0000
0000
0000
0000
0000
3c00
4200
4200
4200
4200
4200
4200
3c00
0000
0000
0000
0000
ENDCHAR
STARTCHAR LtSmlP
ENCODING 112
SWIDTH 1080 0
DWIDTH 9 0
BBX 9 18 0 -4
BITMAP
0000
0000
0000
0000
0000
0000
5c00
6200
4200
4200
4200
4200
6200
5c00
4000
4000
4000
0000
ENDCHAR
STARTCHAR LtSmlQ
ENCODING 113
SWIDTH 1080 0
DWIDTH 9 0
BBX 9 18 0 -4
BITMAP
0000
0000
0000
0000
0000
0000
3a00
4600
4200
4200
4200
4200
4600
3a00
0200
0200
0200
0000
ENDCHAR
STARTCHAR LtSmlR
ENCODING 114
SWIDTH 1080 0
DWIDTH 9 0
BBX 9 18 0 -4
BITMAP
0000
0000
0000
0000
0000
0000
6e00
3200
2000
2000
2000
2000
2000
2000
0000
0000
0000
0000
ENDCHAR
STARTCHAR LtSmlS
ENCODING 115
SWIDTH 1080 0
DWIDTH 9 0
BBX 9 18 0 -4
BITMAP
0000
0000
0000
0000
0000
0000
3c00
4200
4000
3000
0c00
0200
4200
3c00
0000
0000
0000
0000
ENDCHAR
STARTCHAR LtSmlT
ENCODING 116
SWIDTH 1080 0
DWIDTH 9 0
BBX 9 18 0 -4
BITMAP
0000
0000
0000
0000
1000
1000
7c00
1000
1000
1000
1000
1000
1200
0c00
0000
0000
0000
0000
ENDCHAR
STARTCHAR LtSmlU
ENCODING 117
SWIDTH 1080 0
DWIDTH 9 0
BBX 9 18 0 -4
BITMAP
0000
0000
0000
0000
0000
0000
4200
4200
4200
4200
4200
4200
4600
3a00
0000
0000
0000
0000
ENDCHAR
STARTCHAR LtSmlV
ENCODING 118
SWIDTH 1080 0
DWIDTH 9 0
BBX 9 18 0 -4
BITMAP
0000
0000
0000
0000
0000
0000
4100
4100
2200
2200
1400
1400
0800
0800
0000
0000
0000
0000
ENDCHAR
STARTCHAR LtSmlW
ENCODING 119
SWIDTH 1080 0
DWIDTH 9 0
BBX 9 18 0 -4
BITMAP
0000
0000
0000
0000
0000
0000
4100
4100
4900
4900
4900
3600
2200
2200
0000
0000
0000
0000
ENDCHAR
STARTCHAR LtSmlX
ENCODING 120
SWIDTH 1080 0
DWIDTH 9 0
BBX 9 18 0 -4
BITMAP
0000
0000
0000
0000
0000
0000
4200
4200
2400
1800
1800
2400
4200
4200
0000
0000
0000
0000
ENDCHAR
STARTCHAR LtSmlY
ENCODING 121
SWIDTH 1080 0
DWIDTH 9 0
BBX 9 18 0 -4
BITMAP
0000
0000
0000
0000
0000
0000
4200
4200
4200
2400
2400
1400
1800
0800
1000
5000
2000
0000
ENDCHAR
STARTCHAR LtSmlZ
ENCODING 122
SWIDTH 1080 0
DWIDTH 9 0
BBX 9 18 0 -4
BITMAP
0000
0000
0000
0000
0000
0000
7e00
0200
0400
0800
1000
2000
4000
7e00
0000
0000
0000
0000
ENDCHAR
STARTCHAR PCurlyBrackL
ENCODING 123
SWIDTH 1080 0
DWIDTH 9 0
BBX 9 18 0 -4
BITMAP
0000
0000
0600
0800
0800
0800
0800
1000
3000
1000
0800
0800
0800
0800
0600
0000
0000
0000
ENDCHAR
STARTCHAR OVertBar
ENCODING 124
SWIDTH 1080 0
DWIDTH 9 0
BBX 9 18 0 -4
BITMAP
0000
0000
0800
0800
0800
0800
0800
0800
0800
0800
0800
0800
0800
0800
0800
0000
0000
0000
ENDCHAR
STARTCHAR PCurlyBrackR
ENCODING 125
SWIDTH 1080 0
DWIDTH 9 0
BBX 9 18 0 -4
BITMAP
0000
0000
3000
0800
0800
0800
0800
0400
0600
0400
0800
0800
0800
0800
3000
0000
0000
0000
ENDCHAR
STARTCHAR AccTildeAscii
ENCODING 126
SWIDTH 1080 0
DWIDTH 9 0
BBX 9 18 0 -4
BITMAP
0000
0000
0000
3200
5a00
4c00
0000
0000
0000
0000
0000
0000
0000
0000
0000
0000
0000
0000
ENDCHAR
STARTCHAR SpaceNoBreak
ENCODING 160
SWIDTH 1080 0
DWIDTH 9 0
BBX 9 18 0 -4
BITMAP
0000
0000
0000
0000
0000
0000
0000
0000
0000
0000
0000
0000
0000
0000
0000
0000
0000
0000
ENDCHAR
STARTCHAR PExclamInv
ENCODING 161
SWIDTH 1080 0
DWIDTH 9 0
BBX 9 18 0 -4
BITMAP
0000
0000
0000
0000
0000
0000
0800
0800
0000
0800
0800
0800
0800
0800
0800
0800
0800
0000
ENDCHAR
STARTCHAR CurrCent
ENCODING 162
SWIDTH 1080 0
DWIDTH 9 0
BBX 9 18 0 -4
BITMAP
0000
0000
0000
0000
0000
0200
1c00
2600
4800
4800
5000
5000
2200
3c00
4000
0000
0000
0000
ENDCHAR
STARTCHAR CurrPound
ENCODING 163
SWIDTH 1080 0
DWIDTH 9 0
BBX 9 18 0 -4
BITMAP
0000
0000
0000
1c00
2200
2200
2000
2000
7800
2000
2000
2000
4200
7e00
0000
0000
0000
0000
ENDCHAR
STARTCHAR CurrGeneral
ENCODING 164
SWIDTH 1080 0
DWIDTH 9 0
BBX 9 18 0 -4
BITMAP
0000
0000
0000
0000
0000
0000
4200
3c00
2400
2400
3c00
4200
0000
0000
0000
0000
0000
0000
ENDCHAR
STARTCHAR CurrYen
ENCODING 165
SWIDTH 1080 0
DWIDTH 9 0
BBX 9 18 0 -4
BITMAP
0000
0000
0000
4100
4100
2200
2200
1400
7f00
0800
7f00
0800
0800
0800
0000
0000
0000
0000
ENDCHAR
STARTCHAR OVertBarBroken
ENCODING 166
SWIDTH 1080 0
DWIDTH 9 0
BBX 9 18 0 -4
BITMAP
0000
0000
0800
0800
0800
0800
0800
0000
0000
0000
0800
0800
0800
0800
0800
0000
0000
0000
ENDCHAR
STARTCHAR SParagraph
ENCODING 167
SWIDTH 1080 0
DWIDTH 9 0
BBX 9 18 0 -4
BITMAP
0000
0000
0000
1800
2400
2000
1000
1800
2400
2400
2400
2400
1800
0800
0400
2400
1800
0000
ENDCHAR
STARTCHAR AccDrss
ENCODING 168
SWIDTH 1080 0
DWIDTH 9 0
BBX 9 18 0 -4
BITMAP
0000
0000
2400
2400
0000
0000
0000
0000
0000
0000
0000
0000
0000
0000
0000
0000
0000
0000
ENDCHAR
STARTCHAR SCopyright
ENCODING 169
SWIDTH 1080 0
DWIDTH 9 0
BBX 9 18 0 -4
BITMAP
0000
0000
0000
0000
3c00
4200
9900
a500
a100
a100
a500
9900
4200
3c00
0000
0000
0000
0000
ENDCHAR
STARTCHAR OrdFem
ENCODING 170
SWIDTH 1080 0
DWIDTH 9 0
BBX 9 18 0 -4
BITMAP
0000
0000
0000
1c00
0200
1e00
2200
1e00
0000
3e00
0000
0000
0000
0000
0000
0000
0000
0000
ENDCHAR
STARTCHAR PQuoteAngle2L
ENCODING 171
SWIDTH 1080 0
DWIDTH 9 0
BBX 9 18 0 -4
BITMAP
0000
0000
0000
0000
0000
0000
0000
1200
2400
4800
2400
1200
0000
0000
0000
0000
0000
0000
ENDCHAR
STARTCHAR MNot
ENCODING 172
SWIDTH 1080 0
DWIDTH 9 0
BBX 9 18 0 -4
BITMAP
0000
0000
0000
0000
0000
0000
0000
0000
7e00
0200
0200
0200
0000
0000
0000
0000
0000
0000
ENDCHAR
STARTCHAR PHyphenSoft
ENCODING 173
SWIDTH 1080 0
DWIDTH 9 0
BBX 9 18 0 -4
BITMAP
0000
0000
0000
0000
0000
0000
0000
0000
0000
3e00
0000
0000
0000
0000
0000
0000
0000
0000
ENDCHAR
STARTCHAR SRegistered
ENCODING 174
SWIDTH 1080 0
DWIDTH 9 0
BBX 9 18 0 -4
BITMAP
0000
0000
0000
0000
3c00
4200
b900
a500
a500
b900
a500
a500
4200
3c00
0000
0000
0000
0000
ENDCHAR
STARTCHAR AccMacronLong
ENCODING 175
SWIDTH 1080 0
DWIDTH 9 0
BBX 9 18 0 -4
BITMAP
0000
0000
0000
7e00
0000
0000
0000
0000
0000
0000
0000
0000
0000
0000
0000
0000
0000
0000
ENDCHAR
STARTCHAR SDegree
ENCODING 176
SWIDTH 1080 0
DWIDTH 9 0
BBX 9 18 0 -4
BITMAP
0000
0000
0000
1800
2400
2400
1800
0000
0000
0000
0000
0000
0000
0000
0000
0000
0000
0000
ENDCHAR
STARTCHAR MPlusMinus
ENCODING 177
SWIDTH 1080 0
DWIDTH 9 0
BBX 9 18 0 -4
BITMAP
0000
0000
0000
0000
0000
0800
0800
0800
7f00
0800
0800
0800
0000
7f00
0000
0000
0000
0000
ENDCHAR
STARTCHAR Sup2
ENCODING 178
SWIDTH 1080 0
DWIDTH 9 0
BBX 9 18 0 -4
BITMAP
0000
0000
1c00
2200
0200
0400
0800
1000
3e00
0000
0000
0000
0000
0000
0000
0000
0000
0000
ENDCHAR
STARTCHAR Sup3
ENCODING 179
SWIDTH 1080 0
DWIDTH 9 0
BBX 9 18 0 -4
BITMAP
0000
0000
1c00
2200
0200
0c00
0200
2200
1c00
0000
0000
0000
0000
0000
0000
0000
0000
0000
ENDCHAR
STARTCHAR AccAcute
ENCODING 180
SWIDTH 1080 0
DWIDTH 9 0
BBX 9 18 0 -4
BITMAP
0000
0000
0400
0400
0800
1000
0000
0000
0000
0000
0000
0000
0000
0000
0000
0000
0000
0000
ENDCHAR
STARTCHAR SMicro
ENCODING 181
SWIDTH 1080 0
DWIDTH 9 0
BBX 9 18 0 -4
BITMAP
0000
0000
0000
0000
0000
0000
4200
4200
4200
4200
4200
4200
6600
5900
4000
4000
4000
0000
ENDCHAR
STARTCHAR SPilcrow
ENCODING 182
SWIDTH 1080 0
DWIDTH 9 0
BBX 9 18 0 -4
BITMAP
0000
0000
0000
3e00
4a00
4a00
4a00
3a00
0a00
0a00
0a00
0a00
0a00
0a00
0000
0000
0000
0000
ENDCHAR
STARTCHAR PMiddleDot
ENCODING 183
SWIDTH 1080 0
DWIDTH 9 0
BBX 9 18 0 -4
BITMAP
0000
0000
0000
0000
0000
0000
0000
0000
1800
1800
0000
0000
0000
0000
0000
0000
0000
0000
ENDCHAR
STARTCHAR AccCedilla
ENCODING 184
SWIDTH 1080 0
DWIDTH 9 0
BBX 9 18 0 -4
BITMAP
0000
0000
0000
0000
0000
0000
0000
0000
0000
0000
0000
0000
0000
0800
0800
0400
3800
0000
ENDCHAR
STARTCHAR Sup1
ENCODING 185
SWIDTH 1080 0
DWIDTH 9 0
BBX 9 18 0 -4
BITMAP
0000
0000
0800
1800
2800
0800
0800
0800
0800
0000
0000
0000
0000
0000
0000
0000
0000
0000
ENDCHAR
STARTCHAR OrdMasc
ENCODING 186
SWIDTH 1080 0
DWIDTH 9 0
BBX 9 18 0 -4
BITMAP
0000
0000
0000
1c00
2200
2200
2200
1c00
0000
3e00
0000
0000
0000
0000
0000
0000
0000
0000
ENDCHAR
STARTCHAR PQuoteAngle2R
ENCODING 187
SWIDTH 1080 0
DWIDTH 9 0
BBX 9 18 0 -4
BITMAP
0000
0000
0000
0000
0000
0000
0000
4800
2400
1200
2400
4800
0000
0000
0000
0000
0000
0000
ENDCHAR
STARTCHAR Frac14
ENCODING 188
SWIDTH 1080 0
DWIDTH 9 0
BBX 9 18 0 -4
BITMAP
0000
0000
2000
6100
2100
2200
2400
2400
0800
1200
1600
2a00
4a00
4f00
0200
0000
0000
0000
ENDCHAR
STARTCHAR Frac12
ENCODING 189
SWIDTH 1080 0
DWIDTH 9 0
BBX 9 18 0 -4
BITMAP
0000
0000
2000
6100
2100
2200
2400
2400
0800
1600
1900
2100
4600
4800
0f00
0000
0000
0000
ENDCHAR
STARTCHAR Frac34
ENCODING 190
SWIDTH 1080 0
DWIDTH 9 0
BBX 9 18 0 -4
BITMAP
0000
0000
3000
4900
1100
0a00
4a00
3400
0800
1200
1600
2a00
4a00
4f00
0200
0000
0000
0000
ENDCHAR
STARTCHAR PQuestionInv
ENCODING 191
SWIDTH 1080 0
DWIDTH 9 0
BBX 9 18 0 -4
BITMAP
0000
0000
0000
0000
0000
0000
0800
0800
0000
0800
0800
1000
2000
4000
4100
4100
3e00
0000
ENDCHAR
STARTCHAR LtCapAGrave
ENCODING 192
SWIDTH 1080 0
DWIDTH 9 0
BBX 9 18 0 -4
BITMAP
2000
1800
0000
0800
0800
0800
1400
1400
2200
2200
3e00
4100
4100
4100
0000
0000
0000
0000
ENDCHAR
STARTCHAR LtCapAAcute
ENCODING 193
SWIDTH 1080 0
DWIDTH 9 0
BBX 9 18 0 -4
BITMAP
0200
0c00
0000
0800
0800
0800
1400
1400
2200
2200
3e00
4100
4100
4100
0000
0000
0000
0000
ENDCHAR
STARTCHAR LtCapACircum
ENCODING 194
SWIDTH 1080 0
DWIDTH 9 0
BBX 9 18 0 -4
BITMAP
0c00
1200
0000
0800
0800
0800
1400
1400
2200
2200
3e00
4100
4100
4100
0000
0000
0000
0000
ENDCHAR
STARTCHAR LtCapATilde
ENCODING 195
SWIDTH 1080 0
DWIDTH 9 0
BBX 9 18 0 -4
BITMAP
1200
2c00
0000
0800
0800
0800
1400
1400
2200
2200
3e00
4100
4100
4100
0000
0000
0000
0000
ENDCHAR
STARTCHAR LtCapADrss
ENCODING 196
SWIDTH 1080 0
DWIDTH 9 0
BBX 9 18 0 -4
BITMAP
1200
1200
0000
0800
0800
0800
1400
1400
2200
2200
3e00
4100
4100
4100
0000
0000
0000
0000
ENDCHAR
STARTCHAR LtCapARing
ENCODING 197
SWIDTH 1080 0
DWIDTH 9 0
BBX 9 18 0 -4
BITMAP
1c00
2200
2200
1c00
0800
0800
1400
1400
2200
2200
3e00
4100
4100
4100
0000
0000
0000
0000
ENDCHAR
STARTCHAR LtCapAE
ENCODING 198
SWIDTH 1080 0
DWIDTH 9 0
BBX 9 18 0 -4
BITMAP
0000
0000
0000
1f00
1800
2800
2800
2800
4e00
4800
7800
8800
8800
8f00
0000
0000
0000
0000
ENDCHAR
STARTCHAR LtCapCCedilla
ENCODING 199
SWIDTH 1080 0
DWIDTH 9 0
BBX 9 18 0 -4
BITMAP
0000
0000
0000
1c00
2200
4000
4000
4000
4000
4000
4000
4000
2200
1c00
0800
0400
1800
0000
ENDCHAR
STARTCHAR LtCapEGrave
ENCODING 200
SWIDTH 1080 0
DWIDTH 9 0
BBX 9 18 0 -4
BITMAP
2000
1800
0000
7e00
4000
4000
4000
4000
7800
4000
4000
4000
4000
7e00
0000
0000
0000
0000
ENDCHAR
STARTCHAR LtCapEAcute
ENCODING 201
SWIDTH 1080 0
DWIDTH 9 0
BBX 9 18 0 -4
BITMAP
0400
1800
0000
7e00
4000
4000
4000
4000
7800
4000
4000
4000
4000
7e00
0000
0000
0000
0000
ENDCHAR
STARTCHAR LtCapECircum
ENCODING 202
SWIDTH 1080 0
DWIDTH 9 0
BBX 9 18 0 -4
BITMAP
1800
2400
0000
7e00
4000
4000
4000
4000
7800
4000
4000
4000
4000
7e00
0000
0000
0000
0000
ENDCHAR
STARTCHAR LtCapEDrss
ENCODING 203
SWIDTH 1080 0
DWIDTH 9 0
BBX 9 18 0 -4
BITMAP
2400
2400
0000
7e00
4000
4000
4000
4000
7800
4000
4000
4000
4000
7e00
0000
0000
0000
0000
ENDCHAR
STARTCHAR LtCapIGrave
ENCODING 204
SWIDTH 1080 0
DWIDTH 9 0
BBX 9 18 0 -4
BITMAP
1000
0c00
0000
3e00
0800
0800
0800
0800
0800
0800
0800
0800
0800
3e00
0000
0000
0000
0000
ENDCHAR
STARTCHAR LtCapIAcute
ENCODING 205
SWIDTH 1080 0
DWIDTH 9 0
BBX 9 18 0 -4
BITMAP
0400
1800
0000
3e00
0800
0800
0800
0800
0800
0800
0800
0800
0800
3e00
0000
0000
0000
0000
ENDCHAR
STARTCHAR LtCapICircum
ENCODING 206
SWIDTH 1080 0
DWIDTH 9 0
BBX 9 18 0 -4
BITMAP
0c00
1200
0000
3e00
0800
0800
0800
0800
0800
0800
0800
0800
0800
3e00
0000
0000
0000
0000
ENDCHAR
STARTCHAR LtCapIDrss
ENCODING 207
SWIDTH 1080 0
DWIDTH 9 0
BBX 9 18 0 -4
BITMAP
1200
1200
0000
3e00
0800
0800
0800
0800
0800
0800
0800
0800
0800
3e00
0000
0000
0000
0000
ENDCHAR
STARTCHAR LtCapEth
ENCODING 208
SWIDTH 1080 0
DWIDTH 9 0
BBX 9 18 0 -4
BITMAP
0000
0000
0000
7800
4400
4200
4200
4200
f200
4200
4200
4200
4400
7800
0000
0000
0000
0000
ENDCHAR
STARTCHAR LtCapNTilde
ENCODING 209
SWIDTH 1080 0
DWIDTH 9 0
BBX 9 18 0 -4
BITMAP
1200
2c00
0000
4200
4200
6200
6200
5200
4a00
4a00
4600
4600
4200
4200
0000
0000
0000
0000
ENDCHAR
STARTCHAR LtCapOGrave
ENCODING 210
SWIDTH 1080 0
DWIDTH 9 0
BBX 9 18 0 -4
BITMAP
2000
1800
0000
3c00
4200
4200
4200
4200
4200
4200
4200
4200
4200
3c00
0000
0000
0000
0000
ENDCHAR
STARTCHAR LtCapOAcute
ENCODING 211
SWIDTH 1080 0
DWIDTH 9 0
BBX 9 18 0 -4
BITMAP
0400
1800
0000
3c00
4200
4200
4200
4200
4200
4200
4200
4200
4200
3c00
0000
0000
0000
0000
ENDCHAR
STARTCHAR LtCapOCircum
ENCODING 212
SWIDTH 1080 0
DWIDTH 9 0
BBX 9 18 0 -4
BITMAP
1800
2400
0000
3c00
4200
4200
4200
4200
4200
4200
4200
4200
4200
3c00
0000
0000
0000
0000
ENDCHAR
STARTCHAR LtCapOTilde
ENCODING 213
SWIDTH 1080 0
DWIDTH 9 0
BBX 9 18 0 -4
BITMAP
1200
2c00
0000
3c00
4200
4200
4200
4200
4200
4200
4200
4200
4200
3c00
0000
0000
0000
0000
ENDCHAR
STARTCHAR LtCapODrss
ENCODING 214
SWIDTH 1080 0
DWIDTH 9 0
BBX 9 18 0 -4
BITMAP
2400
2400
0000
3c00
4200
4200
4200
4200
4200
4200
4200
4200
4200
3c00
0000
0000
0000
0000
ENDCHAR
STARTCHAR MMultiply
ENCODING 215
SWIDTH 1080 0
DWIDTH 9 0
BBX 9 18 0 -4
BITMAP
0000
0000
0000
0000
0000
0000
0000
4200
2400
1800
1800
2400
4200
0000
0000
0000
0000
0000
ENDCHAR
STARTCHAR LtCapOStroke
ENCODING 216
SWIDTH 1080 0
DWIDTH 9 0
BBX 9 18 0 -4
BITMAP
0000
0000
0200
3c00
4600
4600
4a00
4a00
4a00
5200
5200
6200
6200
3c00
4000
0000
0000
0000
ENDCHAR
STARTCHAR LtCapUGrave
ENCODING 217
SWIDTH 1080 0
DWIDTH 9 0
BBX 9 18 0 -4
BITMAP
2000
1800
0000
4200
4200
4200
4200
4200
4200
4200
4200
4200
4200
3c00
0000
0000
0000
0000
ENDCHAR
STARTCHAR LtCapUAcute
ENCODING 218
SWIDTH 1080 0
DWIDTH 9 0
BBX 9 18 0 -4
BITMAP
0400
1800
0000
4200
4200
4200
4200
4200
4200
4200
4200
4200
4200
3c00
0000
0000
0000
0000
ENDCHAR
STARTCHAR LtCapUCircum
ENCODING 219
SWIDTH 1080 0
DWIDTH 9 0
BBX 9 18 0 -4
BITMAP
1800
2400
0000
4200
4200
4200
4200
4200
4200
4200
4200
4200
4200
3c00
0000
0000
0000
0000
ENDCHAR
STARTCHAR LtCapUDrss
ENCODING 220
SWIDTH 1080 0
DWIDTH 9 0
BBX 9 18 0 -4
BITMAP
2400
2400
0000
4200
4200
4200
4200
4200
4200
4200
4200
4200
4200
3c00
0000
0000
0000
0000
ENDCHAR
STARTCHAR LtCapYAcute
ENCODING 221
SWIDTH 1080 0
DWIDTH 9 0
BBX 9 18 0 -4
BITMAP
0400
1800
0000
4100
4100
2200
2200
1400
1400
0800
0800
0800
0800
0800
0000
0000
0000
0000
ENDCHAR
STARTCHAR LtCapThorn
ENCODING 222
SWIDTH 1080 0
DWIDTH 9 0
BBX 9 18 0 -4
BITMAP
0000
0000
0000
4000
4000
4000
7c00
4200
4200
4200
7c00
4000
4000
4000
0000
0000
0000
0000
ENDCHAR
STARTCHAR LtSmlSz
ENCODING 223
SWIDTH 1080 0
DWIDTH 9 0
BBX 9 18 0 -4
BITMAP
0000
0000
0000
3800
4400
4400
4400
4800
4c00
4200
4200
4200
5200
4c00
0000
0000
0000
0000
ENDCHAR
STARTCHAR LtSmlAGrave
ENCODING 224
SWIDTH 1080 0
DWIDTH 9 0
BBX 9 18 0 -4
BITMAP
0000
0000
1000
1000
0800
0000
3c00
0200
0200
3e00
4200
4200
4600
3a00
0000
0000
0000
0000
ENDCHAR
STARTCHAR LtSmlAAcute
ENCODING 225
SWIDTH 1080 0
DWIDTH 9 0
BBX 9 18 0 -4
BITMAP
0000
0000
0800
0800
1000
0000
3c00
0200
0200
3e00
4200
4200
4600
3a00
0000
0000
0000
0000
ENDCHAR
STARTCHAR LtSmlACircum
ENCODING 226
SWIDTH 1080 0
DWIDTH 9 0
BBX 9 18 0 -4
BITMAP
0000
0000
0000
1800
2400
0000
3c00
0200
0200
3e00
4200
4200
4600
3a00
0000
0000
0000
0000
ENDCHAR
STARTCHAR LtSmlATilde
ENCODING 227
SWIDTH 1080 0
DWIDTH 9 0
BBX 9 18 0 -4
BITMAP
0000
0000
0000
1200
2c00
0000
3c00
0200
0200
3e00
4200
4200
4600
3a00
0000
0000
0000
0000
ENDCHAR
STARTCHAR LtSmlADrss
ENCODING 228
SWIDTH 1080 0
DWIDTH 9 0
BBX 9 18 0 -4
BITMAP
0000
0000
0000
2400
2400
0000
3c00
0200
0200
3e00
4200
4200
4600
3a00
0000
0000
0000
0000
ENDCHAR
STARTCHAR LtSmlARing
ENCODING 229
SWIDTH 1080 0
DWIDTH 9 0
BBX 9 18 0 -4
BITMAP
0000
1800
2400
2400
1800
0000
3c00
0200
0200
3e00
4200
4200
4600
3a00
0000
0000
0000
0000
ENDCHAR
STARTCHAR LtSmlAE
ENCODING 230
SWIDTH 1080 0
DWIDTH 9 0
BBX 9 18 0 -4
BITMAP
0000
0000
0000
0000
0000
0000
3600
4900
0900
3f00
4800
4800
4900
7600
0000
0000
0000
0000
ENDCHAR
STARTCHAR LtSmlCCedilla
ENCODING 231
SWIDTH 1080 0
DWIDTH 9 0
BBX 9 18 0 -4
BITMAP
0000
0000
0000
0000
0000
0000
1c00
2200
4000
4000
4000
4000
2200
1c00
0800
0400
1800
0000
ENDCHAR
STARTCHAR LtSmlEGrave
ENCODING 232
SWIDTH 1080 0
DWIDTH 9 0
BBX 9 18 0 -4
BITMAP
0000
0000
1000
1000
0800
0000
1c00
2200
4200
7e00
4000
4000
2200
1c00
0000
0000
0000
0000
ENDCHAR
STARTCHAR LtSmlEAcute
ENCODING 233
SWIDTH 1080 0
DWIDTH 9 0
BBX 9 18 0 -4
BITMAP
0000
0000
0800
0800
1000
0000
1c00
2200
4200
7e00
4000
4000
2200
1c00
0000
0000
0000
0000
ENDCHAR
STARTCHAR LtSmlECircum
ENCODING 234
SWIDTH 1080 0
DWIDTH 9 0
BBX 9 18 0 -4
BITMAP
0000
0000
0000
0c00
1200
0000
1c00
2200
4200
7e00
4000
4000
2200
1c00
0000
0000
0000
0000
ENDCHAR
STARTCHAR LtSmlEDrss
ENCODING 235
SWIDTH 1080 0
DWIDTH 9 0
BBX 9 18 0 -4
BITMAP
0000
0000
0000
2400
2400
0000
1c00
2200
4200
7e00
4000
4000
2200
1c00
0000
0000
0000
0000
ENDCHAR
STARTCHAR LtSmlIGrave
ENCODING 236
SWIDTH 1080 0
DWIDTH 9 0
BBX 9 18 0 -4
BITMAP
0000
0000
1000
1000
0800
0000
1800
0800
0800
0800
0800
0800
0800
3e00
0000
0000
0000
0000
ENDCHAR
STARTCHAR LtSmlIAcute
ENCODING 237
SWIDTH 1080 0
DWIDTH 9 0
BBX 9 18 0 -4
BITMAP
0000
0000
0400
0400
0800
0000
1800
0800
0800
0800
0800
0800
0800
3e00
0000
0000
0000
0000
ENDCHAR
STARTCHAR LtSmlICircum
ENCODING 238
SWIDTH 1080 0
DWIDTH 9 0
BBX 9 18 0 -4
BITMAP
0000
0000
0000
1800
2400
0000
1800
0800
0800
0800
0800
0800
0800
3e00
0000
0000
0000
0000
ENDCHAR
STARTCHAR LtSmlIDrss
ENCODING 239
SWIDTH 1080 0
DWIDTH 9 0
BBX 9 18 0 -4
BITMAP
0000
0000
0000
2400
2400
0000
1800
0800
0800
0800
0800
0800
0800
3e00
0000
0000
0000
0000
ENDCHAR
STARTCHAR LtSmlEth
ENCODING 240
SWIDTH 1080 0
DWIDTH 9 0
BBX 9 18 0 -4
BITMAP
0000
0000
0000
4800
3000
4800
1c00
2400
4200
4200
4200
4200
2400
1800
0000
0000
0000
0000
ENDCHAR
STARTCHAR LtSmlNTilde
ENCODING 241
SWIDTH 1080 0
DWIDTH 9 0
BBX 9 18 0 -4
BITMAP
0000
0000
0000
2400
5800
0000
5c00
6200
4200
4200
4200
4200
4200
4200
0000
0000
0000
0000
ENDCHAR
STARTCHAR LtSmlOGrave
ENCODING 242
SWIDTH 1080 0
DWIDTH 9 0
BBX 9 18 0 -4
BITMAP
0000
0000
1000
1000
0800
0000
3c00
4200
4200
4200
4200
4200
4200
3c00
0000
0000
0000
0000
ENDCHAR
STARTCHAR LtSmlOAcute
ENCODING 243
SWIDTH 1080 0
DWIDTH 9 0
BBX 9 18 0 -4
BITMAP
0000
0000
0800
0800
1000
0000
3c00
4200
4200
4200
4200
4200
4200
3c00
0000
0000
0000
0000
ENDCHAR
STARTCHAR LtSmlOCircum
ENCODING 244
SWIDTH 1080 0
DWIDTH 9 0
BBX 9 18 0 -4
BITMAP
0000
0000
0000
1800
2400
0000
3c00
4200
4200
4200
4200
4200
4200
3c00
0000
0000
0000
0000
ENDCHAR
STARTCHAR LtSmlOTilde
ENCODING 245
SWIDTH 1080 0
DWIDTH 9 0
BBX 9 18 0 -4
BITMAP
0000
0000
0000
1200
2c00
0000
3c00
4200
4200
4200
4200
4200
4200
3c00
0000
0000
0000
0000
ENDCHAR
STARTCHAR LtSmlODrss
ENCODING 246
SWIDTH 1080 0
DWIDTH 9 0
BBX 9 18 0 -4
BITMAP
0000
0000
0000
2400
2400
0000
3c00
4200
4200
4200
4200
4200
4200
3c00
0000
0000
0000
0000
ENDCHAR
STARTCHAR MDivision
ENCODING 247
SWIDTH 1080 0
DWIDTH 9 0
BBX 9 18 0 -4
BITMAP
0000
0000
0000
0000
0000
0800
1c00
0800
0000
7f00
0000
0800
1c00
0800
0000
0000
0000
0000
ENDCHAR
STARTCHAR LtSmlOStroke
ENCODING 248
SWIDTH 1080 0
DWIDTH 9 0
BBX 9 18 0 -4
BITMAP
0000
0000
0000
0000
0000
0200
3c00
4600
4a00
4a00
5200
5200
6200
3c00
4000
0000
0000
0000
ENDCHAR
STARTCHAR LtSmlUGrave
ENCODING 249
SWIDTH 1080 0
DWIDTH 9 0
BBX 9 18 0 -4
BITMAP
0000
0000
1000
1000
0800
0000
4200
4200
4200
4200
4200
4200
4600
3a00
0000
0000
0000
0000
ENDCHAR
STARTCHAR LtSmlUAcute
ENCODING 250
SWIDTH 1080 0
DWIDTH 9 0
BBX 9 18 0 -4
BITMAP
0000
0000
0800
0800
1000
0000
4200
4200
4200
4200
4200
4200
4600
3a00
0000
0000
0000
0000
ENDCHAR
STARTCHAR LtSmlUCircum
ENCODING 251
SWIDTH 1080 0
DWIDTH 9 0
BBX 9 18 0 -4
BITMAP
0000
0000
0000
1800
2400
0000
4200
4200
4200
4200
4200
4200
4600
3a00
0000
0000
0000
0000
ENDCHAR
STARTCHAR LtSmlUDrss
ENCODING 252
SWIDTH 1080 0
DWIDTH 9 0
BBX 9 18 0 -4
BITMAP
0000
0000
0000
2400
2400
0000
4200
4200
4200
4200
4200
4200
4600
3a00
0000
0000
0000
0000
ENDCHAR
STARTCHAR LtSmlYAcute
ENCODING 253
SWIDTH 1080 0
DWIDTH 9 0
BBX 9 18 0 -4
BITMAP
0000
0000
0800
0800
1000
0000
4200
4200
4200
2400
2400
1400
1800
0800
1000
5000
2000
0000
ENDCHAR
STARTCHAR LtSmlThorn
ENCODING 254
SWIDTH 1080 0
DWIDTH 9 0
BBX 9 18 0 -4
BITMAP
0000
0000
0000
4000
4000
4000
5c00
6200
4200
4200
4200
4200
6200
5c00
4000
4000
4000
0000
ENDCHAR
STARTCHAR LtSmlYDrss
ENCODING 255
SWIDTH 1080 0
DWIDTH 9 0
BBX 9 18 0 -4
BITMAP
0000
0000
0000
2400
2400
0000
4200
4200
4200
2400
2400
1400
1800
0800
1000
5000
2000
0000
ENDCHAR
STARTCHAR LtCapAMacron
ENCODING 256
SWIDTH 1080 0
DWIDTH 9 0
BBX 9 18 0 -4
BITMAP
3e00
0000
0000
0800
0800
0800
1400
1400
2200
2200
3e00
4100
4100
4100
0000
0000
0000
0000
ENDCHAR
STARTCHAR LtSmlAMacron
ENCODING 257
SWIDTH 1080 0
DWIDTH 9 0
BBX 9 18 0 -4
BITMAP
0000
0000
0000
3c00
0000
0000
3c00
0200
0200
3e00
4200
4200
4600
3a00
0000
0000
0000
0000
ENDCHAR
STARTCHAR LtCapABreve
ENCODING 258
SWIDTH 1080 0
DWIDTH 9 0
BBX 9 18 0 -4
BITMAP
2200
1c00
0000
0800
0800
0800
1400
1400
2200
2200
3e00
4100
4100
4100
0000
0000
0000
0000
ENDCHAR
STARTCHAR LtSmlABreve
ENCODING 259
SWIDTH 1080 0
DWIDTH 9 0
BBX 9 18 0 -4
BITMAP
0000
0000
0000
2200
1c00
0000
3c00
0200
0200
3e00
4200
4200
4600
3a00
0000
0000
0000
0000
ENDCHAR
STARTCHAR LtCapAOgonek
ENCODING 260
SWIDTH 1080 0
DWIDTH 9 0
BBX 9 18 0 -4
BITMAP
0000
0000
0000
0800
0800
0800
1400
1400
2200
2200
3e00
4100
4100
4100
0200
0400
0300
0000
ENDCHAR
STARTCHAR LtSmlAOgonek
ENCODING 261
SWIDTH 1080 0
DWIDTH 9 0
BBX 9 18 0 -4
BITMAP
0000
0000
0000
0000
0000
0000
3c00
0200
0200
3e00
4200
4200
4600
3a00
0400
0800
0600
0000
ENDCHAR
STARTCHAR LtCapCAcute
ENCODING 262
SWIDTH 1080 0
DWIDTH 9 0
BBX 9 18 0 -4
BITMAP
0400
1800
0000
1c00
2200
4000
4000
4000
4000
4000
4000
4000
2200
1c00
0000
0000
0000
0000
ENDCHAR
STARTCHAR LtSmlCAcute
ENCODING 263
SWIDTH 1080 0
DWIDTH 9 0
BBX 9 18 0 -4
BITMAP
0000
0000
0400
0400
0800
0000
1c00
2200
4000
4000
4000
4000
2200
1c00
0000
0000
0000
0000
ENDCHAR
STARTCHAR LtCapCCircum
ENCODING 264
SWIDTH 1080 0
DWIDTH 9 0
BBX 9 18 0 -4
BITMAP
0c00
1200
0000
1c00
2200
4000
4000
4000
4000
4000
4000
4000
2200
1c00
0000
0000
0000
0000
ENDCHAR
STARTCHAR LtSmlCCircum
ENCODING 265
SWIDTH 1080 0
DWIDTH 9 0
BBX 9 18 0 -4
BITMAP
0000
0000
0000
0c00
1200
0000
1c00
2200
4000
4000
4000
4000
2200
1c00
0000
0000
0000
0000
ENDCHAR
STARTCHAR LtCapCDot
ENCODING 266
SWIDTH 1080 0
DWIDTH 9 0
BBX 9 18 0 -4
BITMAP
0800
0800
0000
1c00
2200
4000
4000
4000
4000
4000
4000
4000
2200
1c00
0000
0000
0000
0000
ENDCHAR
STARTCHAR LtSmlCDot
ENCODING 267
SWIDTH 1080 0
DWIDTH 9 0
BBX 9 18 0 -4
BITMAP
0000
0000
0800
0800
0000
0000
1c00
2200
4000
4000
4000
4000
2200
1c00
0000
0000
0000
0000
ENDCHAR
STARTCHAR LtCapCCaron
ENCODING 268
SWIDTH 1080 0
DWIDTH 9 0
BBX 9 18 0 -4
BITMAP
1200
0c00
0000
1c00
2200
4000
4000
4000
4000
4000
4000
4000
2200
1c00
0000
0000
0000
0000
ENDCHAR
STARTCHAR LtSmlCCaron
ENCODING 269
SWIDTH 1080 0
DWIDTH 9 0
BBX 9 18 0 -4
BITMAP
0000
0000
0000
1200
0c00
0000
1c00
2200
4000
4000
4000
4000
2200
1c00
0000
0000
0000
0000
ENDCHAR
STARTCHAR LtCapDCaron
ENCODING 270
SWIDTH 1080 0
DWIDTH 9 0
BBX 9 18 0 -4
BITMAP
4800
3000
0000
7800
4400
4200
4200
4200
4200
4200
4200
4200
4400
7800
0000
0000
0000
0000
ENDCHAR
STARTCHAR LtSmlDCaron
ENCODING 271
SWIDTH 1080 0
DWIDTH 9 0
BBX 9 18 0 -4
BITMAP
0000
0000
0180
0280
0280
0300
3a00
4600
4200
4200
4200
4200
4600
3a00
0000
0000
0000
0000
ENDCHAR
STARTCHAR LtCapDStroke
ENCODING 272
SWIDTH 1080 0
DWIDTH 9 0
BBX 9 18 0 -4
BITMAP
0000
0000
0000
7800
4400
4200
4200
4200
f200
4200
4200
4200
4400
7800
0000
0000
0000
0000
ENDCHAR
STARTCHAR LtSmlDStroke
ENCODING 273
SWIDTH 1080 0
DWIDTH 9 0
BBX 9 18 0 -4
BITMAP
0000
0000
0000
0200
0f00
0200
3a00
4600
4200
4200
4200
4200
4600
3a00
0000
0000
0000
0000
ENDCHAR
STARTCHAR LtCapEMacron
ENCODING 274
SWIDTH 1080 0
DWIDTH 9 0
BBX 9 18 0 -4
BITMAP
3c00
0000
0000
7e00
4000
4000
4000
4000
7800
4000
4000
4000
4000
7e00
0000
0000
0000
0000
ENDCHAR
STARTCHAR LtSmlEMacron
ENCODING 275
SWIDTH 1080 0
DWIDTH 9 0
BBX 9 18 0 -4
BITMAP
0000
0000
0000
1e00
0000
0000
1c00
2200
4200
7e00
4000
4000
2200
1c00
0000
0000
0000
0000
ENDCHAR
STARTCHAR LtCapEBreve
ENCODING 276
SWIDTH 1080 0
DWIDTH 9 0
BBX 9 18 0 -4
BITMAP
2200
1c00
0000
7e00
4000
4000
4000
4000
7800
4000
4000
4000
4000
7e00
0000
0000
0000
0000
ENDCHAR
STARTCHAR LtSmlEBreve
ENCODING 277
SWIDTH 1080 0
DWIDTH 9 0
BBX 9 18 0 -4
BITMAP
0000
0000
0000
2200
1c00
0000
1c00
2200
4200
7e00
4000
4000
2200
1c00
0000
0000
0000
0000
ENDCHAR
STARTCHAR LtCapEDot
ENCODING 278
SWIDTH 1080 0
DWIDTH 9 0
BBX 9 18 0 -4
BITMAP
1000
1000
0000
7e00
4000
4000
4000
4000
7800
4000
4000
4000
4000
7e00
0000
0000
0000
0000
ENDCHAR
STARTCHAR LtSmlEDot
ENCODING 279
SWIDTH 1080 0
DWIDTH 9 0
BBX 9 18 0 -4
BITMAP
0000
0000
0800
0800
0000
0000
1c00
2200
4200
7e00
4000
4000
2200
1c00
0000
0000
0000
0000
ENDCHAR
STARTCHAR LtCapEOgonek
ENCODING 280
SWIDTH 1080 0
DWIDTH 9 0
BBX 9 18 0 -4
BITMAP
0000
0000
0000
7e00
4000
4000
4000
4000
7800
4000
4000
4000
4000
7e00
0400
0800
0600
0000
ENDCHAR
STARTCHAR LtSmlEOgonek
ENCODING 281
SWIDTH 1080 0
DWIDTH 9 0
BBX 9 18 0 -4
BITMAP
0000
0000
0000
0000
0000
0000
1c00
2200
4200
7e00
4000
4000
2200
1c00
0800
1000
0c00
0000
ENDCHAR
STARTCHAR LtCapECaron
ENCODING 282
SWIDTH 1080 0
DWIDTH 9 0
BBX 9 18 0 -4
BITMAP
2400
1800
0000
7e00
4000
4000
4000
4000
7800
4000
4000
4000
4000
7e00
0000
0000
0000
0000
ENDCHAR
STARTCHAR LtSmlECaron
ENCODING 283
SWIDTH 1080 0
DWIDTH 9 0
BBX 9 18 0 -4
BITMAP
0000
0000
0000
1200
0c00
0000
1c00
2200
4200
7e00
4000
4000
2200
1c00
0000
0000
0000
0000
ENDCHAR
STARTCHAR LtCapGCircum
ENCODING 284
SWIDTH 1080 0
DWIDTH 9 0
BBX 9 18 0 -4
BITMAP
0c00
1200
0000
1c00
2200
4000
4000
4000
4e00
4200
4200
4200
2200
1e00
0000
0000
0000
0000
ENDCHAR
STARTCHAR LtSmlGCircum
ENCODING 285
SWIDTH 1080 0
DWIDTH 9 0
BBX 9 18 0 -4
BITMAP
0000
0000
0000
1800
2400
0000
3a00
4400
4400
4400
4400
3800
4000
3c00
4200
4200
3c00
0000
ENDCHAR
STARTCHAR LtCapGBreve
ENCODING 286
SWIDTH 1080 0
DWIDTH 9 0
BBX 9 18 0 -4
BITMAP
1200
0c00
0000
1c00
2200
4000
4000
4000
4e00
4200
4200
4200
2200
1e00
0000
0000
0000
0000
ENDCHAR
STARTCHAR LtSmlGBreve
ENCODING 287
SWIDTH 1080 0
DWIDTH 9 0
BBX 9 18 0 -4
BITMAP
0000
0000
0000
2400
1800
0000
3a00
4400
4400
4400
4400
3800
4000
3c00
4200
4200
3c00
0000
ENDCHAR
STARTCHAR LtCapGDot
ENCODING 288
SWIDTH 1080 0
DWIDTH 9 0
BBX 9 18 0 -4
BITMAP
0800
0800
0000
1c00
2200
4000
4000
4000
4e00
4200
4200
4200
2200
1e00
0000
0000
0000
0000
ENDCHAR
STARTCHAR LtSmlGDot
ENCODING 289
SWIDTH 1080 0
DWIDTH 9 0
BBX 9 18 0 -4
BITMAP
0000
0000
1000
1000
0000
0000
3a00
4400
4400
4400
4400
3800
4000
3c00
4200
4200
3c00
0000
ENDCHAR
STARTCHAR LtCapGComma
ENCODING 290
SWIDTH 1080 0
DWIDTH 9 0
BBX 9 18 0 -4
BITMAP
0000
0000
0000
1c00
2200
4000
4000
4000
4e00
4200
4200
4200
2200
1e00
1000
0800
1000
0000
ENDCHAR
STARTCHAR LtSmlGComma
ENCODING 291
SWIDTH 1080 0
DWIDTH 9 0
BBX 9 18 0 -4
BITMAP
0000
0000
0800
1000
0800
0000
3a00
4400
4400
4400
4400
3800
4000
3c00
4200
4200
3c00
0000
ENDCHAR
STARTCHAR LtCapHCircum
ENCODING 292
SWIDTH 1080 0
DWIDTH 9 0
BBX 9 18 0 -4
BITMAP
1800
2400
0000
4200
4200
4200
4200
4200
7e00
4200
4200
4200
4200
4200
0000
0000
0000
0000
ENDCHAR
STARTCHAR LtSmlHCircum
ENCODING 293
SWIDTH 1080 0
DWIDTH 9 0
BBX 9 18 0 -4
BITMAP
1800
2400
0000
4000
4000
4000
5c00
6200
4200
4200
4200
4200
4200
4200
0000
0000
0000
0000
ENDCHAR
STARTCHAR LtCapHStroke
ENCODING 294
SWIDTH 1080 0
DWIDTH 9 0
BBX 9 18 0 -4
BITMAP
0000
0000
0000
4200
4200
4200
ff00
4200
7e00
4200
4200
4200
4200
4200
0000
0000
0000
0000
ENDCHAR
STARTCHAR LtSmlHStroke
ENCODING 295
SWIDTH 1080 0
DWIDTH 9 0
BBX 9 18 0 -4
BITMAP
0000
0000
0000
4000
f800
4000
5c00
6200
4200
4200
4200
4200
4200
4200
0000
0000
0000
0000
ENDCHAR
STARTCHAR LtCapITilde
ENCODING 296
SWIDTH 1080 0
DWIDTH 9 0
BBX 9 18 0 -4
BITMAP
1200
2c00
0000
3e00
0800
0800
0800
0800
0800
0800
0800
0800
0800
3e00
0000
0000
0000
0000
ENDCHAR
STARTCHAR LtSmlITilde
ENCODING 297
SWIDTH 1080 0
DWIDTH 9 0
BBX 9 18 0 -4
BITMAP
0000
0000
0000
1200
2c00
0000
1800
0800
0800
0800
0800
0800
0800
3e00
0000
0000
0000
0000
ENDCHAR
STARTCHAR LtCapIMacron
ENCODING 298
SWIDTH 1080 0
DWIDTH 9 0
BBX 9 18 0 -4
BITMAP
3e00
0000
0000
3e00
0800
0800
0800
0800
0800
0800
0800
0800
0800
3e00
0000
0000
0000
0000
ENDCHAR
STARTCHAR LtSmlIMacron
ENCODING 299
SWIDTH 1080 0
DWIDTH 9 0
BBX 9 18 0 -4
BITMAP
0000
0000
0000
3c00
0000
0000
1800
0800
0800
0800
0800
0800
0800
3e00
0000
0000
0000
0000
ENDCHAR
STARTCHAR LtCapIBreve
ENCODING 300
SWIDTH 1080 0
DWIDTH 9 0
BBX 9 18 0 -4
BITMAP
2200
1c00
0000
3e00
0800
0800
0800
0800
0800
0800
0800
0800
0800
3e00
0000
0000
0000
0000
ENDCHAR
STARTCHAR LtSmlIBreve
ENCODING 301
SWIDTH 1080 0
DWIDTH 9 0
BBX 9 18 0 -4
BITMAP
0000
0000
0000
2400
1800
0000
1800
0800
0800
0800
0800
0800
0800
3e00
0000
0000
0000
0000
ENDCHAR
STARTCHAR LtCapIOgonek
ENCODING 302
SWIDTH 1080 0
DWIDTH 9 0
BBX 9 18 0 -4
BITMAP
0000
0000
0000
3e00
0800
0800
0800
0800
0800
0800
0800
0800
0800
3e00
0400
0800
0600
0000
ENDCHAR
STARTCHAR LtSmlIOgonek
ENCODING 303
SWIDTH 1080 0
DWIDTH 9 0
BBX 9 18 0 -4
BITMAP
0000
0000
0800
0800
0000
0000
1800
0800
0800
0800
0800
0800
0800
3e00
0400
0800
0600
0000
ENDCHAR
STARTCHAR LtCapIDot
ENCODING 304
SWIDTH 1080 0
DWIDTH 9 0
BBX 9 18 0 -4
BITMAP
0800
0800
0000
3e00
0800
0800
0800
0800
0800
0800
0800
0800
0800
3e00
0000
0000
0000
0000
ENDCHAR
STARTCHAR LtSmlIDotless
ENCODING 305
SWIDTH 1080 0
DWIDTH 9 0
BBX 9 18 0 -4
BITMAP
0000
0000
0000
0000
0000
0000
1800
0800
0800
0800
0800
0800
0800
3e00
0000
0000
0000
0000
ENDCHAR
STARTCHAR LtCapIJ
ENCODING 306
SWIDTH 1080 0
DWIDTH 9 0
BBX 9 18 0 -4
BITMAP
0000
0000
0000
e700
4200
4200
4200
4200
4200
4200
4200
5200
5200
ec00
0000
0000
0000
0000
ENDCHAR
STARTCHAR LtSmlIJ
ENCODING 307
SWIDTH 1080 0
DWIDTH 9 0
BBX 9 18 0 -4
BITMAP
0000
0000
4200
4200
0000
0000
c600
4200
4200
4200
4200
4200
4200
e200
0200
0200
0c00
0000
ENDCHAR
STARTCHAR LtCapJCircum
ENCODING 308
SWIDTH 1080 0
DWIDTH 9 0
BBX 9 18 0 -4
BITMAP
0c00
1200
0000
0e00
0400
0400
0400
0400
0400
0400
0400
4400
4400
3800
0000
0000
0000
0000
ENDCHAR
STARTCHAR LtSmlJCircum
ENCODING 309
SWIDTH 1080 0
DWIDTH 9 0
BBX 9 18 0 -4
BITMAP
0000
0000
0000
0c00
1200
0000
1c00
0400
0400
0400
0400
0400
0400
0400
4400
4400
3800
0000
ENDCHAR
STARTCHAR LtCapKComma
ENCODING 310
SWIDTH 1080 0
DWIDTH 9 0
BBX 9 18 0 -4
BITMAP
0000
0000
0000
4200
4200
4400
4400
4800
5000
6800
4400
4400
4200
4200
1000
0800
1000
0000
ENDCHAR
STARTCHAR LtSmlKComma
ENCODING 311
SWIDTH 1080 0
DWIDTH 9 0
BBX 9 18 0 -4
BITMAP
0000
0000
0000
4000
4000
4000
4200
4400
4800
5000
7000
4800
4400
4200
1000
0800
1000
0000
ENDCHAR
STARTCHAR LtSmlKra
ENCODING 312
SWIDTH 1080 0
DWIDTH 9 0
BBX 9 18 0 -4
BITMAP
0000
0000
0000
0000
0000
0000
4200
4400
4800
5000
7000
4800
4400
4200
0000
0000
0000
0000
ENDCHAR
STARTCHAR LtCapLAcute
ENCODING 313
SWIDTH 1080 0
DWIDTH 9 0
BBX 9 18 0 -4
BITMAP
0800
3000
0000
4000
4000
4000
4000
4000
4000
4000
4000
4000
4000
7e00
0000
0000
0000
0000
ENDCHAR
STARTCHAR LtSmlLAcute
ENCODING 314
SWIDTH 1080 0
DWIDTH 9 0
BBX 9 18 0 -4
BITMAP
0400
1800
0000
1800
0800
0800
0800
0800
0800
0800
0800
0800
0800
3e00
0000
0000
0000
0000
ENDCHAR
STARTCHAR LtCapLComma
ENCODING 315
SWIDTH 1080 0
DWIDTH 9 0
BBX 9 18 0 -4
BITMAP
0000
0000
0000
4000
4000
4000
4000
4000
4000
4000
4000
4000
4000
7e00
1000
0800
1000
0000
ENDCHAR
STARTCHAR LtSmlLComma
ENCODING 316
SWIDTH 1080 0
DWIDTH 9 0
BBX 9 18 0 -4
BITMAP
0000
0000
0000
1800
0800
0800
0800
0800
0800
0800
0800
0800
0800
3e00
0800
0400
0800
0000
ENDCHAR
STARTCHAR LtCapLCaron
ENCODING 317
SWIDTH 1080 0
DWIDTH 9 0
BBX 9 18 0 -4
BITMAP
0000
0000
0600
4200
4200
4400
4000
4000
4000
4000
4000
4000
4000
7e00
0000
0000
0000
0000
ENDCHAR
STARTCHAR LtSmlLCaron
ENCODING 318
SWIDTH 1080 0
DWIDTH 9 0
BBX 9 18 0 -4
BITMAP
0000
0000
0300
3100
1100
1200
1000
1000
1000
1000
1000
1000
1000
7c00
0000
0000
0000
0000
ENDCHAR
STARTCHAR LtCapLMdot
ENCODING 319
SWIDTH 1080 0
DWIDTH 9 0
BBX 9 18 0 -4
BITMAP
0000
0000
0000
4000
4000
4000
4000
4200
4200
4000
4000
4000
4000
7e00
0000
0000
0000
0000
ENDCHAR
STARTCHAR LtSmlLMdot
ENCODING 320
SWIDTH 1080 0
DWIDTH 9 0
BBX 9 18 0 -4
BITMAP
0000
0000
0000
3000
1000
1000
1000
1080
1080
1000
1000
1000
1000
7c00
0000
0000
0000
0000
ENDCHAR
STARTCHAR LtCapLStroke
ENCODING 321
SWIDTH 1080 0
DWIDTH 9 0
BBX 9 18 0 -4
BITMAP
0000
0000
0000
2000
2000
2000
2000
2800
3000
6000
2000
2000
2000
3f00
0000
0000
0000
0000
ENDCHAR
STARTCHAR LtSmlLStroke
ENCODING 322
SWIDTH 1080 0
DWIDTH 9 0
BBX 9 18 0 -4
BITMAP
0000
0000
0000
1800
0800
0800
0a00
0c00
1800
2800
0800
0800
0800
3e00
0000
0000
0000
0000
ENDCHAR
STARTCHAR LtCapNAcute
ENCODING 323
SWIDTH 1080 0
DWIDTH 9 0
BBX 9 18 0 -4
BITMAP
0400
1800
0000
4200
4200
6200
6200
5200
4a00
4a00
4600
4600
4200
4200
0000
0000
0000
0000
ENDCHAR
STARTCHAR LtSmlNAcute
ENCODING 324
SWIDTH 1080 0
DWIDTH 9 0
BBX 9 18 0 -4
BITMAP
0000
0000
0800
0800
1000
0000
5c00
6200
4200
4200
4200
4200
4200
4200
0000
0000
0000
0000
ENDCHAR
STARTCHAR LtCapNComma
ENCODING 325
SWIDTH 1080 0
DWIDTH 9 0
BBX 9 18 0 -4
BITMAP
0000
0000
0000
4200
4200
6200
6200
5200
4a00
4a00
4600
4600
4200
4200
1000
0800
1000
0000
ENDCHAR
STARTCHAR LtSmlNComma
ENCODING 326
SWIDTH 1080 0
DWIDTH 9 0
BBX 9 18 0 -4
BITMAP
0000
0000
0000
0000
0000
0000
5c00
6200
4200
4200
4200
4200
4200
4200
1000
0800
1000
0000
ENDCHAR
STARTCHAR LtCapNCaron
ENCODING 327
SWIDTH 1080 0
DWIDTH 9 0
BBX 9 18 0 -4
BITMAP
2400
1800
0000
4200
4200
6200
6200
5200
4a00
4a00
4600
4600
4200
4200
0000
0000
0000
0000
ENDCHAR
STARTCHAR LtSmlNCaron
ENCODING 328
SWIDTH 1080 0
DWIDTH 9 0
BBX 9 18 0 -4
BITMAP
0000
0000
0000
2400
1800
0000
5c00
6200
4200
4200
4200
4200
4200
4200
0000
0000
0000
0000
ENDCHAR
STARTCHAR LtSmlNApostr
ENCODING 329
SWIDTH 1080 0
DWIDTH 9 0
BBX 9 18 0 -4
BITMAP
0000
0000
c000
4000
4000
8000
2e00
3100
2100
2100
2100
2100
2100
2100
0000
0000
0000
0000
ENDCHAR
STARTCHAR LtCapEng
ENCODING 330
SWIDTH 1080 0
DWIDTH 9 0
BBX 9 18 0 -4
BITMAP
0000
0000
0000
5c00
6200
4200
4200
4200
4200
4200
4200
4200
4a00
4c00
0000
0000
0000
0000
ENDCHAR
STARTCHAR LtSmlEng
ENCODING 331
SWIDTH 1080 0
DWIDTH 9 0
BBX 9 18 0 -4
BITMAP
0000
0000
0000
0000
0000
0000
5c00
6200
4200
4200
4200
4200
4200
4200
0200
1200
0c00
0000
ENDCHAR
STARTCHAR LtCapOMacron
ENCODING 332
SWIDTH 1080 0
DWIDTH 9 0
BBX 9 18 0 -4
BITMAP
3c00
0000
0000
3c00
4200
4200
4200
4200
4200
4200
4200
4200
4200
3c00
0000
0000
0000
0000
ENDCHAR
STARTCHAR LtSmlOMacron
ENCODING 333
SWIDTH 1080 0
DWIDTH 9 0
BBX 9 18 0 -4
BITMAP
0000
0000
0000
3c00
0000
0000
3c00
4200
4200
4200
4200
4200
4200
3c00
0000
0000
0000
0000
ENDCHAR
STARTCHAR LtCapOBreve
ENCODING 334
SWIDTH 1080 0
DWIDTH 9 0
BBX 9 18 0 -4
BITMAP
2400
1800
0000
3c00
4200
4200
4200
4200
4200
4200
4200
4200
4200
3c00
0000
0000
0000
0000
ENDCHAR
STARTCHAR LtSmlOBreve
ENCODING 335
SWIDTH 1080 0
DWIDTH 9 0
BBX 9 18 0 -4
BITMAP
0000
0000
0000
2400
1800
0000
3c00
4200
4200
4200
4200
4200
4200
3c00
0000
0000
0000
0000
ENDCHAR
STARTCHAR LtCapOAcute2
ENCODING 336
SWIDTH 1080 0
DWIDTH 9 0
BBX 9 18 0 -4
BITMAP
1200
1200
2400
0000
3c00
4200
4200
4200
4200
4200
4200
4200
4200
3c00
0000
0000
0000
0000
ENDCHAR
STARTCHAR LtSmlOAcute2
ENCODING 337
SWIDTH 1080 0
DWIDTH 9 0
BBX 9 18 0 -4
BITMAP
0000
0000
1200
1200
2400
0000
3c00
4200
4200
4200
4200
4200
4200
3c00
0000
0000
0000
0000
ENDCHAR
STARTCHAR LtCapOE
ENCODING 338
SWIDTH 1080 0
DWIDTH 9 0
BBX 9 18 0 -4
BITMAP
0000
0000
0000
7f00
8800
8800
8800
8800
8e00
8800
8800
8800
8800
7f00
0000
0000
0000
0000
ENDCHAR
STARTCHAR LtSmlOE
ENCODING 339
SWIDTH 1080 0
DWIDTH 9 0
BBX 9 18 0 -4
BITMAP
0000
0000
0000
0000
0000
0000
3600
4900
4900
4f00
4800
4800
4900
3600
0000
0000
0000
0000
ENDCHAR
STARTCHAR LtCapRAcute
ENCODING 340
SWIDTH 1080 0
DWIDTH 9 0
BBX 9 18 0 -4
BITMAP
0400
1800
0000
7c00
4200
4200
4200
4200
7c00
4800
4400
4400
4200
4200
0000
0000
0000
0000
ENDCHAR
STARTCHAR LtSmlRAcute
ENCODING 341
SWIDTH 1080 0
DWIDTH 9 0
BBX 9 18 0 -4
BITMAP
0000
0000
0800
0800
1000
0000
6e00
3200
2000
2000
2000
2000
2000
2000
0000
0000
0000
0000
ENDCHAR
STARTCHAR LtCapRComma
ENCODING 342
SWIDTH 1080 0
DWIDTH 9 0
BBX 9 18 0 -4
BITMAP
0000
0000
0000
7c00
4200
4200
4200
4200
7c00
4800
4400
4400
4200
4200
1000
0800
1000
0000
ENDCHAR
STARTCHAR LtSmlRComma
ENCODING 343
SWIDTH 1080 0
DWIDTH 9 0
BBX 9 18 0 -4
BITMAP
0000
0000
0000
0000
0000
0000
6e00
3200
2000
2000
2000
2000
2000
2000
1000
0800
1000
0000
ENDCHAR
STARTCHAR LtCapRCaron
ENCODING 344
SWIDTH 1080 0
DWIDTH 9 0
BBX 9 18 0 -4
BITMAP
2400
1800
0000
7c00
4200
4200
4200
4200
7c00
4800
4400
4400
4200
4200
0000
0000
0000
0000
ENDCHAR
STARTCHAR LtSmlRCaron
ENCODING 345
SWIDTH 1080 0
DWIDTH 9 0
BBX 9 18 0 -4
BITMAP
0000
0000
0000
2400
1800
0000
6e00
3200
2000
2000
2000
2000
2000
2000
0000
0000
0000
0000
ENDCHAR
STARTCHAR LtCapSAcute
ENCODING 346
SWIDTH 1080 0
DWIDTH 9 0
BBX 9 18 0 -4
BITMAP
0400
1800
0000
3c00
4200
4000
4000
2000
1800
0400
0200
0200
4200
3c00
0000
0000
0000
0000
ENDCHAR
STARTCHAR LtSmlSAcute
ENCODING 347
SWIDTH 1080 0
DWIDTH 9 0
BBX 9 18 0 -4
BITMAP
0000
0000
0800
0800
1000
0000
3c00
4200
4000
3000
0c00
0200
4200
3c00
0000
0000
0000
0000
ENDCHAR
STARTCHAR LtCapSCircum
ENCODING 348
SWIDTH 1080 0
DWIDTH 9 0
BBX 9 18 0 -4
BITMAP
1800
2400
0000
3c00
4200
4000
4000
2000
1800
0400
0200
0200
4200
3c00
0000
0000
0000
0000
ENDCHAR
STARTCHAR LtSmlSCircum
ENCODING 349
SWIDTH 1080 0
DWIDTH 9 0
BBX 9 18 0 -4
BITMAP
0000
0000
0000
1800
2400
0000
3c00
4200
4000
3000
0c00
0200
4200
3c00
0000
0000
0000
0000
ENDCHAR
STARTCHAR LtCapSCedilla
ENCODING 350
SWIDTH 1080 0
DWIDTH 9 0
BBX 9 18 0 -4
BITMAP
0000
0000
0000
3c00
4200
4000
4000
2000
1800
0400
0200
0200
4200
3c00
1000
0800
3000
0000
ENDCHAR
STARTCHAR LtSmlSCedilla
ENCODING 351
SWIDTH 1080 0
DWIDTH 9 0
BBX 9 18 0 -4
BITMAP
0000
0000
0000
0000
0000
0000
3c00
4200
4000
3000
0c00
0200
4200
3c00
1000
0800
3000
0000
ENDCHAR
STARTCHAR LtCapSCaron
ENCODING 352
SWIDTH 1080 0
DWIDTH 9 0
BBX 9 18 0 -4
BITMAP
2400
1800
0000
3c00
4200
4000
4000
2000
1800
0400
0200
0200
4200
3c00
0000
0000
0000
0000
ENDCHAR
STARTCHAR LtSmlSCaron
ENCODING 353
SWIDTH 1080 0
DWIDTH 9 0
BBX 9 18 0 -4
BITMAP
0000
0000
0000
2400
1800
0000
3c00
4200
4000
3000
0c00
0200
4200
3c00
0000
0000
0000
0000
ENDCHAR
STARTCHAR LtCapTCedilla
ENCODING 354
SWIDTH 1080 0
DWIDTH 9 0
BBX 9 18 0 -4
BITMAP
0000
0000
0000
7f00
0800
0800
0800
0800
0800
0800
0800
0800
0800
0800
0c00
0400
1800
0000
ENDCHAR
STARTCHAR LtSmlTCedilla
ENCODING 355
SWIDTH 1080 0
DWIDTH 9 0
BBX 9 18 0 -4
BITMAP
0000
0000
0000
0000
1000
1000
7c00
1000
1000
1000
1000
1000
1200
0c00
0800
0400
1800
0000
ENDCHAR
STARTCHAR LtCapTCaron
ENCODING 356
SWIDTH 1080 0
DWIDTH 9 0
BBX 9 18 0 -4
BITMAP
1200
0c00
0000
7f00
0800
0800
0800
0800
0800
0800
0800
0800
0800
0800
0000
0000
0000
0000
ENDCHAR
STARTCHAR LtSmlTCaron
ENCODING 357
SWIDTH 1080 0
DWIDTH 9 0
BBX 9 18 0 -4
BITMAP
0000
0000
0300
0100
1100
1200
7c00
1000
1000
1000
1000
1000
1200
0c00
0000
0000
0000
0000
ENDCHAR
STARTCHAR LtCapTStroke
ENCODING 358
SWIDTH 1080 0
DWIDTH 9 0
BBX 9 18 0 -4
BITMAP
0000
0000
0000
7f00
0800
0800
0800
0800
3e00
0800
0800
0800
0800
0800
0000
0000
0000
0000
ENDCHAR
STARTCHAR LtSmlTStroke
ENCODING 359
SWIDTH 1080 0
DWIDTH 9 0
BBX 9 18 0 -4
BITMAP
0000
0000
0000
0000
1000
1000
7c00
1000
7c00
1000
1000
1000
1200
0c00
0000
0000
0000
0000
ENDCHAR
STARTCHAR LtCapUTilde
ENCODING 360
SWIDTH 1080 0
DWIDTH 9 0
BBX 9 18 0 -4
BITMAP
1200
2c00
0000
4200
4200
4200
4200
4200
4200
4200
4200
4200
4200
3c00
0000
0000
0000
0000
ENDCHAR
STARTCHAR LtSmlUTilde
ENCODING 361
SWIDTH 1080 0
DWIDTH 9 0
BBX 9 18 0 -4
BITMAP
0000
0000
0000
1200
2c00
0000
4200
4200
4200
4200
4200
4200
4600
3a00
0000
0000
0000
0000
ENDCHAR
STARTCHAR LtCapUMacron
ENCODING 362
SWIDTH 1080 0
DWIDTH 9 0
BBX 9 18 0 -4
BITMAP
3c00
0000
0000
4200
4200
4200
4200
4200
4200
4200
4200
4200
4200
3c00
0000
0000
0000
0000
ENDCHAR
STARTCHAR LtSmlUMacron
ENCODING 363
SWIDTH 1080 0
DWIDTH 9 0
BBX 9 18 0 -4
BITMAP
0000
0000
0000
3c00
0000
0000
4200
4200
4200
4200
4200
4200
4600
3a00
0000
0000
0000
0000
ENDCHAR
STARTCHAR LtCapUBreve
ENCODING 364
SWIDTH 1080 0
DWIDTH 9 0
BBX 9 18 0 -4
BITMAP
2400
1800
0000
4200
4200
4200
4200
4200
4200
4200
4200
4200
4200
3c00
0000
0000
0000
0000
ENDCHAR
STARTCHAR LtSmlUBreve
ENCODING 365
SWIDTH 1080 0
DWIDTH 9 0
BBX 9 18 0 -4
BITMAP
0000
0000
0000
2400
1800
0000
4200
4200
4200
4200
4200
4200
4600
3a00
0000
0000
0000
0000
ENDCHAR
STARTCHAR LtCapURing
ENCODING 366
SWIDTH 1080 0
DWIDTH 9 0
BBX 9 18 0 -4
BITMAP
1800
2400
2400
1800
4200
4200
4200
4200
4200
4200
4200
4200
4200
3c00
0000
0000
0000
0000
ENDCHAR
STARTCHAR LtSmlURing
ENCODING 367
SWIDTH 1080 0
DWIDTH 9 0
BBX 9 18 0 -4
BITMAP
0000
1800
2400
2400
1800
0000
4200
4200
4200
4200
4200
4200
4600
3a00
0000
0000
0000
0000
ENDCHAR
STARTCHAR LtCapUAcute2
ENCODING 368
SWIDTH 1080 0
DWIDTH 9 0
BBX 9 18 0 -4
BITMAP
1200
1200
2400
0000
4200
4200
4200
4200
4200
4200
4200
4200
4200
3c00
0000
0000
0000
0000
ENDCHAR
STARTCHAR LtSmlUAcute2
ENCODING 369
SWIDTH 1080 0
DWIDTH 9 0
BBX 9 18 0 -4
BITMAP
0000
0000
1200
1200
2400
0000
4200
4200
4200
4200
4200
4200
4600
3a00
0000
0000
0000
0000
ENDCHAR
STARTCHAR LtCapUOgonek
ENCODING 370
SWIDTH 1080 0
DWIDTH 9 0
BBX 9 18 0 -4
BITMAP
0000
0000
0000
4200
4200
4200
4200
4200
4200
4200
4200
4200
4200
3c00
0400
0800
0600
0000
ENDCHAR
STARTCHAR LtSmlUOgonek
ENCODING 371
SWIDTH 1080 0
DWIDTH 9 0
BBX 9 18 0 -4
BITMAP
0000
0000
0000
0000
0000
0000
4200
4200
4200
4200
4200
4200
4600
3a00
0400
0800
0600
0000
ENDCHAR
STARTCHAR LtCapWCircum
ENCODING 372
SWIDTH 1080 0
DWIDTH 9 0
BBX 9 18 0 -4
BITMAP
0c00
1200
0000
4100
4100
4100
4900
4900
4900
5500
5500
2200
2200
2200
0000
0000
0000
0000
ENDCHAR
STARTCHAR LtSmlWCircum
ENCODING 373
SWIDTH 1080 0
DWIDTH 9 0
BBX 9 18 0 -4
BITMAP
0000
0000
0000
0c00
1200
0000
4100
4100
4900
4900
4900
3600
2200
2200
0000
0000
0000
0000
ENDCHAR
STARTCHAR LtCapYCircum
ENCODING 374
SWIDTH 1080 0
DWIDTH 9 0
BBX 9 18 0 -4
BITMAP
0c00
1200
0000
4100
4100
2200
2200
1400
1400
0800
0800
0800
0800
0800
0000
0000
0000
0000
ENDCHAR
STARTCHAR LtSmlYCircum
ENCODING 375
SWIDTH 1080 0
DWIDTH 9 0
BBX 9 18 0 -4
BITMAP
0000
0000
0000
1800
2400
0000
4200
4200
4200
2400
2400
1400
1800
0800
1000
5000
2000
0000
ENDCHAR
STARTCHAR LtCapYDrss
ENCODING 376
SWIDTH 1080 0
DWIDTH 9 0
BBX 9 18 0 -4
BITMAP
1200
1200
0000
4100
4100
2200
2200
1400
1400
0800
0800
0800
0800
0800
0000
0000
0000
0000
ENDCHAR
STARTCHAR LtCapZAcute
ENCODING 377
SWIDTH 1080 0
DWIDTH 9 0
BBX 9 18 0 -4
BITMAP
0400
1800
0000
7e00
0200
0400
0400
0800
1000
1000
2000
4000
4000
7e00
0000
0000
0000
0000
ENDCHAR
STARTCHAR LtSmlZAcute
ENCODING 378
SWIDTH 1080 0
DWIDTH 9 0
BBX 9 18 0 -4
BITMAP
0000
0000
0800
0800
1000
0000
7e00
0200
0400
0800
1000
2000
4000
7e00
0000
0000
0000
0000
ENDCHAR
STARTCHAR LtCapZDot
ENCODING 379
SWIDTH 1080 0
DWIDTH 9 0
BBX 9 18 0 -4
BITMAP
1000
1000
0000
7e00
0200
0400
0400
0800
1000
1000
2000
4000
4000
7e00
0000
0000
0000
0000
ENDCHAR
STARTCHAR LtSmlZDot
ENCODING 380
SWIDTH 1080 0
DWIDTH 9 0
BBX 9 18 0 -4
BITMAP
0000
0000
1000
1000
0000
0000
7e00
0200
0400
0800
1000
2000
4000
7e00
0000
0000
0000
0000
ENDCHAR
STARTCHAR LtCapZCaron
ENCODING 381
SWIDTH 1080 0
DWIDTH 9 0
BBX 9 18 0 -4
BITMAP
2400
1800
0000
7e00
0200
0400
0400
0800
1000
1000
2000
4000
4000
7e00
0000
0000
0000
0000
ENDCHAR
STARTCHAR LtSmlZCaron
ENCODING 382
SWIDTH 1080 0
DWIDTH 9 0
BBX 9 18 0 -4
BITMAP
0000
0000
0000
2400
1800
0000
7e00
0200
0400
0800
1000
2000
4000
7e00
0000
0000
0000
0000
ENDCHAR
STARTCHAR LtSmlSLong
ENCODING 383
SWIDTH 1080 0
DWIDTH 9 0
BBX 9 18 0 -4
BITMAP
0000
0000
0000
0700
0800
1000
1000
1000
1000
1000
1000
1000
1000
1000
0000
0000
0000
0000
ENDCHAR
STARTCHAR LtSmlBStroke
ENCODING 384
SWIDTH 1080 0
DWIDTH 9 0
BBX 9 18 0 -4
BITMAP
0000
0000
0000
4000
f800
4000
5c00
6200
4200
4200
4200
4200
6200
5c00
0000
0000
0000
0000
ENDCHAR
STARTCHAR LtCapBHook
ENCODING 385
SWIDTH 1080 0
DWIDTH 9 0
BBX 9 18 0 -4
BITMAP
0000
0000
0000
7e00
9100
9100
9100
1200
1e00
1100
1100
1100
1100
1e00
0000
0000
0000
0000
ENDCHAR
STARTCHAR LtCapBTopbar
ENCODING 386
SWIDTH 1080 0
DWIDTH 9 0
BBX 9 18 0 -4
BITMAP
0000
0000
0000
7c00
4000
4000
4000
4000
7c00
4200
4200
4200
4200
7c00
0000
0000
0000
0000
ENDCHAR
STARTCHAR LtSmlBTopbar
ENCODING 387
SWIDTH 1080 0
DWIDTH 9 0
BBX 9 18 0 -4
BITMAP
0000
0000
0000
7c00
4000
4000
5c00
6200
4200
4200
4200
4200
6200
5c00
0000
0000
0000
0000
ENDCHAR
STARTCHAR LtCapTone6
ENCODING 388
SWIDTH 1080 0
DWIDTH 9 0
BBX 9 18 0 -4
BITMAP
0000
0000
0000
4000
c000
c000
4000
4000
7c00
4200
4200
4200
4200
7c00
0000
0000
0000
0000
ENDCHAR
STARTCHAR LtSmlTone6
ENCODING 389
SWIDTH 1080 0
DWIDTH 9 0
BBX 9 18 0 -4
BITMAP
0000
0000
0000
0000
0000
0000
4000
c000
c000
7c00
4200
4200
4200
7c00
0000
0000
0000
0000
ENDCHAR
STARTCHAR LtCapCTrnd
ENCODING 390
SWIDTH 1080 0
DWIDTH 9 0
BBX 9 18 0 -4
BITMAP
0000
0000
0000
3800
4400
0200
0200
0200
0200
0200
0200
0200
4400
3800
0000
0000
0000
0000
ENDCHAR
STARTCHAR LtCapCHook
ENCODING 391
SWIDTH 1080 0
DWIDTH 9 0
BBX 9 18 0 -4
BITMAP
0300
0400
0400
1c00
2200
4000
4000
4000
4000
4000
4000
4000
2200
1c00
0000
0000
0000
0000
ENDCHAR
STARTCHAR LtSmlCHook
ENCODING 392
SWIDTH 1080 0
DWIDTH 9 0
BBX 9 18 0 -4
BITMAP
0000
0000
0000
0300
0400
0400
1c00
2200
4000
4000
4000
4000
2200
1c00
0000
0000
0000
0000
ENDCHAR
STARTCHAR LtCapDStrokeAfr
ENCODING 393
SWIDTH 1080 0
DWIDTH 9 0
BBX 9 18 0 -4
BITMAP
0000
0000
0000
7800
4400
4200
4200
4200
f200
4200
4200
4200
4400
7800
0000
0000
0000
0000
ENDCHAR
STARTCHAR LtCapDHook
ENCODING 394
SWIDTH 1080 0
DWIDTH 9 0
BBX 9 18 0 -4
BITMAP
0000
0000
0000
7c00
9200
9100
9100
1100
1100
1100
1100
1100
1200
1c00
0000
0000
0000
0000
ENDCHAR
STARTCHAR LtCapDTopbar
ENCODING 395
SWIDTH 1080 0
DWIDTH 9 0
BBX 9 18 0 -4
BITMAP
0000
0000
0000
3e00
0200
0200
0200
0200
3e00
4200
4200
4200
4200
3e00
0000
0000
0000
0000
ENDCHAR
STARTCHAR LtSmlDTopbar
ENCODING 396
SWIDTH 1080 0
DWIDTH 9 0
BBX 9 18 0 -4
BITMAP
0000
0000
0000
3e00
0200
0200
3a00
4600
4200
4200
4200
4200
4600
3a00
0000
0000
0000
0000
ENDCHAR
STARTCHAR LtSmlDelTrnd
ENCODING 397
SWIDTH 1080 0
DWIDTH 9 0
BBX 9 18 0 -4
BITMAP
0000
0000
0000
0000
0000
0000
3c00
4200
4200
4200
4200
4200
2400
1800
0800
0400
3800
0000
ENDCHAR
STARTCHAR LtCapERev
ENCODING 398
SWIDTH 1080 0
DWIDTH 9 0
BBX 9 18 0 -4
BITMAP
0000
0000
0000
7e00
0200
0200
0200
0200
1e00
0200
0200
0200
0200
7e00
0000
0000
0000
0000
ENDCHAR
STARTCHAR LtCapSchwa
ENCODING 399
SWIDTH 1080 0
DWIDTH 9 0
BBX 9 18 0 -4
BITMAP
0000
0000
0000
3800
2400
0200
0200
0200
7e00
4200
4200
4200
2400
1800
0000
0000
0000
0000
ENDCHAR
STARTCHAR LtCapEps
ENCODING 400
SWIDTH 1080 0
DWIDTH 9 0
BBX 9 18 0 -4
BITMAP
0000
0000
0000
3c00
4200
4000
4000
4000
3800
4000
4000
4000
4200
3c00
0000
0000
0000
0000
ENDCHAR
STARTCHAR LtCapFLhook
ENCODING 401
SWIDTH 1080 0
DWIDTH 9 0
BBX 9 18 0 -4
BITMAP
0000
0000
0000
3f00
2000
2000
2000
2000
3c00
2000
2000
2000
a000
c000
0000
0000
0000
0000
ENDCHAR
STARTCHAR LtSmlFLhook
ENCODING 402
SWIDTH 1080 0
DWIDTH 9 0
BBX 9 18 0 -4
BITMAP
0000
0000
0000
0700
0800
0800
0800
3e00
0800
0800
0800
0800
0800
0800
0800
0800
7000
0000
ENDCHAR
STARTCHAR LtCapGHook
ENCODING 403
SWIDTH 1080 0
DWIDTH 9 0
BBX 9 18 0 -4
BITMAP
0300
0400
0400
1c00
2200
4000
4000
4000
4e00
4200
4200
4200
2200
1e00
0000
0000
0000
0000
ENDCHAR
STARTCHAR LtCapGam
ENCODING 404
SWIDTH 1080 0
DWIDTH 9 0
BBX 9 18 0 -4
BITMAP
0000
0000
0000
4100
4100
2200
2200
1400
0800
0800
1400
2200
2200
1c00
0000
0000
0000
0000
ENDCHAR
STARTCHAR LtSmlHwair
ENCODING 405
SWIDTH 1080 0
DWIDTH 9 0
BBX 9 18 0 -4
BITMAP
0000
0000
0000
4000
4000
4000
7100
4900
4900
4900
4900
4900
4900
4600
0000
0000
0000
0000
ENDCHAR
STARTCHAR LtCapIot
ENCODING 406
SWIDTH 1080 0
DWIDTH 9 0
BBX 9 18 0 -4
BITMAP
0000
0000
0000
7000
2000
2000
2000
2000
2000
2000
2000
2200
2200
1c00
0000
0000
0000
0000
ENDCHAR
STARTCHAR LtCapIStroke
ENCODING 407
SWIDTH 1080 0
DWIDTH 9 0
BBX 9 18 0 -4
BITMAP
0000
0000
0000
3e00
0800
0800
0800
0800
3e00
0800
0800
0800
0800
3e00
0000
0000
0000
0000
ENDCHAR
STARTCHAR LtCapKHook
ENCODING 408
SWIDTH 1080 0
DWIDTH 9 0
BBX 9 18 0 -4
BITMAP
0000
0000
0000
4600
4900
4900
5000
5000
6800
4800
4400
4400
4200
4200
0000
0000
0000
0000
ENDCHAR
STARTCHAR LtSmlKHook
ENCODING 409
SWIDTH 1080 0
DWIDTH 9 0
BBX 9 18 0 -4
BITMAP
0000
0000
0000
3800
4000
4000
4200
4400
4800
5000
7000
4800
4400
4200
0000
0000
0000
0000
ENDCHAR
STARTCHAR LtSmlLStrokeH
ENCODING 410
SWIDTH 1080 0
DWIDTH 9 0
BBX 9 18 0 -4
BITMAP
0000
0000
0000
1800
0800
0800
0800
0800
3e00
0800
0800
0800
0800
3e00
0000
0000
0000
0000
ENDCHAR
STARTCHAR LtSmlLamStroke
ENCODING 411
SWIDTH 1080 0
DWIDTH 9 0
BBX 9 18 0 -4
BITMAP
0000
0000
0000
2400
1800
3000
4800
0800
0c00
1400
1200
2200
2100
4100
0000
0000
0000
0000
ENDCHAR
STARTCHAR LtCapMTrnd
ENCODING 412
SWIDTH 1080 0
DWIDTH 9 0
BBX 9 18 0 -4
BITMAP
0000
0000
0000
4900
4900
4900
4900
4900
4900
4900
4900
4900
4900
3700
0000
0000
0000
0000
ENDCHAR
STARTCHAR LtCapNLhookL
ENCODING 413
SWIDTH 1080 0
DWIDTH 9 0
BBX 9 18 0 -4
BITMAP
0000
0000
0000
2100
2100
3100
3100
2900
2500
2500
2300
2300
a100
c100
0000
0000
0000
0000
ENDCHAR
STARTCHAR LtSmlNLongleg
ENCODING 414
SWIDTH 1080 0
DWIDTH 9 0
BBX 9 18 0 -4
BITMAP
0000
0000
0000
0000
0000
0000
5c00
6200
4200
4200
4200
4200
4200
4200
0200
0200
0200
0000
ENDCHAR
STARTCHAR LtCapOStrokeH
ENCODING 415
SWIDTH 1080 0
DWIDTH 9 0
BBX 9 18 0 -4
BITMAP
0000
0000
0000
3c00
4200
4200
4200
4200
7e00
4200
4200
4200
4200
3c00
0000
0000
0000
0000
ENDCHAR
STARTCHAR LtCapOHorn
ENCODING 416
SWIDTH 1080 0
DWIDTH 9 0
BBX 9 18 0 -4
BITMAP
0000
0180
0080
3d00
4200
4200
4200
4200
4200
4200
4200
4200
4200
3c00
0000
0000
0000
0000
ENDCHAR
STARTCHAR LtSmlOHorn
ENCODING 417
SWIDTH 1080 0
DWIDTH 9 0
BBX 9 18 0 -4
BITMAP
0000
0000
0000
0000
0300
0100
3e00
4200
4200
4200
4200
4200
4200
3c00
0000
0000
0000
0000
ENDCHAR
STARTCHAR LtCapOi
ENCODING 418
SWIDTH 1080 0
DWIDTH 9 0
BBX 9 18 0 -4
BITMAP
0000
0000
0000
3100
4f00
4900
4900
4900
4900
4900
4900
4900
4900
3100
0100
0100
0100
0000
ENDCHAR
STARTCHAR LtSmlOi
ENCODING 419
SWIDTH 1080 0
DWIDTH 9 0
BBX 9 18 0 -4
BITMAP
0000
0000
0000
0000
0000
0000
3100
4f00
4900
4900
4900
4900
4900
3100
0100
0100
0100
0000
ENDCHAR
STARTCHAR LtCapPHook
ENCODING 420
SWIDTH 1080 0
DWIDTH 9 0
BBX 9 18 0 -4
BITMAP
0000
0000
0000
7e00
9100
9100
9100
1100
1e00
1000
1000
1000
1000
1000
0000
0000
0000
0000
ENDCHAR
STARTCHAR LtSmlPHook
ENCODING 421
SWIDTH 1080 0
DWIDTH 9 0
BBX 9 18 0 -4
BITMAP
0000
0000
0000
0600
0800
0800
5c00
6200
4200
4200
4200
4200
6200
5c00
4000
4000
4000
0000
ENDCHAR
STARTCHAR LtCapYr
ENCODING 422
SWIDTH 1080 0
DWIDTH 9 0
BBX 9 18 0 -4
BITMAP
0000
0000
0000
4000
4000
7c00
4200
4200
4200
4200
7c00
4800
4400
4400
0200
0200
0000
0000
ENDCHAR
STARTCHAR LtCapTone2
ENCODING 423
SWIDTH 1080 0
DWIDTH 9 0
BBX 9 18 0 -4
BITMAP
0000
0000
0000
3c00
4200
0200
0200
0400
1800
2000
4000
4000
4200
3c00
0000
0000
0000
0000
ENDCHAR
STARTCHAR LtSmlTone2
ENCODING 424
SWIDTH 1080 0
DWIDTH 9 0
BBX 9 18 0 -4
BITMAP
0000
0000
0000
0000
0000
0000
3c00
4200
0200
0c00
3000
4000
4200
3c00
0000
0000
0000
0000
ENDCHAR
STARTCHAR LtCapEsh
ENCODING 425
SWIDTH 1080 0
DWIDTH 9 0
BBX 9 18 0 -4
BITMAP
0000
0000
0000
7e00
4000
2000
1000
0800
0400
0800
1000
2000
4000
7e00
0000
0000
0000
0000
ENDCHAR
STARTCHAR LtSmlEshRevLoop
ENCODING 426
SWIDTH 1080 0
DWIDTH 9 0
BBX 9 18 0 -4
BITMAP
0000
0000
0000
3000
4800
4800
3800
0800
0800
0800
0800
0800
0800
0800
0800
0800
0700
0000
ENDCHAR
STARTCHAR LtSmlTLhookL
ENCODING 427
SWIDTH 1080 0
DWIDTH 9 0
BBX 9 18 0 -4
BITMAP
0000
0000
0000
0000
1000
1000
7c00
1000
1000
1000
1000
1000
1200
0e00
0200
0200
0c00
0000
ENDCHAR
STARTCHAR LtCapTHook
ENCODING 428
SWIDTH 1080 0
DWIDTH 9 0
BBX 9 18 0 -4
BITMAP
0000
0000
0000
3f00
4800
4800
4800
0800
0800
0800
0800
0800
0800
0800
0000
0000
0000
0000
ENDCHAR
STARTCHAR LtSmlTHook
ENCODING 429
SWIDTH 1080 0
DWIDTH 9 0
BBX 9 18 0 -4
BITMAP
0000
0000
0000
0e00
1000
1000
7c00
1000
1000
1000
1000
1000
1200
0c00
0000
0000
0000
0000
ENDCHAR
STARTCHAR LtCapTLhook
ENCODING 430
SWIDTH 1080 0
DWIDTH 9 0
BBX 9 18 0 -4
BITMAP
0000
0000
0000
7f00
0800
0800
0800
0800
0800
0800
0800
0800
0900
0600
0000
0000
0000
0000
ENDCHAR
STARTCHAR LtCapUHorn
ENCODING 431
SWIDTH 1080 0
DWIDTH 9 0
BBX 9 18 0 -4
BITMAP
0000
0180
0080
4300
4200
4200
4200
4200
4200
4200
4200
4200
4200
3c00
0000
0000
0000
0000
ENDCHAR
STARTCHAR LtSmlUHorn
ENCODING 432
SWIDTH 1080 0
DWIDTH 9 0
BBX 9 18 0 -4
BITMAP
0000
0000
0000
0000
0300
0100
4200
4200
4200
4200
4200
4200
4600
3a00
0000
0000
0000
0000
ENDCHAR
STARTCHAR LtCapUps
ENCODING 433
SWIDTH 1080 0
DWIDTH 9 0
BBX 9 18 0 -4
BITMAP
0000
0000
0000
6600
2400
2400
4200
4200
4200
4200
4200
4200
2400
1800
0000
0000
0000
0000
ENDCHAR
STARTCHAR LtCapVHook
ENCODING 434
SWIDTH 1080 0
DWIDTH 9 0
BBX 9 18 0 -4
BITMAP
0000
0000
0000
4800
4400
4200
4200
4200
4200
4200
4200
4200
4400
3800
0000
0000
0000
0000
ENDCHAR
STARTCHAR LtCapYHook
ENCODING 435
SWIDTH 1080 0
DWIDTH 9 0
BBX 9 18 0 -4
BITMAP
0000
0000
0000
8600
8900
8900
5000
5000
5000
2000
2000
2000
2000
2000
0000
0000
0000
0000
ENDCHAR
STARTCHAR LtSmlYHook
ENCODING 436
SWIDTH 1080 0
DWIDTH 9 0
BBX 9 18 0 -4
BITMAP
0000
0000
0000
0000
0000
0000
8200
8500
8500
4800
4800
2800
3000
1000
2000
a000
4000
0000
ENDCHAR
STARTCHAR LtCapZStroke
ENCODING 437
SWIDTH 1080 0
DWIDTH 9 0
BBX 9 18 0 -4
BITMAP
0000
0000
0000
7e00
0200
0400
0400
0800
3c00
1000
2000
2000
4000
7e00
0000
0000
0000
0000
ENDCHAR
STARTCHAR LtSmlZStroke
ENCODING 438
SWIDTH 1080 0
DWIDTH 9 0
BBX 9 18 0 -4
BITMAP
0000
0000
0000
0000
0000
0000
7e00
0200
0400
3e00
1000
2000
4000
7e00
0000
0000
0000
0000
ENDCHAR
STARTCHAR LtCapEzh
ENCODING 439
SWIDTH 1080 0
DWIDTH 9 0
BBX 9 18 0 -4
BITMAP
0000
0000
0000
7e00
0200
0400
0400
0800
1c00
0200
0200
0200
4200
3c00
0000
0000
0000
0000
ENDCHAR
STARTCHAR LtCapEzhRev
ENCODING 440
SWIDTH 1080 0
DWIDTH 9 0
BBX 9 18 0 -4
BITMAP
0000
0000
0000
7e00
4000
2000
2000
1000
3800
4000
4000
4000
4200
3c00
0000
0000
0000
0000
ENDCHAR
STARTCHAR LtSmlEzhRev
ENCODING 441
SWIDTH 1080 0
DWIDTH 9 0
BBX 9 18 0 -4
BITMAP
0000
0000
0000
0000
0000
0000
7e00
4000
2000
2000
1000
3800
4000
4000
4000
4200
3c00
0000
ENDCHAR
STARTCHAR LtSmlEzhTail
ENCODING 442
SWIDTH 1080 0
DWIDTH 9 0
BBX 9 18 0 -4
BITMAP
0000
0000
0000
0000
0000
0000
7e00
0200
0400
0800
1c00
0200
0200
3c00
4000
4200
3c00
0000
ENDCHAR
STARTCHAR LtSmlTwoStroke
ENCODING 443
SWIDTH 1080 0
DWIDTH 9 0
BBX 9 18 0 -4
BITMAP
0000
0000
0000
3c00
4200
4200
0200
0400
3e00
0800
1000
2000
4000
7e00
0000
0000
0000
0000
ENDCHAR
STARTCHAR LtCapTone5
ENCODING 444
SWIDTH 1080 0
DWIDTH 9 0
BBX 9 18 0 -4
BITMAP
0000
0000
0000
7c00
4000
4000
4000
7800
0400
0200
0200
0200
4400
3800
0000
0000
0000
0000
ENDCHAR
STARTCHAR LtSmlTone5
ENCODING 445
SWIDTH 1080 0
DWIDTH 9 0
BBX 9 18 0 -4
BITMAP
0000
0000
0000
0000
0000
0000
7c00
4000
4000
7c00
0200
0200
4200
3c00
0000
0000
0000
0000
ENDCHAR
STARTCHAR LtSmlGlotInvStroke
ENCODING 446
SWIDTH 1080 0
DWIDTH 9 0
BBX 9 18 0 -4
BITMAP
0000
0000
0000
0800
0800
0800
3e00
0800
0800
0400
0200
2200
2200
1c00
0000
0000
0000
0000
ENDCHAR
STARTCHAR LtSmlWynn
ENCODING 447
SWIDTH 1080 0
DWIDTH 9 0
BBX 9 18 0 -4
BITMAP
0000
0000
0000
0000
0000
0000
4c00
5200
6200
4200
4400
4800
5000
6000
4000
4000
4000
0000
ENDCHAR
STARTCHAR LtSmlPipe
ENCODING 448
SWIDTH 1080 0
DWIDTH 9 0
BBX 9 18 0 -4
BITMAP
0000
0000
0000
0800
0800
0800
0800
0800
0800
0800
0800
0800
0800
0800
0000
0000
0000
0000
ENDCHAR
STARTCHAR LtSmlPipe2
ENCODING 449
SWIDTH 1080 0
DWIDTH 9 0
BBX 9 18 0 -4
BITMAP
0000
0000
0000
1400
1400
1400
1400
1400
1400
1400
1400
1400
1400
1400
0000
0000
0000
0000
ENDCHAR
STARTCHAR LtSmlPipeStroke2
ENCODING 450
SWIDTH 1080 0
DWIDTH 9 0
BBX 9 18 0 -4
BITMAP
0000
0000
0000
0800
0800
0800
0800
3e00
0800
3e00
0800
0800
0800
0800
0000
0000
0000
0000
ENDCHAR
STARTCHAR LtSmlExcl
ENCODING 451
SWIDTH 1080 0
DWIDTH 9 0
BBX 9 18 0 -4
BITMAP
0000
0000
0000
0800
0800
0800
0800
0800
0800
0800
0800
0000
0800
0800
0000
0000
0000
0000
ENDCHAR
STARTCHAR LtCapDZCaron
ENCODING 452
SWIDTH 1080 0
DWIDTH 9 0
BBX 9 18 0 -4
BITMAP
0900
0600
0000
cf00
a100
9100
9200
9200
9200
9400
9400
9400
a800
cf00
0000
0000
0000
0000
ENDCHAR
STARTCHAR LtMixDZCaron
ENCODING 453
SWIDTH 1080 0
DWIDTH 9 0
BBX 9 18 0 -4
BITMAP
0000
0000
0000
c900
a600
9000
9f00
9100
9200
9200
9400
9400
a800
cf00
0000
0000
0000
0000
ENDCHAR
STARTCHAR LtSmlDZCaron
ENCODING 454
SWIDTH 1080 0
DWIDTH 9 0
BBX 9 18 0 -4
BITMAP
0000
0000
0000
1500
1200
1000
7700
9100
9100
9200
9200
9400
9400
7700
0000
0000
0000
0000
ENDCHAR
STARTCHAR LtCapLJ
ENCODING 455
SWIDTH 1080 0
DWIDTH 9 0
BBX 9 18 0 -4
BITMAP
0000
0000
0000
8380
8100
8100
8100
8100
8100
8100
8100
8900
8500
f600
0000
0000
0000
0000
ENDCHAR
STARTCHAR LtMixLJ
ENCODING 456
SWIDTH 1080 0
DWIDTH 9 0
BBX 9 18 0 -4
BITMAP
0000
0000
0000
4100
4100
4000
4300
4100
4100
4100
4100
4100
4100
7d00
0100
0100
0600
0000
ENDCHAR
STARTCHAR LtSmlLJ
ENCODING 457
SWIDTH 1080 0
DWIDTH 9 0
BBX 9 18 0 -4
BITMAP
0000
0000
0200
6200
2000
2000
2600
2200
2200
2200
2200
2200
2200
7200
0200
0200
0c00
0000
ENDCHAR
STARTCHAR LtCapNJ
ENCODING 458
SWIDTH 1080 0
DWIDTH 9 0
BBX 9 18 0 -4
BITMAP
0000
0000
0000
9380
9100
d100
d100
d100
b100
b100
b100
9100
9500
9600
0000
0000
0000
0000
ENDCHAR
STARTCHAR LtMixNJ
ENCODING 459
SWIDTH 1080 0
DWIDTH 9 0
BBX 9 18 0 -4
BITMAP
0000
0000
0000
4500
4500
6400
6500
5500
5500
5500
4d00
4d00
4500
4500
0100
0100
0600
0000
ENDCHAR
STARTCHAR LtSmlNJ
ENCODING 460
SWIDTH 1080 0
DWIDTH 9 0
BBX 9 18 0 -4
BITMAP
0000
0000
0100
0100
0000
0000
b300
c900
8900
8900
8900
8900
8900
8900
0100
0100
0600
0000
ENDCHAR
STARTCHAR LtCapACaron
ENCODING 461
SWIDTH 1080 0
DWIDTH 9 0
BBX 9 18 0 -4
BITMAP
1200
0c00
0000
0800
0800
0800
1400
1400
2200
2200
3e00
4100
4100
4100
0000
0000
0000
0000
ENDCHAR
STARTCHAR LtSmlACaron
ENCODING 462
SWIDTH 1080 0
DWIDTH 9 0
BBX 9 18 0 -4
BITMAP
0000
0000
0000
2400
1800
0000
3c00
0200
0200
3e00
4200
4200
4600
3a00
0000
0000
0000
0000
ENDCHAR
STARTCHAR LtCapICaron
ENCODING 463
SWIDTH 1080 0
DWIDTH 9 0
BBX 9 18 0 -4
BITMAP
1200
0c00
0000
3e00
0800
0800
0800
0800
0800
0800
0800
0800
0800
3e00
0000
0000
0000
0000
ENDCHAR
STARTCHAR LtSmlICaron
ENCODING 464
SWIDTH 1080 0
DWIDTH 9 0
BBX 9 18 0 -4
BITMAP
0000
0000
0000
2400
1800
0000
1800
0800
0800
0800
0800
0800
0800
3e00
0000
0000
0000
0000
ENDCHAR
STARTCHAR LtCapOCaron
ENCODING 465
SWIDTH 1080 0
DWIDTH 9 0
BBX 9 18 0 -4
BITMAP
2400
1800
0000
3c00
4200
4200
4200
4200
4200
4200
4200
4200
4200
3c00
0000
0000
0000
0000
ENDCHAR
STARTCHAR LtSmlOCaron
ENCODING 466
SWIDTH 1080 0
DWIDTH 9 0
BBX 9 18 0 -4
BITMAP
0000
0000
0000
2400
1800
0000
3c00
4200
4200
4200
4200
4200
4200
3c00
0000
0000
0000
0000
ENDCHAR
STARTCHAR LtCapUCaron
ENCODING 467
SWIDTH 1080 0
DWIDTH 9 0
BBX 9 18 0 -4
BITMAP
2400
1800
0000
4200
4200
4200
4200
4200
4200
4200
4200
4200
4200
3c00
0000
0000
0000
0000
ENDCHAR
STARTCHAR LtSmlUCaron
ENCODING 468
SWIDTH 1080 0
DWIDTH 9 0
BBX 9 18 0 -4
BITMAP
0000
0000
0000
2400
1800
0000
4200
4200
4200
4200
4200
4200
4600
3a00
0000
0000
0000
0000
ENDCHAR
STARTCHAR LtCapUDrssMacron
ENCODING 469
SWIDTH 1080 0
DWIDTH 9 0
BBX 9 18 0 -4
BITMAP
3c00
0000
6600
0000
4200
4200
4200
4200
4200
4200
4200
4200
4200
3c00
0000
0000
0000
0000
ENDCHAR
STARTCHAR LtSmlUDrssMacron
ENCODING 470
SWIDTH 1080 0
DWIDTH 9 0
BBX 9 18 0 -4
BITMAP
0000
3c00
0000
2400
2400
0000
4200
4200
4200
4200
4200
4200
4600
3a00
0000
0000
0000
0000
ENDCHAR
STARTCHAR LtCapUDrssAcute
ENCODING 471
SWIDTH 1080 0
DWIDTH 9 0
BBX 9 18 0 -4
BITMAP
0800
1000
6600
0000
4200
4200
4200
4200
4200
4200
4200
4200
4200
3c00
0000
0000
0000
0000
ENDCHAR
STARTCHAR LtSmlUDrssAcute
ENCODING 472
SWIDTH 1080 0
DWIDTH 9 0
BBX 9 18 0 -4
BITMAP
0400
1800
0000
2400
2400
0000
4200
4200
4200
4200
4200
4200
4600
3a00
0000
0000
0000
0000
ENDCHAR
STARTCHAR LtCapUDrssCaron
ENCODING 473
SWIDTH 1080 0
DWIDTH 9 0
BBX 9 18 0 -4
BITMAP
2400
1800
4200
4200
0000
4200
4200
4200
4200
4200
4200
4200
4200
3c00
0000
0000
0000
0000
ENDCHAR
STARTCHAR LtSmlUDrssCaron
ENCODING 474
SWIDTH 1080 0
DWIDTH 9 0
BBX 9 18 0 -4
BITMAP
2400
1800
0000
2400
2400
0000
4200
4200
4200
4200
4200
4200
4600
3a00
0000
0000
0000
0000
ENDCHAR
STARTCHAR LtCapUDrssGrave
ENCODING 475
SWIDTH 1080 0
DWIDTH 9 0
BBX 9 18 0 -4
BITMAP
1000
0800
6600
0000
4200
4200
4200
4200
4200
4200
4200
4200
4200
3c00
0000
0000
0000
0000
ENDCHAR
STARTCHAR LtSmlUDrssGrave
ENCODING 476
SWIDTH 1080 0
DWIDTH 9 0
BBX 9 18 0 -4
BITMAP
2000
1800
0000
2400
2400
0000
4200
4200
4200
4200
4200
4200
4600
3a00
0000
0000
0000
0000
ENDCHAR
STARTCHAR LtSmlSchwaNig
ENCODING 477
SWIDTH 1080 0
DWIDTH 9 0
BBX 9 18 0 -4
BITMAP
0000
0000
0000
0000
0000
0000
3800
4400
0200
0200
7e00
4200
4400
3800
0000
0000
0000
0000
ENDCHAR
STARTCHAR LtCapADrssMacron
ENCODING 478
SWIDTH 1080 0
DWIDTH 9 0
BBX 9 18 0 -4
BITMAP
3e00
0000
3600
0000
0800
0800
1400
1400
2200
2200
3e00
4100
4100
4100
0000
0000
0000
0000
ENDCHAR
STARTCHAR LtSmlADrssMacron
ENCODING 479
SWIDTH 1080 0
DWIDTH 9 0
BBX 9 18 0 -4
BITMAP
0000
3c00
0000
2400
2400
0000
3c00
0200
0200
3e00
4200
4200
4600
3a00
0000
0000
0000
0000
ENDCHAR
STARTCHAR LtCapADotMacron
ENCODING 480
SWIDTH 1080 0
DWIDTH 9 0
BBX 9 18 0 -4
BITMAP
1e00
0000
0c00
0000
0800
0800
1400
1400
2200
2200
3e00
4100
4100
4100
0000
0000
0000
0000
ENDCHAR
STARTCHAR LtSmlADotMacron
ENCODING 481
SWIDTH 1080 0
DWIDTH 9 0
BBX 9 18 0 -4
BITMAP
0000
3e00
0000
0800
0800
0000
3c00
0200
0200
3e00
4200
4200
4600
3a00
0000
0000
0000
0000
ENDCHAR
STARTCHAR LtCapAEMacron
ENCODING 482
SWIDTH 1080 0
DWIDTH 9 0
BBX 9 18 0 -4
BITMAP
3e00
0000
0000
1f00
1800
2800
2800
2800
4e00
4800
7800
8800
8800
8f00
0000
0000
0000
0000
ENDCHAR
STARTCHAR LtSmlAEMacron
ENCODING 483
SWIDTH 1080 0
DWIDTH 9 0
BBX 9 18 0 -4
BITMAP
0000
0000
0000
3e00
0000
0000
3600
4900
0900
3f00
4800
4800
4900
7600
0000
0000
0000
0000
ENDCHAR
STARTCHAR LtCapGStroke
ENCODING 484
SWIDTH 1080 0
DWIDTH 9 0
BBX 9 18 0 -4
BITMAP
0000
0000
0000
1c00
2200
4000
4000
4000
4e00
4200
4f00
4200
2200
1e00
0000
0000
0000
0000
ENDCHAR
STARTCHAR LtSmlGStroke
ENCODING 485
SWIDTH 1080 0
DWIDTH 9 0
BBX 9 18 0 -4
BITMAP
0000
0000
0000
0000
0000
0000
3a00
4400
4400
4400
4400
3800
4000
3c00
4f00
4200
3c00
0000
ENDCHAR
STARTCHAR LtCapGCaron
ENCODING 486
SWIDTH 1080 0
DWIDTH 9 0
BBX 9 18 0 -4
BITMAP
1200
0c00
0000
1c00
2200
4000
4000
4000
4e00
4200
4200
4200
2200
1e00
0000
0000
0000
0000
ENDCHAR
STARTCHAR LtSmlGCaron
ENCODING 487
SWIDTH 1080 0
DWIDTH 9 0
BBX 9 18 0 -4
BITMAP
0000
0000
0000
2400
1800
0000
3a00
4400
4400
4400
4400
3800
4000
3c00
4200
4200
3c00
0000
ENDCHAR
STARTCHAR LtCapKCaron
ENCODING 488
SWIDTH 1080 0
DWIDTH 9 0
BBX 9 18 0 -4
BITMAP
2400
1800
0000
4200
4200
4400
4400
4800
5000
6800
4400
4400
4200
4200
0000
0000
0000
0000
ENDCHAR
STARTCHAR LtSmlKCaron
ENCODING 489
SWIDTH 1080 0
DWIDTH 9 0
BBX 9 18 0 -4
BITMAP
4800
3000
0000
4000
4000
4000
4200
4400
4800
5000
7000
4800
4400
4200
0000
0000
0000
0000
ENDCHAR
STARTCHAR LtCapOOgonek
ENCODING 490
SWIDTH 1080 0
DWIDTH 9 0
BBX 9 18 0 -4
BITMAP
0000
0000
0000
3c00
4200
4200
4200
4200
4200
4200
4200
4200
4200
3c00
0800
1000
0c00
0000
ENDCHAR
STARTCHAR LtSmlOOgonek
ENCODING 491
SWIDTH 1080 0
DWIDTH 9 0
BBX 9 18 0 -4
BITMAP
0000
0000
0000
0000
0000
0000
3c00
4200
4200
4200
4200
4200
4200
3c00
0800
1000
0c00
0000
ENDCHAR
STARTCHAR LtCapOMacronOgonek
ENCODING 492
SWIDTH 1080 0
DWIDTH 9 0
BBX 9 18 0 -4
BITMAP
3c00
0000
0000
3c00
4200
4200
4200
4200
4200
4200
4200
4200
4200
3c00
0800
1000
0c00
0000
ENDCHAR
STARTCHAR LtSmlOMacronOgonek
ENCODING 493
SWIDTH 1080 0
DWIDTH 9 0
BBX 9 18 0 -4
BITMAP
0000
0000
0000
3c00
0000
0000
3c00
4200
4200
4200
4200
4200
4200
3c00
0800
1000
0c00
0000
ENDCHAR
STARTCHAR LtCapEzhCaron
ENCODING 494
SWIDTH 1080 0
DWIDTH 9 0
BBX 9 18 0 -4
BITMAP
2400
1800
0000
7e00
0200
0400
0400
0800
1c00
0200
0200
0200
4200
3c00
0000
0000
0000
0000
ENDCHAR
STARTCHAR LtSmlEzhCaron
ENCODING 495
SWIDTH 1080 0
DWIDTH 9 0
BBX 9 18 0 -4
BITMAP
0000
0000
0000
2400
1800
0000
7e00
0200
0400
0400
0800
1c00
0200
0200
0200
4200
3c00
0000
ENDCHAR
STARTCHAR LtSmlJCaron
ENCODING 496
SWIDTH 1080 0
DWIDTH 9 0
BBX 9 18 0 -4
BITMAP
0000
0000
0000
1200
0c00
0000
1c00
0400
0400
0400
0400
0400
0400
0400
4400
4400
3800
0000
ENDCHAR
STARTCHAR LtCapDZ
ENCODING 497
SWIDTH 1080 0
DWIDTH 9 0
BBX 9 18 0 -4
BITMAP
0000
0000
0000
cf00
a100
9100
9200
9200
9200
9400
9400
9400
a800
cf00
0000
0000
0000
0000
ENDCHAR
STARTCHAR LtMixDZ
ENCODING 498
SWIDTH 1080 0
DWIDTH 9 0
BBX 9 18 0 -4
BITMAP
0000
0000
0000
c000
a000
9000
9f00
9100
9200
9200
9400
9400
a800
cf00
0000
0000
0000
0000
ENDCHAR
STARTCHAR LtSmlDZ
ENCODING 499
SWIDTH 1080 0
DWIDTH 9 0
BBX 9 18 0 -4
BITMAP
0000
0000
0000
1000
1000
1000
7700
9100
9100
9200
9200
9400
9400
7700
0000
0000
0000
0000
ENDCHAR
STARTCHAR LtCapGAcute
ENCODING 500
SWIDTH 1080 0
DWIDTH 9 0
BBX 9 18 0 -4
BITMAP
0400
1800
0000
1c00
2200
4000
4000
4000
4e00
4200
4200
4200
2200
1e00
0000
0000
0000
0000
ENDCHAR
STARTCHAR LtSmlGAcute
ENCODING 501
SWIDTH 1080 0
DWIDTH 9 0
BBX 9 18 0 -4
BITMAP
0000
0000
0800
0800
1000
0000
3a00
4400
4400
4400
4400
3800
4000
3c00
4200
4200
3c00
0000
ENDCHAR
STARTCHAR LtCapHwair
ENCODING 502
SWIDTH 1080 0
DWIDTH 9 0
BBX 9 18 0 -4
BITMAP
0000
0000
0000
4800
4800
4800
4900
4900
7900
4900
4900
4900
4900
4600
0000
0000
0000
0000
ENDCHAR
STARTCHAR LtCapWynn
ENCODING 503
SWIDTH 1080 0
DWIDTH 9 0
BBX 9 18 0 -4
BITMAP
0000
0000
0000
4c00
5200
6200
4200
4400
4800
5000
6000
4000
4000
4000
0000
0000
0000
0000
ENDCHAR
STARTCHAR LtCapNGrave
ENCODING 504
SWIDTH 1080 0
DWIDTH 9 0
BBX 9 18 0 -4
BITMAP
2000
1800
0000
4200
4200
6200
6200
5200
4a00
4a00
4600
4600
4200
4200
0000
0000
0000
0000
ENDCHAR
STARTCHAR LtSmlNGrave
ENCODING 505
SWIDTH 1080 0
DWIDTH 9 0
BBX 9 18 0 -4
BITMAP
0000
0000
1000
1000
0800
0000
5c00
6200
4200
4200
4200
4200
4200
4200
0000
0000
0000
0000
ENDCHAR
STARTCHAR LtCapARingAcute
ENCODING 506
SWIDTH 1080 0
DWIDTH 9 0
BBX 9 18 0 -4
BITMAP
0600
0800
1c00
2200
1c00
0800
1400
1400
2200
2200
3e00
4100
4100
4100
0000
0000
0000
0000
ENDCHAR
STARTCHAR LtSmlARingAcute
ENCODING 507
SWIDTH 1080 0
DWIDTH 9 0
BBX 9 18 0 -4
BITMAP
0400
1800
0000
1800
2400
1800
3c00
0200
0200
3e00
4200
4200
4600
3a00
0000
0000
0000
0000
ENDCHAR
STARTCHAR LtCapAEAcute
ENCODING 508
SWIDTH 1080 0
DWIDTH 9 0
BBX 9 18 0 -4
BITMAP
0200
0c00
0000
1f00
1800
2800
2800
2800
4e00
4800
7800
8800
8800
8f00
0000
0000
0000
0000
ENDCHAR
STARTCHAR LtSmlAEAcute
ENCODING 509
SWIDTH 1080 0
DWIDTH 9 0
BBX 9 18 0 -4
BITMAP
0000
0000
0400
0400
0800
0000
3600
4900
0900
3f00
4800
4800
4900
7600
0000
0000
0000
0000
ENDCHAR
STARTCHAR LtCapOStrokeAcute
ENCODING 510
SWIDTH 1080 0
DWIDTH 9 0
BBX 9 18 0 -4
BITMAP
0400
1800
0200
3c00
4600
4600
4a00
4a00
4a00
5200
5200
6200
6200
3c00
4000
0000
0000
0000
ENDCHAR
STARTCHAR LtSmlOStrokeAcute
ENCODING 511
SWIDTH 1080 0
DWIDTH 9 0
BBX 9 18 0 -4
BITMAP
0000
0000
0800
0800
1000
0200
3c00
4600
4a00
4a00
5200
5200
6200
3c00
4000
0000
0000
0000
ENDCHAR
STARTCHAR LtCapAGrave2
ENCODING 512
SWIDTH 1080 0
DWIDTH 9 0
BBX 9 18 0 -4
BITMAP
2400
2400
1200
0000
0800
0800
1400
1400
2200
2200
3e00
4100
4100
4100
0000
0000
0000
0000
ENDCHAR
STARTCHAR LtSmlAGrave2
ENCODING 513
SWIDTH 1080 0
DWIDTH 9 0
BBX 9 18 0 -4
BITMAP
0000
0000
4800
4800
2400
0000
3c00
0200
0200
3e00
4200
4200
4600
3a00
0000
0000
0000
0000
ENDCHAR
STARTCHAR LtCapAInvbreve
ENCODING 514
SWIDTH 1080 0
DWIDTH 9 0
BBX 9 18 0 -4
BITMAP
1c00
2200
0000
0800
0800
0800
1400
1400
2200
2200
3e00
4100
4100
4100
0000
0000
0000
0000
ENDCHAR
STARTCHAR LtSmlAInvbreve
ENCODING 515
SWIDTH 1080 0
DWIDTH 9 0
BBX 9 18 0 -4
BITMAP
0000
0000
0000
1c00
2200
0000
3c00
0200
0200
3e00
4200
4200
4600
3a00
0000
0000
0000
0000
ENDCHAR
STARTCHAR LtCapEGrave2
ENCODING 516
SWIDTH 1080 0
DWIDTH 9 0
BBX 9 18 0 -4
BITMAP
4800
4800
2400
0000
7e00
4000
4000
4000
7800
4000
4000
4000
4000
7e00
0000
0000
0000
0000
ENDCHAR
STARTCHAR LtSmlEGrave2
ENCODING 517
SWIDTH 1080 0
DWIDTH 9 0
BBX 9 18 0 -4
BITMAP
0000
0000
4800
4800
2400
0000
1c00
2200
4200
7e00
4000
4000
2200
1c00
0000
0000
0000
0000
ENDCHAR
STARTCHAR LtCapEInvbreve
ENCODING 518
SWIDTH 1080 0
DWIDTH 9 0
BBX 9 18 0 -4
BITMAP
3800
4400
0000
7e00
4000
4000
4000
4000
7800
4000
4000
4000
4000
7e00
0000
0000
0000
0000
ENDCHAR
STARTCHAR LtSmlEInvbreve
ENCODING 519
SWIDTH 1080 0
DWIDTH 9 0
BBX 9 18 0 -4
BITMAP
0000
0000
0000
1c00
2200
0000
1c00
2200
4200
7e00
4000
4000
2200
1c00
0000
0000
0000
0000
ENDCHAR
STARTCHAR LtCapIGrave2
ENCODING 520
SWIDTH 1080 0
DWIDTH 9 0
BBX 9 18 0 -4
BITMAP
2400
2400
1200
0000
3e00
0800
0800
0800
0800
0800
0800
0800
0800
3e00
0000
0000
0000
0000
ENDCHAR
STARTCHAR LtSmlIGrave2
ENCODING 521
SWIDTH 1080 0
DWIDTH 9 0
BBX 9 18 0 -4
BITMAP
0000
0000
4800
4800
2400
0000
1800
0800
0800
0800
0800
0800
0800
3e00
0000
0000
0000
0000
ENDCHAR
STARTCHAR LtCapIInvbreve
ENCODING 522
SWIDTH 1080 0
DWIDTH 9 0
BBX 9 18 0 -4
BITMAP
1c00
2200
0000
3e00
0800
0800
0800
0800
0800
0800
0800
0800
0800
3e00
0000
0000
0000
0000
ENDCHAR
STARTCHAR LtSmlIInvbreve
ENCODING 523
SWIDTH 1080 0
DWIDTH 9 0
BBX 9 18 0 -4
BITMAP
0000
0000
0000
1c00
2200
0000
1800
0800
0800
0800
0800
0800
0800
3e00
0000
0000
0000
0000
ENDCHAR
STARTCHAR LtCapOGrave2
ENCODING 524
SWIDTH 1080 0
DWIDTH 9 0
BBX 9 18 0 -4
BITMAP
4800
4800
2400
0000
3c00
4200
4200
4200
4200
4200
4200
4200
4200
3c00
0000
0000
0000
0000
ENDCHAR
STARTCHAR LtSmlOGrave2
ENCODING 525
SWIDTH 1080 0
DWIDTH 9 0
BBX 9 18 0 -4
BITMAP
0000
0000
4800
4800
2400
0000
3c00
4200
4200
4200
4200
4200
4200
3c00
0000
0000
0000
0000
ENDCHAR
STARTCHAR LtCapOInvbreve
ENCODING 526
SWIDTH 1080 0
DWIDTH 9 0
BBX 9 18 0 -4
BITMAP
1c00
2200
0000
3c00
4200
4200
4200
4200
4200
4200
4200
4200
4200
3c00
0000
0000
0000
0000
ENDCHAR
STARTCHAR LtSmlOInvbreve
ENCODING 527
SWIDTH 1080 0
DWIDTH 9 0
BBX 9 18 0 -4
BITMAP
0000
0000
0000
1c00
2200
0000
3c00
4200
4200
4200
4200
4200
4200
3c00
0000
0000
0000
0000
ENDCHAR
STARTCHAR LtCapRGrave2
ENCODING 528
SWIDTH 1080 0
DWIDTH 9 0
BBX 9 18 0 -4
BITMAP
4800
4800
2400
0000
7c00
4200
4200
4200
4200
7c00
4800
4400
4200
4200
0000
0000
0000
0000
ENDCHAR
STARTCHAR LtSmlRGrave2
ENCODING 529
SWIDTH 1080 0
DWIDTH 9 0
BBX 9 18 0 -4
BITMAP
0000
0000
4800
4800
2400
0000
6e00
3200
2000
2000
2000
2000
2000
2000
0000
0000
0000
0000
ENDCHAR
STARTCHAR LtCapRInvbreve
ENCODING 530
SWIDTH 1080 0
DWIDTH 9 0
BBX 9 18 0 -4
BITMAP
3800
4400
0000
7c00
4200
4200
4200
4200
7c00
4800
4400
4400
4200
4200
0000
0000
0000
0000
ENDCHAR
STARTCHAR LtSmlRInvbreve
ENCODING 531
SWIDTH 1080 0
DWIDTH 9 0
BBX 9 18 0 -4
BITMAP
0000
0000
0000
1c00
2200
0000
6e00
3200
2000
2000
2000
2000
2000
2000
0000
0000
0000
0000
ENDCHAR
STARTCHAR LtCapUGrave2
ENCODING 532
SWIDTH 1080 0
DWIDTH 9 0
BBX 9 18 0 -4
BITMAP
4800
4800
2400
0000
4200
4200
4200
4200
4200
4200
4200
4200
4200
3c00
0000
0000
0000
0000
ENDCHAR
STARTCHAR LtSmlUGrave2
ENCODING 533
SWIDTH 1080 0
DWIDTH 9 0
BBX 9 18 0 -4
BITMAP
0000
0000
4800
4800
2400
0000
4200
4200
4200
4200
4200
4200
4600
3a00
0000
0000
0000
0000
ENDCHAR
STARTCHAR LtCapUInvbreve
ENCODING 534
SWIDTH 1080 0
DWIDTH 9 0
BBX 9 18 0 -4
BITMAP
1c00
2200
0000
4200
4200
4200
4200
4200
4200
4200
4200
4200
4200
3c00
0000
0000
0000
0000
ENDCHAR
STARTCHAR LtSmlUInvbreve
ENCODING 535
SWIDTH 1080 0
DWIDTH 9 0
BBX 9 18 0 -4
BITMAP
0000
0000
0000
1c00
2200
0000
4200
4200
4200
4200
4200
4200
4600
3a00
0000
0000
0000
0000
ENDCHAR
STARTCHAR LtCapSComma
ENCODING 536
SWIDTH 1080 0
DWIDTH 9 0
BBX 9 18 0 -4
BITMAP
0000
0000
0000
3c00
4200
4000
4000
2000
1800
0400
0200
0200
4200
3c00
1000
0800
1000
0000
ENDCHAR
STARTCHAR LtSmlSComma
ENCODING 537
SWIDTH 1080 0
DWIDTH 9 0
BBX 9 18 0 -4
BITMAP
0000
0000
0000
0000
0000
0000
3c00
4200
4000
3000
0c00
0200
4200
3c00
1000
0800
1000
0000
ENDCHAR
STARTCHAR LtCapTComma
ENCODING 538
SWIDTH 1080 0
DWIDTH 9 0
BBX 9 18 0 -4
BITMAP
0000
0000
0000
7f00
0800
0800
0800
0800
0800
0800
0800
0800
0800
0800
0c00
0400
0800
0000
ENDCHAR
STARTCHAR LtSmlTComma
ENCODING 539
SWIDTH 1080 0
DWIDTH 9 0
BBX 9 18 0 -4
BITMAP
0000
0000
0000
0000
1000
1000
7c00
1000
1000
1000
1000
1000
1200
0c00
0800
0400
0800
0000
ENDCHAR
STARTCHAR LtCapYogh
ENCODING 540
SWIDTH 1080 0
DWIDTH 9 0
BBX 9 18 0 -4
BITMAP
0000
0000
0000
7c00
0200
0200
0400
1800
2400
0200
0200
0400
1800
6000
0000
0000
0000
0000
ENDCHAR
STARTCHAR LtSmlYogh
ENCODING 541
SWIDTH 1080 0
DWIDTH 9 0
BBX 9 18 0 -4
BITMAP
0000
0000
0000
0000
0000
0000
7c00
0200
0200
0400
1800
2400
0200
0200
0400
1800
6000
0000
ENDCHAR
STARTCHAR LtCapHCaron
ENCODING 542
SWIDTH 1080 0
DWIDTH 9 0
BBX 9 18 0 -4
BITMAP
2400
1800
0000
4200
4200
4200
4200
4200
7e00
4200
4200
4200
4200
4200
0000
0000
0000
0000
ENDCHAR
STARTCHAR LtSmlHCaron
ENCODING 543
SWIDTH 1080 0
DWIDTH 9 0
BBX 9 18 0 -4
BITMAP
2400
1800
0000
4000
4000
4000
5c00
6200
4200
4200
4200
4200
4200
4200
0000
0000
0000
0000
ENDCHAR
STARTCHAR LtCapNLongleg
ENCODING 544
SWIDTH 1080 0
DWIDTH 9 0
BBX 9 18 0 -4
BITMAP
0000
0000
0000
5c00
6200
4200
4200
4200
4200
4200
4200
4200
4200
4200
0200
0200
0200
0000
ENDCHAR
STARTCHAR LtSmlDCurl
ENCODING 545
SWIDTH 1080 0
DWIDTH 9 0
BBX 9 18 0 -4
BITMAP
0000
0000
0000
0800
0800
0800
6800
9800
8800
8800
8800
8a00
9d00
6600
0800
0000
0000
0000
ENDCHAR
STARTCHAR LtCapOu
ENCODING 546
SWIDTH 1080 0
DWIDTH 9 0
BBX 9 18 0 -4
BITMAP
0000
0000
0000
2400
4200
4200
4200
3c00
4200
4200
4200
4200
4200
3c00
0000
0000
0000
0000
ENDCHAR
STARTCHAR LtSmlOu
ENCODING 547
SWIDTH 1080 0
DWIDTH 9 0
BBX 9 18 0 -4
BITMAP
0000
0000
0000
2400
4200
4200
4200
2400
1800
2400
4200
4200
4200
3c00
0000
0000
0000
0000
ENDCHAR
STARTCHAR LtCapZLhookL
ENCODING 548
SWIDTH 1080 0
DWIDTH 9 0
BBX 9 18 0 -4
BITMAP
0000
0000
0000
7e00
0200
0400
0400
0800
1000
1000
2000
4000
4000
7c00
0200
0200
0400
0000
ENDCHAR
STARTCHAR LtSmlZLhookL
ENCODING 549
SWIDTH 1080 0
DWIDTH 9 0
BBX 9 18 0 -4
BITMAP
0000
0000
0000
0000
0000
0000
7e00
0200
0400
0800
1000
2000
4000
7c00
0200
0200
0400
0000
ENDCHAR
STARTCHAR LtCapADot
ENCODING 550
SWIDTH 1080 0
DWIDTH 9 0
BBX 9 18 0 -4
BITMAP
0800
0800
0000
0800
0800
0800
1400
1400
2200
2200
3e00
4100
4100
4100
0000
0000
0000
0000
ENDCHAR
STARTCHAR LtSmlADot
ENCODING 551
SWIDTH 1080 0
DWIDTH 9 0
BBX 9 18 0 -4
BITMAP
0000
0000
0800
0800
0000
0000
3c00
0200
0200
3e00
4200
4200
4600
3a00
0000
0000
0000
0000
ENDCHAR
STARTCHAR LtCapECedilla
ENCODING 552
SWIDTH 1080 0
DWIDTH 9 0
BBX 9 18 0 -4
BITMAP
0000
0000
0000
7e00
4000
4000
4000
4000
7800
4000
4000
4000
4000
7e00
1000
0800
3000
0000
ENDCHAR
STARTCHAR LtSmlECedilla
ENCODING 553
SWIDTH 1080 0
DWIDTH 9 0
BBX 9 18 0 -4
BITMAP
0000
0000
0000
0000
0000
0000
1c00
2200
4200
7e00
4000
4000
2200
1c00
0800
0400
1800
0000
ENDCHAR
STARTCHAR LtCapODrssMacron
ENCODING 554
SWIDTH 1080 0
DWIDTH 9 0
BBX 9 18 0 -4
BITMAP
3c00
0000
6600
0000
3c00
4200
4200
4200
4200
4200
4200
4200
4200
3c00
0000
0000
0000
0000
ENDCHAR
STARTCHAR LtSmlODrssMacron
ENCODING 555
SWIDTH 1080 0
DWIDTH 9 0
BBX 9 18 0 -4
BITMAP
0000
3c00
0000
2400
2400
0000
3c00
4200
4200
4200
4200
4200
4200
3c00
0000
0000
0000
0000
ENDCHAR
STARTCHAR LtCapOTildeMacron
ENCODING 556
SWIDTH 1080 0
DWIDTH 9 0
BBX 9 18 0 -4
BITMAP
3c00
0000
3400
4800
3c00
4200
4200
4200
4200
4200
4200
4200
4200
3c00
0000
0000
0000
0000
ENDCHAR
STARTCHAR LtSmlOTildeMacron
ENCODING 557
SWIDTH 1080 0
DWIDTH 9 0
BBX 9 18 0 -4
BITMAP
0000
3c00
0000
1200
2c00
0000
3c00
4200
4200
4200
4200
4200
4200
3c00
0000
0000
0000
0000
ENDCHAR
STARTCHAR LtCapODot
ENCODING 558
SWIDTH 1080 0
DWIDTH 9 0
BBX 9 18 0 -4
BITMAP
0800
0800
0000
3c00
4200
4200
4200
4200
4200
4200
4200
4200
4200
3c00
0000
0000
0000
0000
ENDCHAR
STARTCHAR LtSmlODot
ENCODING 559
SWIDTH 1080 0
DWIDTH 9 0
BBX 9 18 0 -4
BITMAP
0000
0000
0800
0800
0000
0000
3c00
4200
4200
4200
4200
4200
4200
3c00
0000
0000
0000
0000
ENDCHAR
STARTCHAR LtCapODotMacron
ENCODING 560
SWIDTH 1080 0
DWIDTH 9 0
BBX 9 18 0 -4
BITMAP
3c00
0000
1800
0000
3c00
4200
4200
4200
4200
4200
4200
4200
4200
3c00
0000
0000
0000
0000
ENDCHAR
STARTCHAR LtSmlODotMacron
ENCODING 561
SWIDTH 1080 0
DWIDTH 9 0
BBX 9 18 0 -4
BITMAP
0000
3e00
0000
0800
0800
0000
3c00
4200
4200
4200
4200
4200
4200
3c00
0000
0000
0000
0000
ENDCHAR
STARTCHAR LtCapYMacron
ENCODING 562
SWIDTH 1080 0
DWIDTH 9 0
BBX 9 18 0 -4
BITMAP
3e00
0000
0000
4100
4100
2200
2200
1400
1400
0800
0800
0800
0800
0800
0000
0000
0000
0000
ENDCHAR
STARTCHAR LtSmlYMacron
ENCODING 563
SWIDTH 1080 0
DWIDTH 9 0
BBX 9 18 0 -4
BITMAP
0000
0000
0000
3c00
0000
0000
4200
4200
4200
2400
2400
1400
1800
0800
1000
5000
2000
0000
ENDCHAR
STARTCHAR LtSmlLCurl
ENCODING 564
SWIDTH 1080 0
DWIDTH 9 0
BBX 9 18 0 -4
BITMAP
0000
0000
0000
3000
1000
1000
1000
1000
1000
1000
1000
1200
1500
7e00
0800
0000
0000
0000
ENDCHAR
STARTCHAR LtSmlNCurl
ENCODING 565
SWIDTH 1080 0
DWIDTH 9 0
BBX 9 18 0 -4
BITMAP
0000
0000
0000
0000
0000
0000
b000
c800
8800
8800
8800
8a00
8d00
8600
0800
0000
0000
0000
ENDCHAR
STARTCHAR LtSmlTCurl
ENCODING 566
SWIDTH 1080 0
DWIDTH 9 0
BBX 9 18 0 -4
BITMAP
0000
0000
0000
0000
1000
1000
7c00
1000
1000
1000
1000
1200
1500
0e00
0800
0000
0000
0000
ENDCHAR
STARTCHAR LtSmlJDotless
ENCODING 567
SWIDTH 1080 0
DWIDTH 9 0
BBX 9 18 0 -4
BITMAP
0000
0000
0000
0000
0000
0000
1c00
0400
0400
0400
0400
0400
0400
0400
4400
4400
3800
0000
ENDCHAR
STARTCHAR LtSmlDB
ENCODING 568
SWIDTH 1080 0
DWIDTH 9 0
BBX 9 18 0 -4
BITMAP
0000
0000
0000
0800
0800
0800
3e00
4900
4900
4900
4900
4900
4900
3e00
0000
0000
0000
0000
ENDCHAR
STARTCHAR LtSmlQP
ENCODING 569
SWIDTH 1080 0
DWIDTH 9 0
BBX 9 18 0 -4
BITMAP
0000
0000
0000
0000
0000
0000
3e00
4900
4900
4900
4900
4900
4900
3e00
0800
0800
0800
0000
ENDCHAR
STARTCHAR LtCapAStroke
ENCODING 570
SWIDTH 1080 0
DWIDTH 9 0
BBX 9 18 0 -4
BITMAP
0000
0000
0100
0900
0a00
0a00
1400
1400
2a00
2a00
3e00
5100
6100
6100
4000
0000
0000
0000
ENDCHAR
STARTCHAR LtCapCStroke
ENCODING 571
SWIDTH 1080 0
DWIDTH 9 0
BBX 9 18 0 -4
BITMAP
0000
0000
0200
1e00
2200
4400
4400
4800
4800
5000
5000
6000
2200
5c00
4000
0000
0000
0000
ENDCHAR
STARTCHAR LtSmlCStroke
ENCODING 572
SWIDTH 1080 0
DWIDTH 9 0
BBX 9 18 0 -4
BITMAP
0000
0000
0000
0000
0000
0200
1c00
2600
4800
4800
5000
5000
2200
3c00
4000
0000
0000
0000
ENDCHAR
STARTCHAR LtCapLStrokeH
ENCODING 573
SWIDTH 1080 0
DWIDTH 9 0
BBX 9 18 0 -4
BITMAP
0000
0000
0000
2000
2000
2000
2000
2000
7800
2000
2000
2000
2000
3f00
0000
0000
0000
0000
ENDCHAR
STARTCHAR LtCapTStrokeD
ENCODING 574
SWIDTH 1080 0
DWIDTH 9 0
BBX 9 18 0 -4
BITMAP
0000
0000
0100
7f00
0a00
0a00
0c00
0c00
0800
1800
1800
2800
2800
4800
4000
0000
0000
0000
ENDCHAR
STARTCHAR LtSmlSSwash
ENCODING 575
SWIDTH 1080 0
DWIDTH 9 0
BBX 9 18 0 -4
BITMAP
0000
0000
0000
0000
0000
0000
3c00
4200
4000
3000
0c00
0200
4200
3c00
1000
0800
0700
0000
ENDCHAR
STARTCHAR LtSmlZSwash
ENCODING 576
SWIDTH 1080 0
DWIDTH 9 0
BBX 9 18 0 -4
BITMAP
0000
0000
0000
0000
0000
0000
7e00
0200
0400
0800
1000
2000
4000
6000
1000
0800
0700
0000
ENDCHAR
STARTCHAR LtCapGlot1
ENCODING 577
SWIDTH 1080 0
DWIDTH 9 0
BBX 9 18 0 -4
BITMAP
0000
0000
0000
3c00
4200
4100
0100
0100
0200
0c00
0800
0800
0800
0800
0000
0000
0000
0000
ENDCHAR
STARTCHAR LtSmlGlot1
ENCODING 578
SWIDTH 1080 0
DWIDTH 9 0
BBX 9 18 0 -4
BITMAP
0000
0000
0000
0000
0000
0000
3c00
4200
4100
0100
0200
0c00
0800
0800
0000
0000
0000
0000
ENDCHAR
STARTCHAR LtCapBStroke
ENCODING 579
SWIDTH 1080 0
DWIDTH 9 0
BBX 9 18 0 -4
BITMAP
0000
0000
0000
7c00
4200
4200
4200
4400
7c00
4200
f200
4200
4200
7c00
0000
0000
0000
0000
ENDCHAR
STARTCHAR LtCapUStroke
ENCODING 580
SWIDTH 1080 0
DWIDTH 9 0
BBX 9 18 0 -4
BITMAP
0000
0000
0000
4200
4200
4200
4200
4200
ff00
4200
4200
4200
4200
3c00
0000
0000
0000
0000
ENDCHAR
STARTCHAR LtCapVTrnd
ENCODING 581
SWIDTH 1080 0
DWIDTH 9 0
BBX 9 18 0 -4
BITMAP
0000
0000
0000
0800
0800
0800
1400
1400
2200
2200
2200
4100
4100
4100
0000
0000
0000
0000
ENDCHAR
STARTCHAR LtCapEStroke
ENCODING 582
SWIDTH 1080 0
DWIDTH 9 0
BBX 9 18 0 -4
BITMAP
0000
0000
0200
7e00
4400
4400
4800
4800
7800
5000
5000
6000
6000
7e00
4000
0000
0000
0000
ENDCHAR
STARTCHAR LtSmlEStroke
ENCODING 583
SWIDTH 1080 0
DWIDTH 9 0
BBX 9 18 0 -4
BITMAP
0000
0000
0000
0000
0000
0200
1c00
2600
4a00
7e00
5000
5000
2200
3c00
4000
0000
0000
0000
ENDCHAR
STARTCHAR LtCapJStroke
ENCODING 584
SWIDTH 1080 0
DWIDTH 9 0
BBX 9 18 0 -4
BITMAP
0000
0000
0000
0e00
0400
0400
0400
0400
1f00
0400
0400
4400
4400
3800
0000
0000
0000
0000
ENDCHAR
STARTCHAR LtSmlJStroke
ENCODING 585
SWIDTH 1080 0
DWIDTH 9 0
BBX 9 18 0 -4
BITMAP
0000
0000
0400
0400
0000
0000
1c00
0400
0400
0400
3f00
0400
0400
0400
4400
4400
3800
0000
ENDCHAR
STARTCHAR LtCapQHooktail
ENCODING 586
SWIDTH 1080 0
DWIDTH 9 0
BBX 9 18 0 -4
BITMAP
0000
0000
0000
3a00
4600
4200
4200
4200
4200
4200
4200
4200
4600
3a00
0200
0200
0180
0000
ENDCHAR
STARTCHAR LtSmlQHooktail
ENCODING 587
SWIDTH 1080 0
DWIDTH 9 0
BBX 9 18 0 -4
BITMAP
0000
0000
0000
0000
0000
0000
3a00
4600
4200
4200
4200
4200
4600
3a00
0200
0200
0180
0000
ENDCHAR
STARTCHAR LtCapRStroke
ENCODING 588
SWIDTH 1080 0
DWIDTH 9 0
BBX 9 18 0 -4
BITMAP
0000
0000
0000
7c00
4200
4200
4200
4400
ff00
4800
4400
4400
4200
4200
0000
0000
0000
0000
ENDCHAR
STARTCHAR LtSmlRStroke
ENCODING 589
SWIDTH 1080 0
DWIDTH 9 0
BBX 9 18 0 -4
BITMAP
0000
0000
0000
0000
0000
0000
6e00
3200
2000
2000
7c00
2000
2000
2000
0000
0000
0000
0000
ENDCHAR
STARTCHAR LtCapYStroke
ENCODING 590
SWIDTH 1080 0
DWIDTH 9 0
BBX 9 18 0 -4
BITMAP
0000
0000
0000
4100
4100
2200
7f00
1400
1400
0800
0800
0800
0800
0800
0000
0000
0000
0000
ENDCHAR
STARTCHAR LtSmlYStroke
ENCODING 591
SWIDTH 1080 0
DWIDTH 9 0
BBX 9 18 0 -4
BITMAP
0000
0000
0000
0000
0000
0000
4200
4200
4200
2400
7f00
1400
1800
0800
1000
5000
2000
0000
ENDCHAR
STARTCHAR LtSmlATrnd
ENCODING 592
SWIDTH 1080 0
DWIDTH 9 0
BBX 9 18 0 -4
BITMAP
0000
0000
0000
0000
0000
0000
dc00
6200
4200
4400
7800
4000
4400
3c00
0000
0000
0000
0000
ENDCHAR
STARTCHAR LtSmlAScr
ENCODING 593
SWIDTH 1080 0
DWIDTH 9 0
BBX 9 18 0 -4
BITMAP
0000
0000
0000
0000
0000
0000
3a00
4600
4200
4200
4200
4200
4600
3b00
0000
0000
0000
0000
ENDCHAR
STARTCHAR LtSmlAScrTrnd
ENCODING 594
SWIDTH 1080 0
DWIDTH 9 0
BBX 9 18 0 -4
BITMAP
0000
0000
0000
0000
0000
0000
dc00
6200
4200
4200
4200
4200
6200
5c00
0000
0000
0000
0000
ENDCHAR
STARTCHAR LtSmlBHook
ENCODING 595
SWIDTH 1080 0
DWIDTH 9 0
BBX 9 18 0 -4
BITMAP
0000
0000
0000
3800
4000
4000
5c00
6200
4200
4200
4200
4200
6200
5c00
0000
0000
0000
0000
ENDCHAR
STARTCHAR LtSmlCTrnd
ENCODING 596
SWIDTH 1080 0
DWIDTH 9 0
BBX 9 18 0 -4
BITMAP
0000
0000
0000
0000
0000
0000
3800
4400
0200
0200
0200
0200
4400
3800
0000
0000
0000
0000
ENDCHAR
STARTCHAR LtSmlCCurl
ENCODING 597
SWIDTH 1080 0
DWIDTH 9 0
BBX 9 18 0 -4
BITMAP
0000
0000
0000
0000
0000
0000
1c00
2200
4000
4000
4000
4400
2a00
1c00
1000
0000
0000
0000
ENDCHAR
STARTCHAR LtSmlDLhook
ENCODING 598
SWIDTH 1080 0
DWIDTH 9 0
BBX 9 18 0 -4
BITMAP
0000
0000
0000
0200
0200
0200
3a00
4600
4200
4200
4200
4200
4600
3a00
0200
0200
0180
0000
ENDCHAR
STARTCHAR LtSmlDHook
ENCODING 599
SWIDTH 1080 0
DWIDTH 9 0
BBX 9 18 0 -4
BITMAP
0000
0000
0000
0180
0200
0200
3a00
4600
4200
4200
4200
4200
4600
3a00
0000
0000
0000
0000
ENDCHAR
STARTCHAR LtSmlERev
ENCODING 600
SWIDTH 1080 0
DWIDTH 9 0
BBX 9 18 0 -4
BITMAP
0000
0000
0000
0000
0000
0000
3800
4400
4200
7e00
0200
0200
4400
3800
0000
0000
0000
0000
ENDCHAR
STARTCHAR LtSmlSchwa
ENCODING 601
SWIDTH 1080 0
DWIDTH 9 0
BBX 9 18 0 -4
BITMAP
0000
0000
0000
0000
0000
0000
3800
4400
0200
0200
7e00
4200
4400
3800
0000
0000
0000
0000
ENDCHAR
STARTCHAR LtSmlSchwaHook
ENCODING 602
SWIDTH 1080 0
DWIDTH 9 0
BBX 9 18 0 -4
BITMAP
0000
0000
0000
0000
0000
0000
7000
8a00
0600
0500
fc00
8400
8800
7000
0000
0000
0000
0000
ENDCHAR
STARTCHAR LtSmlEps
ENCODING 603
SWIDTH 1080 0
DWIDTH 9 0
BBX 9 18 0 -4
BITMAP
0000
0000
0000
0000
0000
0000
3c00
4200
4000
3000
4000
4000
4200
3c00
0000
0000
0000
0000
ENDCHAR
STARTCHAR LtSmlEpsRev
ENCODING 604
SWIDTH 1080 0
DWIDTH 9 0
BBX 9 18 0 -4
BITMAP
0000
0000
0000
0000
0000
0000
3c00
4200
0200
0c00
0200
0200
4200
3c00
0000
0000
0000
0000
ENDCHAR
STARTCHAR LtSmlEpsRevHook
ENCODING 605
SWIDTH 1080 0
DWIDTH 9 0
BBX 9 18 0 -4
BITMAP
0000
0000
0000
0000
0000
0000
7800
8600
0600
1900
0400
0400
8400
7800
0000
0000
0000
0000
ENDCHAR
STARTCHAR LtSmlEpsRevClsd
ENCODING 606
SWIDTH 1080 0
DWIDTH 9 0
BBX 9 18 0 -4
BITMAP
0000
0000
0000
0000
0000
0000
1c00
2200
4200
4c00
4200
4200
2200
1c00
0000
0000
0000
0000
ENDCHAR
STARTCHAR LtSmlFTrnd
ENCODING 607
SWIDTH 1080 0
DWIDTH 9 0
BBX 9 18 0 -4
BITMAP
0000
0000
0000
0000
0000
0000
0800
0800
0800
0800
0800
0800
3e00
0800
0800
0800
7000
0000
ENDCHAR
STARTCHAR LtSmlGHook
ENCODING 608
SWIDTH 1080 0
DWIDTH 9 0
BBX 9 18 0 -4
BITMAP
0000
0000
0000
0180
0200
0200
3a00
4600
4200
4200
4200
4200
4600
3a00
0200
4200
3c00
0000
ENDCHAR
STARTCHAR LtSmlGScr
ENCODING 609
SWIDTH 1080 0
DWIDTH 9 0
BBX 9 18 0 -4
BITMAP
0000
0000
0000
0000
0000
0000
3a00
4600
4200
4200
4200
4200
4600
3a00
0200
4200
3c00
0000
ENDCHAR
STARTCHAR LtSmlGSmc
ENCODING 610
SWIDTH 1080 0
DWIDTH 9 0
BBX 9 18 0 -4
BITMAP
0000
0000
0000
0000
0000
0000
1e00
2200
4000
4000
4e00
4200
2200
1e00
0000
0000
0000
0000
ENDCHAR
STARTCHAR LtSmlGam
ENCODING 611
SWIDTH 1080 0
DWIDTH 9 0
BBX 9 18 0 -4
BITMAP
0000
0000
0000
0000
0000
0000
4100
4100
2200
2200
1400
0800
0800
1400
1400
1400
0800
0000
ENDCHAR
STARTCHAR LtSmlGamSml
ENCODING 612
SWIDTH 1080 0
DWIDTH 9 0
BBX 9 18 0 -4
BITMAP
0000
0000
0000
0000
0000
0000
4200
2400
1800
1800
2400
2400
2400
1800
0000
0000
0000
0000
ENDCHAR
STARTCHAR LtSmlHTrnd
ENCODING 613
SWIDTH 1080 0
DWIDTH 9 0
BBX 9 18 0 -4
BITMAP
0000
0000
0000
0000
0000
0000
4200
4200
4200
4200
4200
4200
4600
3a00
0200
0200
0200
0000
ENDCHAR
STARTCHAR LtSmlHHook
ENCODING 614
SWIDTH 1080 0
DWIDTH 9 0
BBX 9 18 0 -4
BITMAP
0000
0000
0000
3800
4000
4000
5c00
6200
4200
4200
4200
4200
4200
4200
0000
0000
0000
0000
ENDCHAR
STARTCHAR LtSmlHHookLhook
ENCODING 615
SWIDTH 1080 0
DWIDTH 9 0
BBX 9 18 0 -4
BITMAP
0000
0000
0000
3800
4000
4000
5c00
6200
4200
4200
4200
4200
4200
4200
0200
1200
0c00
0000
ENDCHAR
STARTCHAR LtSmlIStroke
ENCODING 616
SWIDTH 1080 0
DWIDTH 9 0
BBX 9 18 0 -4
BITMAP
0000
0000
0800
0800
0000
0000
1800
0800
0800
3e00
0800
0800
0800
3e00
0000
0000
0000
0000
ENDCHAR
STARTCHAR LtSmlIot
ENCODING 617
SWIDTH 1080 0
DWIDTH 9 0
BBX 9 18 0 -4
BITMAP
0000
0000
0000
0000
0000
0000
1000
1000
1000
1000
1000
1000
1200
0c00
0000
0000
0000
0000
ENDCHAR
STARTCHAR LtSmlISmc
ENCODING 618
SWIDTH 1080 0
DWIDTH 9 0
BBX 9 18 0 -4
BITMAP
0000
0000
0000
0000
0000
0000
3e00
0800
0800
0800
0800
0800
0800
3e00
0000
0000
0000
0000
ENDCHAR
STARTCHAR LtSmlLMtilde
ENCODING 619
SWIDTH 1080 0
DWIDTH 9 0
BBX 9 18 0 -4
BITMAP
0000
0000
0000
1800
0800
0800
0800
3900
4e00
0800
0800
0800
0800
3e00
0000
0000
0000
0000
ENDCHAR
STARTCHAR LtSmlLBelt
ENCODING 620
SWIDTH 1080 0
DWIDTH 9 0
BBX 9 18 0 -4
BITMAP
0000
0000
0000
1800
0800
0800
0800
1800
2a00
1c00
0800
0800
0800
3e00
0000
0000
0000
0000
ENDCHAR
STARTCHAR LtSmlLLhook
ENCODING 621
SWIDTH 1080 0
DWIDTH 9 0
BBX 9 18 0 -4
BITMAP
0000
0000
0000
1800
0800
0800
0800
0800
0800
0800
0800
0800
0800
0800
0800
0800
0600
0000
ENDCHAR
STARTCHAR LtSmlLEzh
ENCODING 622
SWIDTH 1080 0
DWIDTH 9 0
BBX 9 18 0 -4
BITMAP
0000
0000
0000
6000
2000
2000
3f00
2100
2200
2200
2400
2600
2100
7100
0100
2100
1e00
0000
ENDCHAR
STARTCHAR LtSmlMTrnd
ENCODING 623
SWIDTH 1080 0
DWIDTH 9 0
BBX 9 18 0 -4
BITMAP
0000
0000
0000
0000
0000
0000
4900
4900
4900
4900
4900
4900
4900
3700
0000
0000
0000
0000
ENDCHAR
STARTCHAR LtSmlMTrndLongleg
ENCODING 624
SWIDTH 1080 0
DWIDTH 9 0
BBX 9 18 0 -4
BITMAP
0000
0000
0000
0000
0000
0000
4900
4900
4900
4900
4900
4900
4900
3700
0100
0100
0100
0000
ENDCHAR
STARTCHAR LtSmlMLhook
ENCODING 625
SWIDTH 1080 0
DWIDTH 9 0
BBX 9 18 0 -4
BITMAP
0000
0000
0000
0000
0000
0000
7600
4900
4900
4900
4900
4900
4900
4900
0100
0100
0e00
0000
ENDCHAR
STARTCHAR LtSmlNLhookL
ENCODING 626
SWIDTH 1080 0
DWIDTH 9 0
BBX 9 18 0 -4
BITMAP
0000
0000
0000
0000
0000
0000
2e00
3100
2100
2100
2100
2100
2100
2100
2000
2000
c000
0000
ENDCHAR
STARTCHAR LtSmlNLhook
ENCODING 627
SWIDTH 1080 0
DWIDTH 9 0
BBX 9 18 0 -4
BITMAP
0000
0000
0000
0000
0000
0000
5c00
6200
4200
4200
4200
4200
4200
4200
0200
0200
0180
0000
ENDCHAR
STARTCHAR LtSmlNSmc
ENCODING 628
SWIDTH 1080 0
DWIDTH 9 0
BBX 9 18 0 -4
BITMAP
0000
0000
0000
0000
0000
0000
4200
6200
5200
5200
4a00
4a00
4600
4200
0000
0000
0000
0000
ENDCHAR
STARTCHAR LtSmlOStrokeH
ENCODING 629
SWIDTH 1080 0
DWIDTH 9 0
BBX 9 18 0 -4
BITMAP
0000
0000
0000
0000
0000
0000
3c00
4200
4200
7e00
4200
4200
4200
3c00
0000
0000
0000
0000
ENDCHAR
STARTCHAR LtSmlOESmc
ENCODING 630
SWIDTH 1080 0
DWIDTH 9 0
BBX 9 18 0 -4
BITMAP
0000
0000
0000
0000
0000
0000
3f00
4800
4800
4e00
4800
4800
4800
3f00
0000
0000
0000
0000
ENDCHAR
STARTCHAR LtSmlOmeClsd
ENCODING 631
SWIDTH 1080 0
DWIDTH 9 0
BBX 9 18 0 -4
BITMAP
0000
0000
0000
0000
0000
1c00
2200
4100
4100
4900
4900
4900
4900
3600
0000
0000
0000
0000
ENDCHAR
STARTCHAR LtSmlPhi
ENCODING 632
SWIDTH 1080 0
DWIDTH 9 0
BBX 9 18 0 -4
BITMAP
0000
0000
0000
0800
0800
0800
3e00
4900
4900
4900
4900
4900
4900
3e00
0800
0800
0800
0000
ENDCHAR
STARTCHAR LtSmlRTrnd
ENCODING 633
SWIDTH 1080 0
DWIDTH 9 0
BBX 9 18 0 -4
BITMAP
0000
0000
0000
0000
0000
0000
0400
0400
0400
0400
0400
0400
4c00
7600
0000
0000
0000
0000
ENDCHAR
STARTCHAR LtSmlRTrndLongleg
ENCODING 634
SWIDTH 1080 0
DWIDTH 9 0
BBX 9 18 0 -4
BITMAP
0000
0000
0000
0400
0400
0400
0400
0400
0400
0400
0400
0400
4c00
7600
0000
0000
0000
0000
ENDCHAR
STARTCHAR LtSmlRTrndLhook
ENCODING 635
SWIDTH 1080 0
DWIDTH 9 0
BBX 9 18 0 -4
BITMAP
0000
0000
0000
0000
0000
0000
0400
0400
0400
0400
0400
0400
4c00
7400
0400
0400
0300
0000
ENDCHAR
STARTCHAR LtSmlRLongleg
ENCODING 636
SWIDTH 1080 0
DWIDTH 9 0
BBX 9 18 0 -4
BITMAP
0000
0000
0000
0000
0000
0000
6e00
3200
2000
2000
2000
2000
2000
2000
2000
2000
2000
0000
ENDCHAR
STARTCHAR LtSmlRLhook
ENCODING 637
SWIDTH 1080 0
DWIDTH 9 0
BBX 9 18 0 -4
BITMAP
0000
0000
0000
0000
0000
0000
6e00
3200
2000
2000
2000
2000
2000
2000
2000
2000
1800
0000
ENDCHAR
STARTCHAR LtSmlRFish
ENCODING 638
SWIDTH 1080 0
DWIDTH 9 0
BBX 9 18 0 -4
BITMAP
0000
0000
0000
0000
0000
0000
0c00
1200
2200
2000
2000
2000
2000
2000
0000
0000
0000
0000
ENDCHAR
STARTCHAR LtSmlRFishRev
ENCODING 639
SWIDTH 1080 0
DWIDTH 9 0
BBX 9 18 0 -4
BITMAP
0000
0000
0000
0000
0000
0000
1800
2400
2200
0200
0200
0200
0200
0200
0000
0000
0000
0000
ENDCHAR
STARTCHAR LtSmlRSmc
ENCODING 640
SWIDTH 1080 0
DWIDTH 9 0
BBX 9 18 0 -4
BITMAP
0000
0000
0000
0000
0000
0000
7c00
4200
4200
7c00
4800
4400
4200
4200
0000
0000
0000
0000
ENDCHAR
STARTCHAR LtSmlRSmcInv
ENCODING 641
SWIDTH 1080 0
DWIDTH 9 0
BBX 9 18 0 -4
BITMAP
0000
0000
0000
0000
0000
0000
4200
4200
4400
4800
7c00
4200
4200
7c00
0000
0000
0000
0000
ENDCHAR
STARTCHAR LtSmlSLhook
ENCODING 642
SWIDTH 1080 0
DWIDTH 9 0
BBX 9 18 0 -4
BITMAP
0000
0000
0000
0000
0000
0000
3c00
4200
4000
3000
0c00
0200
4200
7c00
4000
4000
3000
0000
ENDCHAR
STARTCHAR LtSmlEsh
ENCODING 643
SWIDTH 1080 0
DWIDTH 9 0
BBX 9 18 0 -4
BITMAP
0000
0000
0000
0700
0800
0800
0800
0800
0800
0800
0800
0800
0800
0800
0800
0800
7000
0000
ENDCHAR
STARTCHAR LtSmlFTrndHook
ENCODING 644
SWIDTH 1080 0
DWIDTH 9 0
BBX 9 18 0 -4
BITMAP
0000
0000
0000
0700
0800
0800
0800
0800
0800
0800
0800
0800
3e00
0800
0800
0800
7000
0000
ENDCHAR
STARTCHAR LtSmlEshSmlRev
ENCODING 645
SWIDTH 1080 0
DWIDTH 9 0
BBX 9 18 0 -4
BITMAP
0000
0000
0000
0000
0000
0000
7000
0800
0800
0800
0800
0800
0800
0700
0000
0000
0000
0000
ENDCHAR
STARTCHAR LtSmlEshCurl
ENCODING 646
SWIDTH 1080 0
DWIDTH 9 0
BBX 9 18 0 -4
BITMAP
0000
0000
0000
0700
0800
0800
0800
0800
0800
0800
0800
0800
0800
0800
3c00
4a00
3200
0000
ENDCHAR
STARTCHAR LtSmlTTrnd
ENCODING 647
SWIDTH 1080 0
DWIDTH 9 0
BBX 9 18 0 -4
BITMAP
0000
0000
0000
0000
0000
0000
3000
4800
0800
0800
0800
0800
0800
3e00
0800
0800
0000
0000
ENDCHAR
STARTCHAR LtSmlTLhook
ENCODING 648
SWIDTH 1080 0
DWIDTH 9 0
BBX 9 18 0 -4
BITMAP
0000
0000
0000
0000
1000
1000
7c00
1000
1000
1000
1000
1000
1000
1000
1000
1200
0c00
0000
ENDCHAR
STARTCHAR LtSmlUStroke
ENCODING 649
SWIDTH 1080 0
DWIDTH 9 0
BBX 9 18 0 -4
BITMAP
0000
0000
0000
0000
0000
0000
4200
4200
4200
ff00
4200
4200
4600
3a00
0000
0000
0000
0000
ENDCHAR
STARTCHAR LtSmlUps
ENCODING 650
SWIDTH 1080 0
DWIDTH 9 0
BBX 9 18 0 -4
BITMAP
0000
0000
0000
0000
0000
0000
6600
2400
4200
4200
4200
4200
4200
3c00
0000
0000
0000
0000
ENDCHAR
STARTCHAR LtSmlVHook
ENCODING 651
SWIDTH 1080 0
DWIDTH 9 0
BBX 9 18 0 -4
BITMAP
0000
0000
0000
0000
0000
0000
4400
4400
4200
4200
4200
4200
4400
3800
0000
0000
0000
0000
ENDCHAR
STARTCHAR LtSmlVTrnd
ENCODING 652
SWIDTH 1080 0
DWIDTH 9 0
BBX 9 18 0 -4
BITMAP
0000
0000
0000
0000
0000
0000
0800
0800
1400
1400
2200
2200
4100
4100
0000
0000
0000
0000
ENDCHAR
STARTCHAR LtSmlWTrnd
ENCODING 653
SWIDTH 1080 0
DWIDTH 9 0
BBX 9 18 0 -4
BITMAP
0000
0000
0000
0000
0000
0000
2200
2200
3600
4900
4900
4900
4100
4100
0000
0000
0000
0000
ENDCHAR
STARTCHAR LtSmlYTrnd
ENCODING 654
SWIDTH 1080 0
DWIDTH 9 0
BBX 9 18 0 -4
BITMAP
0000
0000
0000
0400
0a00
0800
1000
1800
2800
2400
2400
4200
4200
4200
0000
0000
0000
0000
ENDCHAR
STARTCHAR LtSmlYSmc
ENCODING 655
SWIDTH 1080 0
DWIDTH 9 0
BBX 9 18 0 -4
BITMAP
0000
0000
0000
0000
0000
0000
4100
2200
2200
1400
0800
0800
0800
0800
0000
0000
0000
0000
ENDCHAR
STARTCHAR LtSmlZLhook
ENCODING 656
SWIDTH 1080 0
DWIDTH 9 0
BBX 9 18 0 -4
BITMAP
0000
0000
0000
0000
0000
0000
7e00
0200
0400
0800
1000
2000
4000
7e00
0400
0400
0300
0000
ENDCHAR
STARTCHAR LtSmlZCurl
ENCODING 657
SWIDTH 1080 0
DWIDTH 9 0
BBX 9 18 0 -4
BITMAP
0000
0000
0000
0000
0000
0000
7e00
0200
0400
0800
1000
2400
4a00
7c00
1000
0000
0000
0000
ENDCHAR
STARTCHAR LtSmlEzh
ENCODING 658
SWIDTH 1080 0
DWIDTH 9 0
BBX 9 18 0 -4
BITMAP
0000
0000
0000
0000
0000
0000
7e00
0200
0400
0400
0800
1c00
0200
0200
0200
4200
3c00
0000
ENDCHAR
STARTCHAR LtSmlEzhCurl
ENCODING 659
SWIDTH 1080 0
DWIDTH 9 0
BBX 9 18 0 -4
BITMAP
0000
0000
0000
0000
0000
0000
7e00
0200
0400
0400
0800
1c00
0200
0200
3200
4c00
3a00
0000
ENDCHAR
STARTCHAR LtSmlGlot
ENCODING 660
SWIDTH 1080 0
DWIDTH 9 0
BBX 9 18 0 -4
BITMAP
0000
0000
0000
1c00
2200
2200
0200
0400
0800
0800
0800
0800
0800
0800
0000
0000
0000
0000
ENDCHAR
STARTCHAR LtSmlAin
ENCODING 661
SWIDTH 1080 0
DWIDTH 9 0
BBX 9 18 0 -4
BITMAP
0000
0000
0000
1c00
2200
2200
2000
1000
0800
0800
0800
0800
0800
0800
0000
0000
0000
0000
ENDCHAR
STARTCHAR LtSmlGlotInv
ENCODING 662
SWIDTH 1080 0
DWIDTH 9 0
BBX 9 18 0 -4
BITMAP
0000
0000
0000
0800
0800
0800
0800
0800
0800
0400
0200
2200
2200
1c00
0000
0000
0000
0000
ENDCHAR
STARTCHAR LtSmlCStretch
ENCODING 663
SWIDTH 1080 0
DWIDTH 9 0
BBX 9 18 0 -4
BITMAP
0000
0000
0000
0000
0000
0000
1c00
2200
4000
4000
4000
4000
4000
4000
4000
2200
1c00
0000
ENDCHAR
STARTCHAR LtSmlBullseye
ENCODING 664
SWIDTH 1080 0
DWIDTH 9 0
BBX 9 18 0 -4
BITMAP
0000
0000
0000
0000
0000
0000
1c00
2200
4100
4900
4900
4100
2200
1c00
0000
0000
0000
0000
ENDCHAR
STARTCHAR LtSmlBSmc
ENCODING 665
SWIDTH 1080 0
DWIDTH 9 0
BBX 9 18 0 -4
BITMAP
0000
0000
0000
0000
0000
0000
7c00
4200
4200
7c00
4200
4200
4200
7c00
0000
0000
0000
0000
ENDCHAR
STARTCHAR LtSmlEpsClsd
ENCODING 666
SWIDTH 1080 0
DWIDTH 9 0
BBX 9 18 0 -4
BITMAP
0000
0000
0000
0000
0000
0000
3800
4400
4200
3200
4200
4200
4400
3800
0000
0000
0000
0000
ENDCHAR
STARTCHAR LtSmlGSmcHook
ENCODING 667
SWIDTH 1080 0
DWIDTH 9 0
BBX 9 18 0 -4
BITMAP
0000
0000
0000
0180
0200
0200
1e00
2200
4000
4000
4e00
4200
2200
1e00
0000
0000
0000
0000
ENDCHAR
STARTCHAR LtSmlHSmc
ENCODING 668
SWIDTH 1080 0
DWIDTH 9 0
BBX 9 18 0 -4
BITMAP
0000
0000
0000
0000
0000
0000
4200
4200
4200
7e00
4200
4200
4200
4200
0000
0000
0000
0000
ENDCHAR
STARTCHAR LtSmlJCurl
ENCODING 669
SWIDTH 1080 0
DWIDTH 9 0
BBX 9 18 0 -4
BITMAP
0000
0000
0400
0400
0000
0000
1c00
0400
0400
0400
0400
0400
0400
3f00
4400
4400
3800
0000
ENDCHAR
STARTCHAR LtSmlKTrnd
ENCODING 670
SWIDTH 1080 0
DWIDTH 9 0
BBX 9 18 0 -4
BITMAP
0000
0000
0000
0000
0000
0000
4200
2200
1200
0a00
0e00
1200
2200
4200
0200
0200
0200
0000
ENDCHAR
STARTCHAR LtSmlLSmc
ENCODING 671
SWIDTH 1080 0
DWIDTH 9 0
BBX 9 18 0 -4
BITMAP
0000
0000
0000
0000
0000
0000
4000
4000
4000
4000
4000
4000
4000
7e00
0000
0000
0000
0000
ENDCHAR
STARTCHAR LtSmlQHook
ENCODING 672
SWIDTH 1080 0
DWIDTH 9 0
BBX 9 18 0 -4
BITMAP
0000
0000
0000
0180
0200
0200
3a00
4600
4200
4200
4200
4200
4600
3a00
0200
0200
0200
0000
ENDCHAR
STARTCHAR LtSmlGlotStroke
ENCODING 673
SWIDTH 1080 0
DWIDTH 9 0
BBX 9 18 0 -4
BITMAP
0000
0000
0000
1c00
2200
2200
0200
0400
0800
0800
3e00
0800
0800
0800
0000
0000
0000
0000
ENDCHAR
STARTCHAR LtSmlAinStroke
ENCODING 674
SWIDTH 1080 0
DWIDTH 9 0
BBX 9 18 0 -4
BITMAP
0000
0000
0000
1c00
2200
2200
2000
1000
0800
0800
3e00
0800
0800
0800
0000
0000
0000
0000
ENDCHAR
STARTCHAR LtSmlDZIpa
ENCODING 675
SWIDTH 1080 0
DWIDTH 9 0
BBX 9 18 0 -4
BITMAP
0000
0000
0000
1000
1000
1000
7700
9100
9100
9200
9200
9400
9400
7700
0000
0000
0000
0000
ENDCHAR
STARTCHAR LtSmlDEzh
ENCODING 676
SWIDTH 1080 0
DWIDTH 9 0
BBX 9 18 0 -4
BITMAP
0000
0000
0000
1000
1000
1000
7700
9100
9100
9200
9200
9600
9100
7100
0100
1100
0e00
0000
ENDCHAR
STARTCHAR LtSmlDZCurl
ENCODING 677
SWIDTH 1080 0
DWIDTH 9 0
BBX 9 18 0 -4
BITMAP
0000
0000
0000
1000
1000
1000
7700
9100
9100
9200
9200
9400
9500
7700
0200
0400
0000
0000
ENDCHAR
STARTCHAR LtSmlTS
ENCODING 678
SWIDTH 1080 0
DWIDTH 9 0
BBX 9 18 0 -4
BITMAP
0000
0000
0000
0000
2000
2000
fb00
2500
2400
2400
2200
2100
2500
1e00
0000
0000
0000
0000
ENDCHAR
STARTCHAR LtSmlTEsh
ENCODING 679
SWIDTH 1080 0
DWIDTH 9 0
BBX 9 18 0 -4
BITMAP
0000
0000
0000
0180
2200
2200
fa00
2200
2200
2200
2200
2200
2200
1a00
0200
0200
0c00
0000
ENDCHAR
STARTCHAR LtSmlTCCurl
ENCODING 680
SWIDTH 1080 0
DWIDTH 9 0
BBX 9 18 0 -4
BITMAP
0000
0000
0000
0000
2000
2000
fb00
2500
2400
2400
2400
2400
2500
1b00
0200
0400
0000
0000
ENDCHAR
STARTCHAR LtSmlFEng
ENCODING 681
SWIDTH 1080 0
DWIDTH 9 0
BBX 9 18 0 -4
BITMAP
0000
0000
0000
3000
4000
4000
4a00
fd00
4900
4900
4900
4900
4900
4900
0100
0900
0600
0000
ENDCHAR
STARTCHAR LtSmlLS
ENCODING 682
SWIDTH 1080 0
DWIDTH 9 0
BBX 9 18 0 -4
BITMAP
0000
0000
0000
6000
2000
2000
2e00
3100
2800
2400
2200
2100
2100
7e00
0000
0000
0000
0000
ENDCHAR
STARTCHAR LtSmlLZ
ENCODING 683
SWIDTH 1080 0
DWIDTH 9 0
BBX 9 18 0 -4
BITMAP
0000
0000
0000
6000
2000
2000
3f00
2100
2200
2200
2400
2400
2800
7f00
0000
0000
0000
0000
ENDCHAR
STARTCHAR LtSmlW2
ENCODING 684
SWIDTH 1080 0
DWIDTH 9 0
BBX 9 18 0 -4
BITMAP
0000
0000
0000
4100
4900
4900
3600
2200
0000
4100
4900
4900
3600
2200
0000
0000
0000
0000
ENDCHAR
STARTCHAR LtSmlBridge2
ENCODING 685
SWIDTH 1080 0
DWIDTH 9 0
BBX 9 18 0 -4
BITMAP
0000
0000
0000
7e00
4200
4200
4200
4200
0000
7e00
4200
4200
4200
4200
0000
0000
0000
0000
ENDCHAR
STARTCHAR LtSmlHTrndHook
ENCODING 686
SWIDTH 1080 0
DWIDTH 9 0
BBX 9 18 0 -4
BITMAP
0000
0000
0000
0000
0000
0000
c100
2100
2100
2100
2100
2100
2300
1d00
0100
0100
0100
0000
ENDCHAR
STARTCHAR LtSmlHTrndHookLhook
ENCODING 687
SWIDTH 1080 0
DWIDTH 9 0
BBX 9 18 0 -4
BITMAP
0000
0000
0000
0000
0000
0000
c200
2200
2200
2200
2200
2200
2600
1a00
0200
0200
0180
0000
ENDCHAR
STARTCHAR SupSmlH
ENCODING 688
SWIDTH 1080 0
DWIDTH 9 0
BBX 9 18 0 -4
BITMAP
0000
2000
2000
2c00
3200
2200
2200
2200
2200
0000
0000
0000
0000
0000
0000
0000
0000
0000
ENDCHAR
STARTCHAR SupSmlHHook
ENCODING 689
SWIDTH 1080 0
DWIDTH 9 0
BBX 9 18 0 -4
BITMAP
0000
1c00
2000
2c00
3200
2200
2200
2200
2200
0000
0000
0000
0000
0000
0000
0000
0000
0000
ENDCHAR
STARTCHAR SupSmlJ
ENCODING 690
SWIDTH 1080 0
DWIDTH 9 0
BBX 9 18 0 -4
BITMAP
0400
0400
0000
0400
0400
0400
0400
0400
0400
1800
0000
0000
0000
0000
0000
0000
0000
0000
ENDCHAR
STARTCHAR SupSmlR
ENCODING 691
SWIDTH 1080 0
DWIDTH 9 0
BBX 9 18 0 -4
BITMAP
0000
0000
0000
2c00
3400
2000
2000
2000
2000
0000
0000
0000
0000
0000
0000
0000
0000
0000
ENDCHAR
STARTCHAR SupSmlRTrnd
ENCODING 692
SWIDTH 1080 0
DWIDTH 9 0
BBX 9 18 0 -4
BITMAP
0000
0000
0000
0400
0400
0400
0400
2c00
3400
0000
0000
0000
0000
0000
0000
0000
0000
0000
ENDCHAR
STARTCHAR SupSmlRTrndLhook
ENCODING 693
SWIDTH 1080 0
DWIDTH 9 0
BBX 9 18 0 -4
BITMAP
0000
0000
0000
0400
0400
0400
0400
2c00
3400
0600
0000
0000
0000
0000
0000
0000
0000
0000
ENDCHAR
STARTCHAR SupSmlRSmcInv
ENCODING 694
SWIDTH 1080 0
DWIDTH 9 0
BBX 9 18 0 -4
BITMAP
0000
0000
0000
2200
2400
3c00
2200
2200
3c00
0000
0000
0000
0000
0000
0000
0000
0000
0000
ENDCHAR
STARTCHAR SupSmlW
ENCODING 695
SWIDTH 1080 0
DWIDTH 9 0
BBX 9 18 0 -4
BITMAP
0000
0000
0000
4100
4900
4900
3600
2200
2200
0000
0000
0000
0000
0000
0000
0000
0000
0000
ENDCHAR
STARTCHAR SupSmlY
ENCODING 696
SWIDTH 1080 0
DWIDTH 9 0
BBX 9 18 0 -4
BITMAP
0000
0000
0000
2200
2200
1400
1400
0800
0800
3000
0000
0000
0000
0000
0000
0000
0000
0000
ENDCHAR
STARTCHAR AccPrime
ENCODING 697
SWIDTH 1080 0
DWIDTH 9 0
BBX 9 18 0 -4
BITMAP
0000
0000
0400
0c00
0800
1000
0000
0000
0000
0000
0000
0000
0000
0000
0000
0000
0000
0000
ENDCHAR
STARTCHAR AccPrime2
ENCODING 698
SWIDTH 1080 0
DWIDTH 9 0
BBX 9 18 0 -4
BITMAP
0000
0000
1200
3600
2400
4800
0000
0000
0000
0000
0000
0000
0000
0000
0000
0000
0000
0000
ENDCHAR
STARTCHAR AccQuoteL
ENCODING 699
SWIDTH 1080 0
DWIDTH 9 0
BBX 9 18 0 -4
BITMAP
0000
0000
0800
1000
1800
0800
0000
0000
0000
0000
0000
0000
0000
0000
0000
0000
0000
0000
ENDCHAR
STARTCHAR AccQuoteR
ENCODING 700
SWIDTH 1080 0
DWIDTH 9 0
BBX 9 18 0 -4
BITMAP
0000
0000
1000
1800
0800
1000
0000
0000
0000
0000
0000
0000
0000
0000
0000
0000
0000
0000
ENDCHAR
STARTCHAR AccQuoteHe
ENCODING 701
SWIDTH 1080 0
DWIDTH 9 0
BBX 9 18 0 -4
BITMAP
0000
0000
0800
1800
1000
0800
0000
0000
0000
0000
0000
0000
0000
0000
0000
0000
0000
0000
ENDCHAR
STARTCHAR AccRingHalfR
ENCODING 702
SWIDTH 1080 0
DWIDTH 9 0
BBX 9 18 0 -4
BITMAP
0000
0000
1800
0400
0400
1800
0000
0000
0000
0000
0000
0000
0000
0000
0000
0000
0000
0000
ENDCHAR
STARTCHAR AccRingHalfL
ENCODING 703
SWIDTH 1080 0
DWIDTH 9 0
BBX 9 18 0 -4
BITMAP
0000
0000
0c00
1000
1000
0c00
0000
0000
0000
0000
0000
0000
0000
0000
0000
0000
0000
0000
ENDCHAR
STARTCHAR AccGlot
ENCODING 704
SWIDTH 1080 0
DWIDTH 9 0
BBX 9 18 0 -4
BITMAP
0000
0000
1c00
2200
2200
0200
0400
0800
0800
0000
0000
0000
0000
0000
0000
0000
0000
0000
ENDCHAR
STARTCHAR AccAin
ENCODING 705
SWIDTH 1080 0
DWIDTH 9 0
BBX 9 18 0 -4
BITMAP
0000
0000
1c00
2200
2200
2200
1000
0800
0800
0000
0000
0000
0000
0000
0000
0000
0000
0000
ENDCHAR
STARTCHAR AccArrowheadl
ENCODING 706
SWIDTH 1080 0
DWIDTH 9 0
BBX 9 18 0 -4
BITMAP
0400
0800
3000
0800
0400
0000
0000
0000
0000
0000
0000
0000
0000
0000
0000
0000
0000
0000
ENDCHAR
STARTCHAR AccArrowheadr
ENCODING 707
SWIDTH 1080 0
DWIDTH 9 0
BBX 9 18 0 -4
BITMAP
2000
1000
0c00
1000
2000
0000
0000
0000
0000
0000
0000
0000
0000
0000
0000
0000
0000
0000
ENDCHAR
STARTCHAR AccArrowheadu
ENCODING 708
SWIDTH 1080 0
DWIDTH 9 0
BBX 9 18 0 -4
BITMAP
0800
0800
1400
2200
0000
0000
0000
0000
0000
0000
0000
0000
0000
0000
0000
0000
0000
0000
ENDCHAR
STARTCHAR AccArrowheadd
ENCODING 709
SWIDTH 1080 0
DWIDTH 9 0
BBX 9 18 0 -4
BITMAP
2200
1400
0800
0800
0000
0000
0000
0000
0000
0000
0000
0000
0000
0000
0000
0000
0000
0000
ENDCHAR
STARTCHAR AccCircum
ENCODING 710
SWIDTH 1080 0
DWIDTH 9 0
BBX 9 18 0 -4
BITMAP
0000
0000
0000
0800
1400
2200
0000
0000
0000
0000
0000
0000
0000
0000
0000
0000
0000
0000
ENDCHAR
STARTCHAR AccCaron
ENCODING 711
SWIDTH 1080 0
DWIDTH 9 0
BBX 9 18 0 -4
BITMAP
0000
0000
2200
1400
0800
0000
0000
0000
0000
0000
0000
0000
0000
0000
0000
0000
0000
0000
ENDCHAR
STARTCHAR AccStress
ENCODING 712
SWIDTH 1080 0
DWIDTH 9 0
BBX 9 18 0 -4
BITMAP
0000
0000
0800
0800
0800
0800
0000
0000
0000
0000
0000
0000
0000
0000
0000
0000
0000
0000
ENDCHAR
STARTCHAR AccMacron
ENCODING 713
SWIDTH 1080 0
DWIDTH 9 0
BBX 9 18 0 -4
BITMAP
0000
0000
0000
3e00
0000
0000
0000
0000
0000
0000
0000
0000
0000
0000
0000
0000
0000
0000
ENDCHAR
STARTCHAR AccAcuteSml
ENCODING 714
SWIDTH 1080 0
DWIDTH 9 0
BBX 9 18 0 -4
BITMAP
0000
0000
0400
0400
0800
1000
0000
0000
0000
0000
0000
0000
0000
0000
0000
0000
0000
0000
ENDCHAR
STARTCHAR AccGrave
ENCODING 715
SWIDTH 1080 0
DWIDTH 9 0
BBX 9 18 0 -4
BITMAP
0000
0000
1000
1000
0800
0400
0000
0000
0000
0000
0000
0000
0000
0000
0000
0000
0000
0000
ENDCHAR
STARTCHAR AccLvline
ENCODING 716
SWIDTH 1080 0
DWIDTH 9 0
BBX 9 18 0 -4
BITMAP
0000
0000
0000
0000
0000
0000
0000
0000
0000
0000
0000
0000
0800
0800
0800
0800
0000
0000
ENDCHAR
STARTCHAR AccLmacron
ENCODING 717
SWIDTH 1080 0
DWIDTH 9 0
BBX 9 18 0 -4
BITMAP
0000
0000
0000
0000
0000
0000
0000
0000
0000
0000
0000
0000
0000
0000
0000
3e00
0000
0000
ENDCHAR
STARTCHAR AccLgrave
ENCODING 718
SWIDTH 1080 0
DWIDTH 9 0
BBX 9 18 0 -4
BITMAP
0000
0000
0000
0000
0000
0000
0000
0000
0000
0000
0000
0000
0000
1000
1000
0800
0400
0000
ENDCHAR
STARTCHAR AccLacute
ENCODING 719
SWIDTH 1080 0
DWIDTH 9 0
BBX 9 18 0 -4
BITMAP
0000
0000
0000
0000
0000
0000
0000
0000
0000
0000
0000
0000
0000
0400
0400
0800
1000
0000
ENDCHAR
STARTCHAR PColonTrng
ENCODING 720
SWIDTH 1080 0
DWIDTH 9 0
BBX 9 18 0 -4
BITMAP
0000
0000
0000
0000
0000
0000
0000
0000
1c00
0800
0000
0000
0800
1c00
0000
0000
0000
0000
ENDCHAR
STARTCHAR PColonTrngHalf
ENCODING 721
SWIDTH 1080 0
DWIDTH 9 0
BBX 9 18 0 -4
BITMAP
0000
0000
0000
0000
0000
0000
0000
0000
1c00
0800
0000
0000
0000
0000
0000
0000
0000
0000
ENDCHAR
STARTCHAR AccCntrdhalfringr
ENCODING 722
SWIDTH 1080 0
DWIDTH 9 0
BBX 9 18 0 -4
BITMAP
0000
0000
0000
0000
0000
0000
0000
1800
0400
0400
0400
1800
0000
0000
0000
0000
0000
0000
ENDCHAR
STARTCHAR AccCntrdhalfringl
ENCODING 723
SWIDTH 1080 0
DWIDTH 9 0
BBX 9 18 0 -4
BITMAP
0000
0000
0000
0000
0000
0000
0000
0c00
1000
1000
1000
0c00
0000
0000
0000
0000
0000
0000
ENDCHAR
STARTCHAR AccTacku
ENCODING 724
SWIDTH 1080 0
DWIDTH 9 0
BBX 9 18 0 -4
BITMAP
0000
0000
0000
0000
0000
0000
0000
0800
0800
0800
3e00
0000
0000
0000
0000
0000
0000
0000
ENDCHAR
STARTCHAR AccTackd
ENCODING 725
SWIDTH 1080 0
DWIDTH 9 0
BBX 9 18 0 -4
BITMAP
0000
0000
0000
0000
0000
0000
0000
0000
3e00
0800
0800
0800
0000
0000
0000
0000
0000
0000
ENDCHAR
STARTCHAR AccPlus
ENCODING 726
SWIDTH 1080 0
DWIDTH 9 0
BBX 9 18 0 -4
BITMAP
0000
0000
0000
0000
0000
0000
0000
0800
0800
3e00
0800
0800
0000
0000
0000
0000
0000
0000
ENDCHAR
STARTCHAR AccMinus
ENCODING 727
SWIDTH 1080 0
DWIDTH 9 0
BBX 9 18 0 -4
BITMAP
0000
0000
0000
0000
0000
0000
0000
0000
0000
3e00
0000
0000
0000
0000
0000
0000
0000
0000
ENDCHAR
STARTCHAR AccBreve
ENCODING 728
SWIDTH 1080 0
DWIDTH 9 0
BBX 9 18 0 -4
BITMAP
0000
0000
2200
2200
1c00
0000
0000
0000
0000
0000
0000
0000
0000
0000
0000
0000
0000
0000
ENDCHAR
STARTCHAR AccDot
ENCODING 729
SWIDTH 1080 0
DWIDTH 9 0
BBX 9 18 0 -4
BITMAP
0000
0000
1800
1800
0000
0000
0000
0000
0000
0000
0000
0000
0000
0000
0000
0000
0000
0000
ENDCHAR
STARTCHAR AccRing
ENCODING 730
SWIDTH 1080 0
DWIDTH 9 0
BBX 9 18 0 -4
BITMAP
0000
0000
1800
2400
2400
1800
0000
0000
0000
0000
0000
0000
0000
0000
0000
0000
0000
0000
ENDCHAR
STARTCHAR AccOgonek
ENCODING 731
SWIDTH 1080 0
DWIDTH 9 0
BBX 9 18 0 -4
BITMAP
0000
0000
0000
0000
0000
0000
0000
0000
0000
0000
0000
0000
0000
0400
0800
0a00
0400
0000
ENDCHAR
STARTCHAR AccTilde
ENCODING 732
SWIDTH 1080 0
DWIDTH 9 0
BBX 9 18 0 -4
BITMAP
0000
0000
0000
3200
4c00
0000
0000
0000
0000
0000
0000
0000
0000
0000
0000
0000
0000
0000
ENDCHAR
STARTCHAR AccAcute2
ENCODING 733
SWIDTH 1080 0
DWIDTH 9 0
BBX 9 18 0 -4
BITMAP
0000
0000
1200
1200
2400
0000
0000
0000
0000
0000
0000
0000
0000
0000
0000
0000
0000
0000
ENDCHAR
STARTCHAR AccRhothook
ENCODING 734
SWIDTH 1080 0
DWIDTH 9 0
BBX 9 18 0 -4
BITMAP
0000
0000
0000
0000
0000
0000
0000
2000
6400
9800
0000
0000
0000
0000
0000
0000
0000
0000
ENDCHAR
STARTCHAR AccCross
ENCODING 735
SWIDTH 1080 0
DWIDTH 9 0
BBX 9 18 0 -4
BITMAP
0000
0000
2200
1400
0800
1400
2200
0000
0000
0000
0000
0000
0000
0000
0000
0000
0000
0000
ENDCHAR
STARTCHAR SupSmlGam
ENCODING 736
SWIDTH 1080 0
DWIDTH 9 0
BBX 9 18 0 -4
BITMAP
0000
0000
0000
2200
2200
1400
0800
1400
1400
0800
0000
0000
0000
0000
0000
0000
0000
0000
ENDCHAR
STARTCHAR SupSmlL
ENCODING 737
SWIDTH 1080 0
DWIDTH 9 0
BBX 9 18 0 -4
BITMAP
0000
1800
0800
0800
0800
0800
0800
0800
1c00
0000
0000
0000
0000
0000
0000
0000
0000
0000
ENDCHAR
STARTCHAR SupSmlS
ENCODING 738
SWIDTH 1080 0
DWIDTH 9 0
BBX 9 18 0 -4
BITMAP
0000
0000
0000
1c00
2200
1800
0400
2200
1c00
0000
0000
0000
0000
0000
0000
0000
0000
0000
ENDCHAR
STARTCHAR SupSmlX
ENCODING 739
SWIDTH 1080 0
DWIDTH 9 0
BBX 9 18 0 -4
BITMAP
0000
0000
0000
2200
1400
0800
0800
1400
2200
0000
0000
0000
0000
0000
0000
0000
0000
0000
ENDCHAR
STARTCHAR SupSmlAin
ENCODING 740
SWIDTH 1080 0
DWIDTH 9 0
BBX 9 18 0 -4
BITMAP
0000
1c00
2200
2000
1000
0800
0800
0800
0800
0000
0000
0000
0000
0000
0000
0000
0000
0000
ENDCHAR
STARTCHAR LtToneHhigh
ENCODING 741
SWIDTH 1080 0
DWIDTH 9 0
BBX 9 18 0 -4
BITMAP
0000
0000
0000
3c00
0400
0400
0400
0400
0400
0400
0400
0400
0400
0400
0000
0000
0000
0000
ENDCHAR
STARTCHAR LtToneHigh
ENCODING 742
SWIDTH 1080 0
DWIDTH 9 0
BBX 9 18 0 -4
BITMAP
0000
0000
0000
0400
0400
3c00
0400
0400
0400
0400
0400
0400
0400
0400
0000
0000
0000
0000
ENDCHAR
STARTCHAR LtToneMid
ENCODING 743
SWIDTH 1080 0
DWIDTH 9 0
BBX 9 18 0 -4
BITMAP
0000
0000
0000
0400
0400
0400
0400
0400
3c00
0400
0400
0400
0400
0400
0000
0000
0000
0000
ENDCHAR
STARTCHAR LtToneLow
ENCODING 744
SWIDTH 1080 0
DWIDTH 9 0
BBX 9 18 0 -4
BITMAP
0000
0000
0000
0400
0400
0400
0400
0400
0400
0400
0400
3c00
0400
0400
0000
0000
0000
0000
ENDCHAR
STARTCHAR LtToneLlow
ENCODING 745
SWIDTH 1080 0
DWIDTH 9 0
BBX 9 18 0 -4
BITMAP
0000
0000
0000
0400
0400
0400
0400
0400
0400
0400
0400
0400
0400
3c00
0000
0000
0000
0000
ENDCHAR
STARTCHAR AccToneYin
ENCODING 746
SWIDTH 1080 0
DWIDTH 9 0
BBX 9 18 0 -4
BITMAP
0000
0000
0000
0000
0000
0000
2000
2000
2000
2000
2000
2000
2000
3c00
0000
0000
0000
0000
ENDCHAR
STARTCHAR AccToneYang
ENCODING 747
SWIDTH 1080 0
DWIDTH 9 0
BBX 9 18 0 -4
BITMAP
0000
0000
0000
0000
0000
0000
2000
2000
2000
3c00
2000
2000
2000
2000
0000
0000
0000
0000
ENDCHAR
STARTCHAR AccLcaron
ENCODING 748
SWIDTH 1080 0
DWIDTH 9 0
BBX 9 18 0 -4
BITMAP
0000
0000
0000
0000
0000
0000
0000
0000
0000
0000
0000
0000
0000
0000
2200
1400
0800
0000
ENDCHAR
STARTCHAR AccMacron2
ENCODING 749
SWIDTH 1080 0
DWIDTH 9 0
BBX 9 18 0 -4
BITMAP
0000
7e00
0000
7e00
0000
0000
0000
0000
0000
0000
0000
0000
0000
0000
0000
0000
0000
0000
ENDCHAR
STARTCHAR AccApostr2
ENCODING 750
SWIDTH 1080 0
DWIDTH 9 0
BBX 9 18 0 -4
BITMAP
0000
0000
2400
3600
1200
2400
0000
0000
0000
0000
0000
0000
0000
0000
0000
0000
0000
0000
ENDCHAR
STARTCHAR CombGrave
ENCODING 768
SWIDTH 1080 0
DWIDTH 9 0
BBX 9 18 0 -4
BITMAP
0000
0000
1000
1000
0800
0000
0000
0000
0000
0000
0000
0000
0000
0000
0000
0000
0000
0000
ENDCHAR
STARTCHAR CombAcute
ENCODING 769
SWIDTH 1080 0
DWIDTH 9 0
BBX 9 18 0 -4
BITMAP
0000
0000
0800
0800
1000
0000
0000
0000
0000
0000
0000
0000
0000
0000
0000
0000
0000
0000
ENDCHAR
STARTCHAR CombCircum
ENCODING 770
SWIDTH 1080 0
DWIDTH 9 0
BBX 9 18 0 -4
BITMAP
0000
0000
0000
1800
2400
0000
0000
0000
0000
0000
0000
0000
0000
0000
0000
0000
0000
0000
ENDCHAR
STARTCHAR CombTilde
ENCODING 771
SWIDTH 1080 0
DWIDTH 9 0
BBX 9 18 0 -4
BITMAP
0000
0000
0000
1200
2c00
0000
0000
0000
0000
0000
0000
0000
0000
0000
0000
0000
0000
0000
ENDCHAR
STARTCHAR CombMacron
ENCODING 772
SWIDTH 1080 0
DWIDTH 9 0
BBX 9 18 0 -4
BITMAP
0000
0000
0000
3c00
0000
0000
0000
0000
0000
0000
0000
0000
0000
0000
0000
0000
0000
0000
ENDCHAR
STARTCHAR CombOverline
ENCODING 773
SWIDTH 1080 0
DWIDTH 9 0
BBX 9 18 0 -4
BITMAP
0000
ff80
0000
0000
0000
0000
0000
0000
0000
0000
0000
0000
0000
0000
0000
0000
0000
0000
ENDCHAR
STARTCHAR CombBreve
ENCODING 774
SWIDTH 1080 0
DWIDTH 9 0
BBX 9 18 0 -4
BITMAP
0000
0000
0000
2200
1c00
0000
0000
0000
0000
0000
0000
0000
0000
0000
0000
0000
0000
0000
ENDCHAR
STARTCHAR CombDot
ENCODING 775
SWIDTH 1080 0
DWIDTH 9 0
BBX 9 18 0 -4
BITMAP
0000
0000
0800
0800
0000
0000
0000
0000
0000
0000
0000
0000
0000
0000
0000
0000
0000
0000
ENDCHAR
STARTCHAR CombDrss
ENCODING 776
SWIDTH 1080 0
DWIDTH 9 0
BBX 9 18 0 -4
BITMAP
0000
0000
0000
2400
2400
0000
0000
0000
0000
0000
0000
0000
0000
0000
0000
0000
0000
0000
ENDCHAR
STARTCHAR CombVhook
ENCODING 777
SWIDTH 1080 0
DWIDTH 9 0
BBX 9 18 0 -4
BITMAP
0000
0000
3000
0800
1000
0000
0000
0000
0000
0000
0000
0000
0000
0000
0000
0000
0000
0000
ENDCHAR
STARTCHAR CombRing
ENCODING 778
SWIDTH 1080 0
DWIDTH 9 0
BBX 9 18 0 -4
BITMAP
0000
1800
2400
2400
1800
0000
0000
0000
0000
0000
0000
0000
0000
0000
0000
0000
0000
0000
ENDCHAR
STARTCHAR CombAcute2
ENCODING 779
SWIDTH 1080 0
DWIDTH 9 0
BBX 9 18 0 -4
BITMAP
0000
0000
1200
1200
2400
0000
0000
0000
0000
0000
0000
0000
0000
0000
0000
0000
0000
0000
ENDCHAR
STARTCHAR CombCaron
ENCODING 780
SWIDTH 1080 0
DWIDTH 9 0
BBX 9 18 0 -4
BITMAP
0000
0000
0000
2400
1800
0000
0000
0000
0000
0000
0000
0000
0000
0000
0000
0000
0000
0000
ENDCHAR
STARTCHAR CombStress
ENCODING 781
SWIDTH 1080 0
DWIDTH 9 0
BBX 9 18 0 -4
BITMAP
0000
0000
0800
0800
0800
0000
0000
0000
0000
0000
0000
0000
0000
0000
0000
0000
0000
0000
ENDCHAR
STARTCHAR CombVline2
ENCODING 782
SWIDTH 1080 0
DWIDTH 9 0
BBX 9 18 0 -4
BITMAP
0000
0000
2400
2400
2400
0000
0000
0000
0000
0000
0000
0000
0000
0000
0000
0000
0000
0000
ENDCHAR
STARTCHAR CombGrave2
ENCODING 783
SWIDTH 1080 0
DWIDTH 9 0
BBX 9 18 0 -4
BITMAP
0000
0000
4800
4800
2400
0000
0000
0000
0000
0000
0000
0000
0000
0000
0000
0000
0000
0000
ENDCHAR
STARTCHAR CombCandra
ENCODING 784
SWIDTH 1080 0
DWIDTH 9 0
BBX 9 18 0 -4
BITMAP
0000
0800
0800
2200
1c00
0000
0000
0000
0000
0000
0000
0000
0000
0000
0000
0000
0000
0000
ENDCHAR
STARTCHAR CombInvbreve
ENCODING 785
SWIDTH 1080 0
DWIDTH 9 0
BBX 9 18 0 -4
BITMAP
0000
0000
0000
1c00
2200
0000
0000
0000
0000
0000
0000
0000
0000
0000
0000
0000
0000
0000
ENDCHAR
STARTCHAR CombQuoteL
ENCODING 786
SWIDTH 1080 0
DWIDTH 9 0
BBX 9 18 0 -4
BITMAP
0000
0000
0000
0800
1000
0800
0000
0000
0000
0000
0000
0000
0000
0000
0000
0000
0000
0000
ENDCHAR
STARTCHAR CombGkPsili
ENCODING 787
SWIDTH 1080 0
DWIDTH 9 0
BBX 9 18 0 -4
BITMAP
0000
0000
1800
0800
1000
0000
0000
0000
0000
0000
0000
0000
0000
0000
0000
0000
0000
0000
ENDCHAR
STARTCHAR CombGkDasia
ENCODING 788
SWIDTH 1080 0
DWIDTH 9 0
BBX 9 18 0 -4
BITMAP
0000
0000
1800
1000
0800
0000
0000
0000
0000
0000
0000
0000
0000
0000
0000
0000
0000
0000
ENDCHAR
STARTCHAR CombQuoteRRight
ENCODING 789
SWIDTH 1080 0
DWIDTH 9 0
BBX 9 18 0 -4
BITMAP
0000
0000
0180
0080
0080
0100
0000
0000
0000
0000
0000
0000
0000
0000
0000
0000
0000
0000
ENDCHAR
STARTCHAR CombLgrave
ENCODING 790
SWIDTH 1080 0
DWIDTH 9 0
BBX 9 18 0 -4
BITMAP
0000
0000
0000
0000
0000
0000
0000
0000
0000
0000
0000
0000
0000
0000
0000
2000
1800
0000
ENDCHAR
STARTCHAR CombLacute
ENCODING 791
SWIDTH 1080 0
DWIDTH 9 0
BBX 9 18 0 -4
BITMAP
0000
0000
0000
0000
0000
0000
0000
0000
0000
0000
0000
0000
0000
0000
0000
0400
1800
0000
ENDCHAR
STARTCHAR CombLtackl
ENCODING 792
SWIDTH 1080 0
DWIDTH 9 0
BBX 9 18 0 -4
BITMAP
0000
0000
0000
0000
0000
0000
0000
0000
0000
0000
0000
0000
0000
0000
0400
1c00
0400
0000
ENDCHAR
STARTCHAR CombLtackr
ENCODING 793
SWIDTH 1080 0
DWIDTH 9 0
BBX 9 18 0 -4
BITMAP
0000
0000
0000
0000
0000
0000
0000
0000
0000
0000
0000
0000
0000
0000
1000
1c00
1000
0000
ENDCHAR
STARTCHAR CombAngle
ENCODING 794
SWIDTH 1080 0
DWIDTH 9 0
BBX 9 18 0 -4
BITMAP
0380
0080
0080
0000
0000
0000
0000
0000
0000
0000
0000
0000
0000
0000
0000
0000
0000
0000
ENDCHAR
STARTCHAR CombHorn
ENCODING 795
SWIDTH 1080 0
DWIDTH 9 0
BBX 9 18 0 -4
BITMAP
0000
0000
0000
0000
0300
0100
0200
0000
0000
0000
0000
0000
0000
0000
0000
0000
0000
0000
ENDCHAR
STARTCHAR CombLhalfringl
ENCODING 796
SWIDTH 1080 0
DWIDTH 9 0
BBX 9 18 0 -4
BITMAP
0000
0000
0000
0000
0000
0000
0000
0000
0000
0000
0000
0000
0000
0000
0800
1000
0800
0000
ENDCHAR
STARTCHAR CombLtacku
ENCODING 797
SWIDTH 1080 0
DWIDTH 9 0
BBX 9 18 0 -4
BITMAP
0000
0000
0000
0000
0000
0000
0000
0000
0000
0000
0000
0000
0000
0000
0800
0800
1c00
0000
ENDCHAR
STARTCHAR CombLtackd
ENCODING 798
SWIDTH 1080 0
DWIDTH 9 0
BBX 9 18 0 -4
BITMAP
0000
0000
0000
0000
0000
0000
0000
0000
0000
0000
0000
0000
0000
0000
0000
1c00
0800
0800
ENDCHAR
STARTCHAR CombLplus
ENCODING 799
SWIDTH 1080 0
DWIDTH 9 0
BBX 9 18 0 -4
BITMAP
0000
0000
0000
0000
0000
0000
0000
0000
0000
0000
0000
0000
0000
0000
0800
1c00
0800
0000
ENDCHAR
STARTCHAR CombLminus
ENCODING 800
SWIDTH 1080 0
DWIDTH 9 0
BBX 9 18 0 -4
BITMAP
0000
0000
0000
0000
0000
0000
0000
0000
0000
0000
0000
0000
0000
0000
0000
1c00
0000
0000
ENDCHAR
STARTCHAR CombLdot
ENCODING 803
SWIDTH 1080 0
DWIDTH 9 0
BBX 9 18 0 -4
BITMAP
0000
0000
0000
0000
0000
0000
0000
0000
0000
0000
0000
0000
0000
0000
0000
0800
0800
0000
ENDCHAR
STARTCHAR CombLdrss
ENCODING 804
SWIDTH 1080 0
DWIDTH 9 0
BBX 9 18 0 -4
BITMAP
0000
0000
0000
0000
0000
0000
0000
0000
0000
0000
0000
0000
0000
0000
0000
2400
2400
0000
ENDCHAR
STARTCHAR CombLring
ENCODING 805
SWIDTH 1080 0
DWIDTH 9 0
BBX 9 18 0 -4
BITMAP
0000
0000
0000
0000
0000
0000
0000
0000
0000
0000
0000
0000
0000
0000
1800
2400
1800
0000
ENDCHAR
STARTCHAR CombComma
ENCODING 806
SWIDTH 1080 0
DWIDTH 9 0
BBX 9 18 0 -4
BITMAP
0000
0000
0000
0000
0000
0000
0000
0000
0000
0000
0000
0000
0000
0000
1000
0800
1000
0000
ENDCHAR
STARTCHAR CombCedilla
ENCODING 807
SWIDTH 1080 0
DWIDTH 9 0
BBX 9 18 0 -4
BITMAP
0000
0000
0000
0000
0000
0000
0000
0000
0000
0000
0000
0000
0000
0000
0800
0400
1800
0000
ENDCHAR
STARTCHAR CombOgonek
ENCODING 808
SWIDTH 1080 0
DWIDTH 9 0
BBX 9 18 0 -4
BITMAP
0000
0000
0000
0000
0000
0000
0000
0000
0000
0000
0000
0000
0000
0000
0400
0800
0600
0000
ENDCHAR
STARTCHAR CombLvline
ENCODING 809
SWIDTH 1080 0
DWIDTH 9 0
BBX 9 18 0 -4
BITMAP
0000
0000
0000
0000
0000
0000
0000
0000
0000
0000
0000
0000
0000
0000
0800
0800
0800
0000
ENDCHAR
STARTCHAR CombLbridge
ENCODING 810
SWIDTH 1080 0
DWIDTH 9 0
BBX 9 18 0 -4
BITMAP
0000
0000
0000
0000
0000
0000
0000
0000
0000
0000
0000
0000
0000
0000
0000
3c00
2400
0000
ENDCHAR
STARTCHAR CombLinvarch2
ENCODING 811
SWIDTH 1080 0
DWIDTH 9 0
BBX 9 18 0 -4
BITMAP
0000
0000
0000
0000
0000
0000
0000
0000
0000
0000
0000
0000
0000
0000
0000
4900
3600
0000
ENDCHAR
STARTCHAR CombLcaron
ENCODING 812
SWIDTH 1080 0
DWIDTH 9 0
BBX 9 18 0 -4
BITMAP
0000
0000
0000
0000
0000
0000
0000
0000
0000
0000
0000
0000
0000
0000
0000
2400
1800
0000
ENDCHAR
STARTCHAR CombLcircum
ENCODING 813
SWIDTH 1080 0
DWIDTH 9 0
BBX 9 18 0 -4
BITMAP
0000
0000
0000
0000
0000
0000
0000
0000
0000
0000
0000
0000
0000
0000
0000
1800
2400
0000
ENDCHAR
STARTCHAR CombLbreve
ENCODING 814
SWIDTH 1080 0
DWIDTH 9 0
BBX 9 18 0 -4
BITMAP
0000
0000
0000
0000
0000
0000
0000
0000
0000
0000
0000
0000
0000
0000
0000
2200
1c00
0000
ENDCHAR
STARTCHAR CombLinvbreve
ENCODING 815
SWIDTH 1080 0
DWIDTH 9 0
BBX 9 18 0 -4
BITMAP
0000
0000
0000
0000
0000
0000
0000
0000
0000
0000
0000
0000
0000
0000
0000
1c00
2200
0000
ENDCHAR
STARTCHAR CombLtilde
ENCODING 816
SWIDTH 1080 0
DWIDTH 9 0
BBX 9 18 0 -4
BITMAP
0000
0000
0000
0000
0000
0000
0000
0000
0000
0000
0000
0000
0000
0000
0000
1200
2c00
0000
ENDCHAR
STARTCHAR CombLmacron
ENCODING 817
SWIDTH 1080 0
DWIDTH 9 0
BBX 9 18 0 -4
BITMAP
0000
0000
0000
0000
0000
0000
0000
0000
0000
0000
0000
0000
0000
0000
0000
0000
3c00
0000
ENDCHAR
STARTCHAR CombLowline
ENCODING 818
SWIDTH 1080 0
DWIDTH 9 0
BBX 9 18 0 -4
BITMAP
0000
0000
0000
0000
0000
0000
0000
0000
0000
0000
0000
0000
0000
0000
0000
0000
ff80
0000
ENDCHAR
STARTCHAR CombLowline2
ENCODING 819
SWIDTH 1080 0
DWIDTH 9 0
BBX 9 18 0 -4
BITMAP
0000
0000
0000
0000
0000
0000
0000
0000
0000
0000
0000
0000
0000
0000
0000
ff80
0000
ff80
ENDCHAR
STARTCHAR CombMtilde
ENCODING 820
SWIDTH 1080 0
DWIDTH 9 0
BBX 9 18 0 -4
BITMAP
0000
0000
0000
0000
0000
0000
0000
7080
8f00
0000
0000
0000
0000
0000
0000
0000
0000
0000
ENDCHAR
STARTCHAR CombStrokeHSh
ENCODING 821
SWIDTH 1080 0
DWIDTH 9 0
BBX 9 18 0 -4
BITMAP
0000
0000
0000
0000
0000
0000
0000
0000
0000
7e00
0000
0000
0000
0000
0000
0000
0000
0000
ENDCHAR
STARTCHAR CombStrokeH
ENCODING 822
SWIDTH 1080 0
DWIDTH 9 0
BBX 9 18 0 -4
BITMAP
0000
0000
0000
0000
0000
0000
0000
0000
0000
ff00
0000
0000
0000
0000
0000
0000
0000
0000
ENDCHAR
STARTCHAR CombStrokeSh
ENCODING 823
SWIDTH 1080 0
DWIDTH 9 0
BBX 9 18 0 -4
BITMAP
0000
0000
0000
0000
0000
0200
0200
0400
0800
0800
1000
1000
2000
4000
4000
0000
0000
0000
ENDCHAR
STARTCHAR CombStroke
ENCODING 824
SWIDTH 1080 0
DWIDTH 9 0
BBX 9 18 0 -4
BITMAP
0000
0000
0200
0400
0400
0400
0800
0800
0800
1000
1000
2000
2000
2000
4000
0000
0000
0000
ENDCHAR
STARTCHAR CombLhalfringr
ENCODING 825
SWIDTH 1080 0
DWIDTH 9 0
BBX 9 18 0 -4
BITMAP
0000
0000
0000
0000
0000
0000
0000
0000
0000
0000
0000
0000
0000
0000
1000
0800
1000
0000
ENDCHAR
STARTCHAR CombLinvbridge
ENCODING 826
SWIDTH 1080 0
DWIDTH 9 0
BBX 9 18 0 -4
BITMAP
0000
0000
0000
0000
0000
0000
0000
0000
0000
0000
0000
0000
0000
0000
0000
2400
3c00
0000
ENDCHAR
STARTCHAR CombLsquare
ENCODING 827
SWIDTH 1080 0
DWIDTH 9 0
BBX 9 18 0 -4
BITMAP
0000
0000
0000
0000
0000
0000
0000
0000
0000
0000
0000
0000
0000
0000
0000
1c00
1400
1c00
ENDCHAR
STARTCHAR CombLseagull
ENCODING 828
SWIDTH 1080 0
DWIDTH 9 0
BBX 9 18 0 -4
BITMAP
0000
0000
0000
0000
0000
0000
0000
0000
0000
0000
0000
0000
0000
0000
0000
3600
4900
0000
ENDCHAR
STARTCHAR CombCross
ENCODING 829
SWIDTH 1080 0
DWIDTH 9 0
BBX 9 18 0 -4
BITMAP
0000
0000
2400
1800
2400
0000
0000
0000
0000
0000
0000
0000
0000
0000
0000
0000
0000
0000
ENDCHAR
STARTCHAR CombVtilde
ENCODING 830
SWIDTH 1080 0
DWIDTH 9 0
BBX 9 18 0 -4
BITMAP
0000
0800
1000
0800
1000
0000
0000
0000
0000
0000
0000
0000
0000
0000
0000
0000
0000
0000
ENDCHAR
STARTCHAR CombOverline2
ENCODING 831
SWIDTH 1080 0
DWIDTH 9 0
BBX 9 18 0 -4
BITMAP
ff80
0000
ff80
0000
0000
0000
0000
0000
0000
0000
0000
0000
0000
0000
0000
0000
0000
0000
ENDCHAR
STARTCHAR CombGraveTone
ENCODING 832
SWIDTH 1080 0
DWIDTH 9 0
BBX 9 18 0 -4
BITMAP
8000
4000
0000
0000
0000
0000
0000
0000
0000
0000
0000
0000
0000
0000
0000
0000
0000
0000
ENDCHAR
STARTCHAR CombAcuteTone
ENCODING 833
SWIDTH 1080 0
DWIDTH 9 0
BBX 9 18 0 -4
BITMAP
0080
0100
0000
0000
0000
0000
0000
0000
0000
0000
0000
0000
0000
0000
0000
0000
0000
0000
ENDCHAR
STARTCHAR CombGkPeri
ENCODING 834
SWIDTH 1080 0
DWIDTH 9 0
BBX 9 18 0 -4
BITMAP
0000
0000
0000
1c00
2200
0000
0000
0000
0000
0000
0000
0000
0000
0000
0000
0000
0000
0000
ENDCHAR
STARTCHAR CombGkKoronis
ENCODING 835
SWIDTH 1080 0
DWIDTH 9 0
BBX 9 18 0 -4
BITMAP
0000
0000
1800
0800
1000
0000
0000
0000
0000
0000
0000
0000
0000
0000
0000
0000
0000
0000
ENDCHAR
STARTCHAR CombGkDrssTonos
ENCODING 836
SWIDTH 1080 0
DWIDTH 9 0
BBX 9 18 0 -4
BITMAP
0000
0000
0800
4a00
5200
0000
0000
0000
0000
0000
0000
0000
0000
0000
0000
0000
0000
0000
ENDCHAR
STARTCHAR CombGkYpog
ENCODING 837
SWIDTH 1080 0
DWIDTH 9 0
BBX 9 18 0 -4
BITMAP
0000
0000
0000
0000
0000
0000
0000
0000
0000
0000
0000
0000
0000
0000
0800
0800
0800
0000
ENDCHAR
STARTCHAR CombBridge
ENCODING 838
SWIDTH 1080 0
DWIDTH 9 0
BBX 9 18 0 -4
BITMAP
0000
0000
0000
3c00
2400
0000
0000
0000
0000
0000
0000
0000
0000
0000
0000
0000
0000
0000
ENDCHAR
STARTCHAR CombLequals
ENCODING 839
SWIDTH 1080 0
DWIDTH 9 0
BBX 9 18 0 -4
BITMAP
0000
0000
0000
0000
0000
0000
0000
0000
0000
0000
0000
0000
0000
0000
0000
1c00
0000
1c00
ENDCHAR
STARTCHAR CombLvline2
ENCODING 840
SWIDTH 1080 0
DWIDTH 9 0
BBX 9 18 0 -4
BITMAP
0000
0000
0000
0000
0000
0000
0000
0000
0000
0000
0000
0000
0000
0000
2400
2400
2400
0000
ENDCHAR
STARTCHAR CombLangle
ENCODING 841
SWIDTH 1080 0
DWIDTH 9 0
BBX 9 18 0 -4
BITMAP
0000
0000
0000
0000
0000
0000
0000
0000
0000
0000
0000
0000
0000
0000
0000
1c00
0400
0000
ENDCHAR
STARTCHAR CombTildenot
ENCODING 842
SWIDTH 1080 0
DWIDTH 9 0
BBX 9 18 0 -4
BITMAP
0000
0800
3a00
5c00
1000
0000
0000
0000
0000
0000
0000
0000
0000
0000
0000
0000
0000
0000
ENDCHAR
STARTCHAR GkCapHet
ENCODING 880
SWIDTH 1080 0
DWIDTH 9 0
BBX 9 18 0 -4
BITMAP
0000
0000
0000
4000
4000
4000
4000
4000
7e00
4000
4000
4000
4000
4000
0000
0000
0000
0000
ENDCHAR
STARTCHAR GkSmlHet
ENCODING 881
SWIDTH 1080 0
DWIDTH 9 0
BBX 9 18 0 -4
BITMAP
0000
0000
0000
0000
0000
0000
6000
2000
2000
3e00
2000
2000
2000
2000
0000
0000
0000
0000
ENDCHAR
STARTCHAR GkCapSamArch
ENCODING 882
SWIDTH 1080 0
DWIDTH 9 0
BBX 9 18 0 -4
BITMAP
0000
0000
0000
7f00
4900
4900
4900
4900
0800
0800
0800
0800
0800
0800
0000
0000
0000
0000
ENDCHAR
STARTCHAR GkSmlSamArch
ENCODING 883
SWIDTH 1080 0
DWIDTH 9 0
BBX 9 18 0 -4
BITMAP
0000
0000
0000
3e00
2a00
2a00
2a00
0800
0800
0800
0800
0800
0800
0800
0000
0000
0000
0000
ENDCHAR
STARTCHAR PGkNumsignU
ENCODING 884
SWIDTH 1080 0
DWIDTH 9 0
BBX 9 18 0 -4
BITMAP
0000
0000
0400
0c00
0800
1000
0000
0000
0000
0000
0000
0000
0000
0000
0000
0000
0000
0000
ENDCHAR
STARTCHAR PGkNumsignL
ENCODING 885
SWIDTH 1080 0
DWIDTH 9 0
BBX 9 18 0 -4
BITMAP
0000
0000
0000
0000
0000
0000
0000
0000
0000
0000
0000
0000
0400
0c00
0800
1000
0000
0000
ENDCHAR
STARTCHAR GkCapDigPamph
ENCODING 886
SWIDTH 1080 0
DWIDTH 9 0
BBX 9 18 0 -4
BITMAP
0000
0000
0000
4200
4200
4200
4600
4a00
4a00
5200
5200
6200
4200
4200
0000
0000
0000
0000
ENDCHAR
STARTCHAR GkSmlDigPamph
ENCODING 887
SWIDTH 1080 0
DWIDTH 9 0
BBX 9 18 0 -4
BITMAP
0000
0000
0000
0000
0000
0000
4200
2200
2600
2a00
2a00
3200
2200
2100
0000
0000
0000
0000
ENDCHAR
STARTCHAR AccGkYpog
ENCODING 890
SWIDTH 1080 0
DWIDTH 9 0
BBX 9 18 0 -4
BITMAP
0000
0000
0000
0000
0000
0000
0000
0000
0000
0000
0000
0000
0000
1000
1000
1000
0800
0000
ENDCHAR
STARTCHAR GkSmlSigLunateRev
ENCODING 891
SWIDTH 1080 0
DWIDTH 9 0
BBX 9 18 0 -4
BITMAP
0000
0000
0000
0000
0000
0000
3800
4400
0200
0200
0200
0200
4400
3800
0000
0000
0000
0000
ENDCHAR
STARTCHAR GkSmlSigLunateDot
ENCODING 892
SWIDTH 1080 0
DWIDTH 9 0
BBX 9 18 0 -4
BITMAP
0000
0000
0000
0000
0000
0000
1c00
2200
4000
4800
4800
4000
2200
1c00
0000
0000
0000
0000
ENDCHAR
STARTCHAR GkSmlSigLunateRevDot
ENCODING 893
SWIDTH 1080 0
DWIDTH 9 0
BBX 9 18 0 -4
BITMAP
0000
0000
0000
0000
0000
0000
3800
4400
0200
1200
1200
0200
4400
3800
0000
0000
0000
0000
ENDCHAR
STARTCHAR PGkQuestion
ENCODING 894
SWIDTH 1080 0
DWIDTH 9 0
BBX 9 18 0 -4
BITMAP
0000
0000
0000
0000
0000
0000
0000
0000
1800
1800
0000
0000
1800
1800
1000
2000
0000
0000
ENDCHAR
STARTCHAR AccGkTonos
ENCODING 900
SWIDTH 1080 0
DWIDTH 9 0
BBX 9 18 0 -4
BITMAP
0000
0000
0000
0400
0800
1000
0000
0000
0000
0000
0000
0000
0000
0000
0000
0000
0000
0000
ENDCHAR
STARTCHAR AccGkDrssTonos
ENCODING 901
SWIDTH 1080 0
DWIDTH 9 0
BBX 9 18 0 -4
BITMAP
0000
0000
0000
0800
4a00
5200
0000
0000
0000
0000
0000
0000
0000
0000
0000
0000
0000
0000
ENDCHAR
STARTCHAR GkCapAlpTon
ENCODING 902
SWIDTH 1080 0
DWIDTH 9 0
BBX 9 18 0 -4
BITMAP
0000
4000
4000
8800
0800
0800
1400
1400
2200
2200
3e00
4100
4100
4100
0000
0000
0000
0000
ENDCHAR
STARTCHAR PMiddleDotGk
ENCODING 903
SWIDTH 1080 0
DWIDTH 9 0
BBX 9 18 0 -4
BITMAP
0000
0000
0000
0000
0000
0000
1800
1800
0000
0000
0000
0000
0000
0000
0000
0000
0000
0000
ENDCHAR
STARTCHAR GkCapEpsTon
ENCODING 904
SWIDTH 1080 0
DWIDTH 9 0
BBX 9 18 0 -4
BITMAP
4000
4000
8000
3f00
2000
2000
2000
2000
3c00
2000
2000
2000
2000
3f00
0000
0000
0000
0000
ENDCHAR
STARTCHAR GkCapEtaTon
ENCODING 905
SWIDTH 1080 0
DWIDTH 9 0
BBX 9 18 0 -4
BITMAP
4000
4000
8000
2100
2100
2100
2100
2100
3f00
2100
2100
2100
2100
2100
0000
0000
0000
0000
ENDCHAR
STARTCHAR GkCapIotTon
ENCODING 906
SWIDTH 1080 0
DWIDTH 9 0
BBX 9 18 0 -4
BITMAP
0000
4000
4000
9f00
0400
0400
0400
0400
0400
0400
0400
0400
0400
1f00
0000
0000
0000
0000
ENDCHAR
STARTCHAR GkCapOmiTon
ENCODING 908
SWIDTH 1080 0
DWIDTH 9 0
BBX 9 18 0 -4
BITMAP
0000
4000
4000
9e00
2100
2100
2100
2100
2100
2100
2100
2100
2100
1e00
0000
0000
0000
0000
ENDCHAR
STARTCHAR GkCapUpsTon
ENCODING 910
SWIDTH 1080 0
DWIDTH 9 0
BBX 9 18 0 -4
BITMAP
4000
4000
8000
0000
4100
2200
2200
1400
1400
0800
0800
0800
0800
0800
0000
0000
0000
0000
ENDCHAR
STARTCHAR GkCapOmeTon
ENCODING 911
SWIDTH 1080 0
DWIDTH 9 0
BBX 9 18 0 -4
BITMAP
0000
4000
4000
9c00
2200
4100
4100
4100
4100
4100
2200
1400
1400
7700
0000
0000
0000
0000
ENDCHAR
STARTCHAR GkSmlIotDrssTon
ENCODING 912
SWIDTH 1080 0
DWIDTH 9 0
BBX 9 18 0 -4
BITMAP
0000
0000
0800
4a00
5200
0000
1000
1000
1000
1000
1000
1000
1200
0c00
0000
0000
0000
0000
ENDCHAR
STARTCHAR GkCapAlp
ENCODING 913
SWIDTH 1080 0
DWIDTH 9 0
BBX 9 18 0 -4
BITMAP
0000
0000
0000
0800
0800
0800
1400
1400
2200
2200
3e00
4100
4100
4100
0000
0000
0000
0000
ENDCHAR
STARTCHAR GkCapBet
ENCODING 914
SWIDTH 1080 0
DWIDTH 9 0
BBX 9 18 0 -4
BITMAP
0000
0000
0000
7c00
4200
4200
4200
4400
7c00
4200
4200
4200
4200
7c00
0000
0000
0000
0000
ENDCHAR
STARTCHAR GkCapGam
ENCODING 915
SWIDTH 1080 0
DWIDTH 9 0
BBX 9 18 0 -4
BITMAP
0000
0000
0000
3f00
2000
2000
2000
2000
2000
2000
2000
2000
2000
2000
0000
0000
0000
0000
ENDCHAR
STARTCHAR GkCapDel
ENCODING 916
SWIDTH 1080 0
DWIDTH 9 0
BBX 9 18 0 -4
BITMAP
0000
0000
0000
0800
0800
0800
1400
1400
2200
2200
2200
4100
4100
7f00
0000
0000
0000
0000
ENDCHAR
STARTCHAR GkCapEps
ENCODING 917
SWIDTH 1080 0
DWIDTH 9 0
BBX 9 18 0 -4
BITMAP
0000
0000
0000
7e00
4000
4000
4000
4000
7800
4000
4000
4000
4000
7e00
0000
0000
0000
0000
ENDCHAR
STARTCHAR GkCapZet
ENCODING 918
SWIDTH 1080 0
DWIDTH 9 0
BBX 9 18 0 -4
BITMAP
0000
0000
0000
7e00
0200
0400
0400
0800
1000
1000
2000
4000
4000
7e00
0000
0000
0000
0000
ENDCHAR
STARTCHAR GkCapEta
ENCODING 919
SWIDTH 1080 0
DWIDTH 9 0
BBX 9 18 0 -4
BITMAP
0000
0000
0000
4200
4200
4200
4200
4200
7e00
4200
4200
4200
4200
4200
0000
0000
0000
0000
ENDCHAR
STARTCHAR GkCapThe
ENCODING 920
SWIDTH 1080 0
DWIDTH 9 0
BBX 9 18 0 -4
BITMAP
0000
0000
0000
3c00
4200
4200
4200
4200
7e00
4200
4200
4200
4200
3c00
0000
0000
0000
0000
ENDCHAR
STARTCHAR GkCapIot
ENCODING 921
SWIDTH 1080 0
DWIDTH 9 0
BBX 9 18 0 -4
BITMAP
0000
0000
0000
3e00
0800
0800
0800
0800
0800
0800
0800
0800
0800
3e00
0000
0000
0000
0000
ENDCHAR
STARTCHAR GkCapKap
ENCODING 922
SWIDTH 1080 0
DWIDTH 9 0
BBX 9 18 0 -4
BITMAP
0000
0000
0000
4200
4200
4400
4400
4800
5000
6800
4400
4400
4200
4200
0000
0000
0000
0000
ENDCHAR
STARTCHAR GkCapLam
ENCODING 923
SWIDTH 1080 0
DWIDTH 9 0
BBX 9 18 0 -4
BITMAP
0000
0000
0000
0800
0800
0800
1400
1400
2200
2200
2200
4100
4100
4100
0000
0000
0000
0000
ENDCHAR
STARTCHAR GkCapMu
ENCODING 924
SWIDTH 1080 0
DWIDTH 9 0
BBX 9 18 0 -4
BITMAP
0000
0000
0000
4100
4100
6300
6300
5500
5500
4900
4900
4100
4100
4100
0000
0000
0000
0000
ENDCHAR
STARTCHAR GkCapNu
ENCODING 925
SWIDTH 1080 0
DWIDTH 9 0
BBX 9 18 0 -4
BITMAP
0000
0000
0000
4200
4200
6200
6200
5200
4a00
4a00
4600
4600
4200
4200
0000
0000
0000
0000
ENDCHAR
STARTCHAR GkCapXi
ENCODING 926
SWIDTH 1080 0
DWIDTH 9 0
BBX 9 18 0 -4
BITMAP
0000
0000
0000
7e00
4200
0000
0000
0000
3c00
0000
0000
0000
4200
7e00
0000
0000
0000
0000
ENDCHAR
STARTCHAR GkCapOmi
ENCODING 927
SWIDTH 1080 0
DWIDTH 9 0
BBX 9 18 0 -4
BITMAP
0000
0000
0000
3c00
4200
4200
4200
4200
4200
4200
4200
4200
4200
3c00
0000
0000
0000
0000
ENDCHAR
STARTCHAR GkCapPi
ENCODING 928
SWIDTH 1080 0
DWIDTH 9 0
BBX 9 18 0 -4
BITMAP
0000
0000
0000
7e00
4200
4200
4200
4200
4200
4200
4200
4200
4200
4200
0000
0000
0000
0000
ENDCHAR
STARTCHAR GkCapRho
ENCODING 929
SWIDTH 1080 0
DWIDTH 9 0
BBX 9 18 0 -4
BITMAP
0000
0000
0000
7c00
4200
4200
4200
4200
7c00
4000
4000
4000
4000
4000
0000
0000
0000
0000
ENDCHAR
STARTCHAR GkCapSig
ENCODING 931
SWIDTH 1080 0
DWIDTH 9 0
BBX 9 18 0 -4
BITMAP
0000
0000
0000
7e00
4000
2000
1000
0800
0400
0800
1000
2000
4000
7e00
0000
0000
0000
0000
ENDCHAR
STARTCHAR GkCapTau
ENCODING 932
SWIDTH 1080 0
DWIDTH 9 0
BBX 9 18 0 -4
BITMAP
0000
0000
0000
7f00
0800
0800
0800
0800
0800
0800
0800
0800
0800
0800
0000
0000
0000
0000
ENDCHAR
STARTCHAR GkCapUps
ENCODING 933
SWIDTH 1080 0
DWIDTH 9 0
BBX 9 18 0 -4
BITMAP
0000
0000
0000
4100
4100
2200
2200
1400
1400
0800
0800
0800
0800
0800
0000
0000
0000
0000
ENDCHAR
STARTCHAR GkCapPhi
ENCODING 934
SWIDTH 1080 0
DWIDTH 9 0
BBX 9 18 0 -4
BITMAP
0000
0000
0000
0800
1c00
2a00
4900
4900
4900
4900
4900
2a00
1c00
0800
0000
0000
0000
0000
ENDCHAR
STARTCHAR GkCapChi
ENCODING 935
SWIDTH 1080 0
DWIDTH 9 0
BBX 9 18 0 -4
BITMAP
0000
0000
0000
4200
4200
2400
2400
1800
1800
1800
2400
2400
4200
4200
0000
0000
0000
0000
ENDCHAR
STARTCHAR GkCapPsi
ENCODING 936
SWIDTH 1080 0
DWIDTH 9 0
BBX 9 18 0 -4
BITMAP
0000
0000
0000
4900
4900
4900
4900
4900
4900
3e00
0800
0800
0800
0800
0000
0000
0000
0000
ENDCHAR
STARTCHAR GkCapOme
ENCODING 937
SWIDTH 1080 0
DWIDTH 9 0
BBX 9 18 0 -4
BITMAP
0000
0000
0000
1c00
2200
4100
4100
4100
4100
4100
2200
1400
1400
7700
0000
0000
0000
0000
ENDCHAR
STARTCHAR GkCapIotDrss
ENCODING 938
SWIDTH 1080 0
DWIDTH 9 0
BBX 9 18 0 -4
BITMAP
1200
1200
0000
3e00
0800
0800
0800
0800
0800
0800
0800
0800
0800
3e00
0000
0000
0000
0000
ENDCHAR
STARTCHAR GkCapUpsDrss
ENCODING 939
SWIDTH 1080 0
DWIDTH 9 0
BBX 9 18 0 -4
BITMAP
1200
1200
0000
4100
4100
2200
2200
1400
1400
0800
0800
0800
0800
0800
0000
0000
0000
0000
ENDCHAR
STARTCHAR GkSmlAlpTon
ENCODING 940
SWIDTH 1080 0
DWIDTH 9 0
BBX 9 18 0 -4
BITMAP
0000
0000
0800
0800
1000
0000
1900
2500
4200
4200
4200
4200
2500
1900
0000
0000
0000
0000
ENDCHAR
STARTCHAR GkSmlEpsTon
ENCODING 941
SWIDTH 1080 0
DWIDTH 9 0
BBX 9 18 0 -4
BITMAP
0000
0000
0800
0800
1000
0000
3c00
4200
4000
3000
4000
4000
4200
3c00
0000
0000
0000
0000
ENDCHAR
STARTCHAR GkSmlEtaTon
ENCODING 942
SWIDTH 1080 0
DWIDTH 9 0
BBX 9 18 0 -4
BITMAP
0000
0000
0800
0800
1000
0000
5c00
6200
4200
4200
4200
4200
4200
4200
0200
0200
0200
0000
ENDCHAR
STARTCHAR GkSmlIotTon
ENCODING 943
SWIDTH 1080 0
DWIDTH 9 0
BBX 9 18 0 -4
BITMAP
0000
0000
0800
0800
1000
0000
1000
1000
1000
1000
1000
1000
1200
0c00
0000
0000
0000
0000
ENDCHAR
STARTCHAR GkSmlUpsDrssTon
ENCODING 944
SWIDTH 1080 0
DWIDTH 9 0
BBX 9 18 0 -4
BITMAP
0000
0000
0800
4a00
5200
0000
4200
4200
4200
4200
4200
4200
4200
3c00
0000
0000
0000
0000
ENDCHAR
STARTCHAR GkSmlAlp
ENCODING 945
SWIDTH 1080 0
DWIDTH 9 0
BBX 9 18 0 -4
BITMAP
0000
0000
0000
0000
0000
0000
1900
2500
4200
4200
4200
4200
2500
1900
0000
0000
0000
0000
ENDCHAR
STARTCHAR GkSmlBet
ENCODING 946
SWIDTH 1080 0
DWIDTH 9 0
BBX 9 18 0 -4
BITMAP
0000
0000
0000
3800
4400
4400
4400
5800
4400
4200
4200
4200
6200
5c00
4000
4000
4000
0000
ENDCHAR
STARTCHAR GkSmlGam
ENCODING 947
SWIDTH 1080 0
DWIDTH 9 0
BBX 9 18 0 -4
BITMAP
0000
0000
0000
0000
0000
0000
4200
4200
2200
2200
1400
1400
0800
0800
0800
0800
0800
0000
ENDCHAR
STARTCHAR GkSmlDel
ENCODING 948
SWIDTH 1080 0
DWIDTH 9 0
BBX 9 18 0 -4
BITMAP
0000
0000
0000
1c00
2000
1000
1800
2400
4200
4200
4200
4200
2400
1800
0000
0000
0000
0000
ENDCHAR
STARTCHAR GkSmlEps
ENCODING 949
SWIDTH 1080 0
DWIDTH 9 0
BBX 9 18 0 -4
BITMAP
0000
0000
0000
0000
0000
0000
3c00
4200
4000
3000
4000
4000
4200
3c00
0000
0000
0000
0000
ENDCHAR
STARTCHAR GkSmlZet
ENCODING 950
SWIDTH 1080 0
DWIDTH 9 0
BBX 9 18 0 -4
BITMAP
0000
0000
0000
7e00
0400
0800
0800
1000
2000
2000
4000
4000
4000
3c00
0200
0400
0000
0000
ENDCHAR
STARTCHAR GkSmlEta
ENCODING 951
SWIDTH 1080 0
DWIDTH 9 0
BBX 9 18 0 -4
BITMAP
0000
0000
0000
0000
0000
0000
5c00
6200
4200
4200
4200
4200
4200
4200
0200
0200
0200
0000
ENDCHAR
STARTCHAR GkSmlThe
ENCODING 952
SWIDTH 1080 0
DWIDTH 9 0
BBX 9 18 0 -4
BITMAP
0000
0000
0000
1800
2400
4200
4200
4200
7e00
4200
4200
4200
2400
1800
0000
0000
0000
0000
ENDCHAR
STARTCHAR GkSmlIot
ENCODING 953
SWIDTH 1080 0
DWIDTH 9 0
BBX 9 18 0 -4
BITMAP
0000
0000
0000
0000
0000
0000
1000
1000
1000
1000
1000
1000
1200
0c00
0000
0000
0000
0000
ENDCHAR
STARTCHAR GkSmlKap
ENCODING 954
SWIDTH 1080 0
DWIDTH 9 0
BBX 9 18 0 -4
BITMAP
0000
0000
0000
0000
0000
0000
4200
4400
4800
7000
5000
4800
4400
4200
0000
0000
0000
0000
ENDCHAR
STARTCHAR GkSmlLam
ENCODING 955
SWIDTH 1080 0
DWIDTH 9 0
BBX 9 18 0 -4
BITMAP
0000
0000
0000
2000
2000
1000
1000
0800
1800
1400
2400
2400
4200
4200
0000
0000
0000
0000
ENDCHAR
STARTCHAR GkSmlMu
ENCODING 956
SWIDTH 1080 0
DWIDTH 9 0
BBX 9 18 0 -4
BITMAP
0000
0000
0000
0000
0000
0000
4200
4200
4200
4200
4200
4200
6600
5900
4000
4000
4000
0000
ENDCHAR
STARTCHAR GkSmlNu
ENCODING 957
SWIDTH 1080 0
DWIDTH 9 0
BBX 9 18 0 -4
BITMAP
0000
0000
0000
0000
0000
0000
4200
4200
2200
2200
1400
1400
1800
0800
0000
0000
0000
0000
ENDCHAR
STARTCHAR GkSmlXi
ENCODING 958
SWIDTH 1080 0
DWIDTH 9 0
BBX 9 18 0 -4
BITMAP
0000
0000
0000
7e00
2000
4000
4000
4000
3c00
2000
4000
4000
4000
3c00
0200
0400
0000
0000
ENDCHAR
STARTCHAR GkSmlOmi
ENCODING 959
SWIDTH 1080 0
DWIDTH 9 0
BBX 9 18 0 -4
BITMAP
0000
0000
0000
0000
0000
0000
3c00
4200
4200
4200
4200
4200
4200
3c00
0000
0000
0000
0000
ENDCHAR
STARTCHAR GkSmlPi
ENCODING 960
SWIDTH 1080 0
DWIDTH 9 0
BBX 9 18 0 -4
BITMAP
0000
0000
0000
0000
0000
0000
7f00
2200
2200
2200
2200
2200
2200
2200
0000
0000
0000
0000
ENDCHAR
STARTCHAR GkSmlRho
ENCODING 961
SWIDTH 1080 0
DWIDTH 9 0
BBX 9 18 0 -4
BITMAP
0000
0000
0000
0000
0000
0000
3c00
4200
4200
4200
4200
4200
6200
5c00
4000
4000
4000
0000
ENDCHAR
STARTCHAR GkSmlSigTrm
ENCODING 962
SWIDTH 1080 0
DWIDTH 9 0
BBX 9 18 0 -4
BITMAP
0000
0000
0000
0000
0000
0000
1c00
2200
4000
4000
4000
4000
2000
1c00
0200
0400
0000
0000
ENDCHAR
STARTCHAR GkSmlSig
ENCODING 963
SWIDTH 1080 0
DWIDTH 9 0
BBX 9 18 0 -4
BITMAP
0000
0000
0000
0000
0000
0000
3f00
4800
8400
8400
8400
8400
4800
3000
0000
0000
0000
0000
ENDCHAR
STARTCHAR GkSmlTau
ENCODING 964
SWIDTH 1080 0
DWIDTH 9 0
BBX 9 18 0 -4
BITMAP
0000
0000
0000
0000
0000
0000
7f00
0800
0800
0800
0800
0800
0800
0600
0000
0000
0000
0000
ENDCHAR
STARTCHAR GkSmlUps
ENCODING 965
SWIDTH 1080 0
DWIDTH 9 0
BBX 9 18 0 -4
BITMAP
0000
0000
0000
0000
0000
0000
4200
4200
4200
4200
4200
4200
4200
3c00
0000
0000
0000
0000
ENDCHAR
STARTCHAR GkSmlPhi
ENCODING 966
SWIDTH 1080 0
DWIDTH 9 0
BBX 9 18 0 -4
BITMAP
0000
0000
0000
0000
0000
0000
0600
4900
4900
4900
4900
4900
2a00
1c00
0800
0800
0800
0000
ENDCHAR
STARTCHAR GkSmlChi
ENCODING 967
SWIDTH 1080 0
DWIDTH 9 0
BBX 9 18 0 -4
BITMAP
0000
0000
0000
0000
0000
0000
4200
4200
2400
2400
1800
1800
1800
2400
2400
4200
4200
0000
ENDCHAR
STARTCHAR GkSmlPsi
ENCODING 968
SWIDTH 1080 0
DWIDTH 9 0
BBX 9 18 0 -4
BITMAP
0000
0000
0000
0800
0800
0800
4900
4900
4900
4900
4900
4900
2a00
1c00
0800
0800
0800
0000
ENDCHAR
STARTCHAR GkSmlOme
ENCODING 969
SWIDTH 1080 0
DWIDTH 9 0
BBX 9 18 0 -4
BITMAP
0000
0000
0000
0000
0000
0000
2200
4100
4100
4900
4900
4900
4900
3600
0000
0000
0000
0000
ENDCHAR
STARTCHAR GkSmlIotDrss
ENCODING 970
SWIDTH 1080 0
DWIDTH 9 0
BBX 9 18 0 -4
BITMAP
0000
0000
0000
2400
2400
0000
1000
1000
1000
1000
1000
1000
1200
0c00
0000
0000
0000
0000
ENDCHAR
STARTCHAR GkSmlUpsDrss
ENCODING 971
SWIDTH 1080 0
DWIDTH 9 0
BBX 9 18 0 -4
BITMAP
0000
0000
0000
2400
2400
0000
4200
4200
4200
4200
4200
4200
4200
3c00
0000
0000
0000
0000
ENDCHAR
STARTCHAR GkSmlOmiTon
ENCODING 972
SWIDTH 1080 0
DWIDTH 9 0
BBX 9 18 0 -4
BITMAP
0000
0000
0800
0800
1000
0000
3c00
4200
4200
4200
4200
4200
4200
3c00
0000
0000
0000
0000
ENDCHAR
STARTCHAR GkSmlUpsTon
ENCODING 973
SWIDTH 1080 0
DWIDTH 9 0
BBX 9 18 0 -4
BITMAP
0000
0000
0800
0800
1000
0000
4200
4200
4200
4200
4200
4200
4200
3c00
0000
0000
0000
0000
ENDCHAR
STARTCHAR GkSmlOmeTon
ENCODING 974
SWIDTH 1080 0
DWIDTH 9 0
BBX 9 18 0 -4
BITMAP
0000
0000
0400
0400
0800
0000
2200
4100
4100
4900
4900
4900
4900
3600
0000
0000
0000
0000
ENDCHAR
STARTCHAR SGkCapKai
ENCODING 975
SWIDTH 1080 0
DWIDTH 9 0
BBX 9 18 0 -4
BITMAP
0000
0000
0000
4200
4200
4400
4400
4800
5000
6800
4400
4200
4200
4400
0800
1000
0000
0000
ENDCHAR
STARTCHAR GkSmlBetAlt
ENCODING 976
SWIDTH 1080 0
DWIDTH 9 0
BBX 9 18 0 -4
BITMAP
0000
0000
0000
1800
2400
7800
4000
5800
6400
4200
4200
4200
2400
1800
0000
0000
0000
0000
ENDCHAR
STARTCHAR GkSmlTheAlt
ENCODING 977
SWIDTH 1080 0
DWIDTH 9 0
BBX 9 18 0 -4
BITMAP
0000
0000
0000
1800
2400
2200
2200
1f00
0200
0200
4200
2200
2400
1800
0000
0000
0000
0000
ENDCHAR
STARTCHAR GkCapUpsAlt
ENCODING 978
SWIDTH 1080 0
DWIDTH 9 0
BBX 9 18 0 -4
BITMAP
0000
0000
0000
6300
5500
1400
0800
0800
0800
0800
0800
0800
0800
0800
0000
0000
0000
0000
ENDCHAR
STARTCHAR GkCapUpsAltTon
ENCODING 979
SWIDTH 1080 0
DWIDTH 9 0
BBX 9 18 0 -4
BITMAP
4000
4000
8000
0000
6300
5500
1400
0800
0800
0800
0800
0800
0800
0800
0000
0000
0000
0000
ENDCHAR
STARTCHAR GkCapUpsAltDrss
ENCODING 980
SWIDTH 1080 0
DWIDTH 9 0
BBX 9 18 0 -4
BITMAP
1200
1200
0000
6300
5500
1400
0800
0800
0800
0800
0800
0800
0800
0800
0000
0000
0000
0000
ENDCHAR
STARTCHAR GkSmlPhiAlt
ENCODING 981
SWIDTH 1080 0
DWIDTH 9 0
BBX 9 18 0 -4
BITMAP
0000
0000
0000
0800
0800
0800
3e00
4900
4900
4900
4900
4900
4900
3e00
0800
0800
0800
0000
ENDCHAR
STARTCHAR GkSmlPiAlt
ENCODING 982
SWIDTH 1080 0
DWIDTH 9 0
BBX 9 18 0 -4
BITMAP
0000
0000
0000
0000
0000
0000
7f00
4200
4100
4100
4900
4900
4900
3600
0000
0000
0000
0000
ENDCHAR
STARTCHAR SGkKai
ENCODING 983
SWIDTH 1080 0
DWIDTH 9 0
BBX 9 18 0 -4
BITMAP
0000
0000
0000
0000
0000
0000
4200
4400
4800
7000
5000
4800
4400
4200
0200
3c00
4000
0000
ENDCHAR
STARTCHAR GkCapKopAlt1
ENCODING 984
SWIDTH 1080 0
DWIDTH 9 0
BBX 9 18 0 -4
BITMAP
0000
0000
0000
1c00
2200
4100
4100
4100
4100
2200
1c00
0800
0800
0800
0000
0000
0000
0000
ENDCHAR
STARTCHAR GkSmlKopAlt1
ENCODING 985
SWIDTH 1080 0
DWIDTH 9 0
BBX 9 18 0 -4
BITMAP
0000
0000
0000
0000
0000
0000
1c00
2200
4100
4100
4100
4100
2200
1c00
0800
0800
0800
0000
ENDCHAR
STARTCHAR GkCapSti
ENCODING 986
SWIDTH 1080 0
DWIDTH 9 0
BBX 9 18 0 -4
BITMAP
0000
0000
0000
1e00
2000
4000
4000
4000
4000
3c00
0400
0400
0400
0400
0000
0000
0000
0000
ENDCHAR
STARTCHAR GkSmlSti
ENCODING 987
SWIDTH 1080 0
DWIDTH 9 0
BBX 9 18 0 -4
BITMAP
0000
0000
0000
0000
0000
0100
1e00
2000
4000
4000
4000
4000
4000
3800
0400
0800
0000
0000
ENDCHAR
STARTCHAR GkCapDig
ENCODING 988
SWIDTH 1080 0
DWIDTH 9 0
BBX 9 18 0 -4
BITMAP
0000
0000
0000
3f00
2000
2000
2000
2000
3c00
2000
2000
2000
2000
2000
0000
0000
0000
0000
ENDCHAR
STARTCHAR GkSmlDig
ENCODING 989
SWIDTH 1080 0
DWIDTH 9 0
BBX 9 18 0 -4
BITMAP
0000
0000
0000
0000
0000
0000
3e00
4000
4000
4000
4000
7800
4000
4000
4000
4000
4000
0000
ENDCHAR
STARTCHAR GkCapKop
ENCODING 990
SWIDTH 1080 0
DWIDTH 9 0
BBX 9 18 0 -4
BITMAP
0000
0000
0000
1000
1000
2000
2000
4000
7e00
0200
0400
0400
0800
0800
0000
0000
0000
0000
ENDCHAR
STARTCHAR GkSmlKop
ENCODING 991
SWIDTH 1080 0
DWIDTH 9 0
BBX 9 18 0 -4
BITMAP
0000
0000
0000
8000
4000
4000
4000
4200
4600
4a00
5200
6200
4200
0200
0200
0200
0200
0000
ENDCHAR
STARTCHAR GkCapSam
ENCODING 992
SWIDTH 1080 0
DWIDTH 9 0
BBX 9 18 0 -4
BITMAP
0000
0000
0000
0800
0800
0800
1400
1400
2200
2600
2600
4900
4900
4900
0000
0000
0000
0000
ENDCHAR
STARTCHAR GkSmlSam
ENCODING 993
SWIDTH 1080 0
DWIDTH 9 0
BBX 9 18 0 -4
BITMAP
0000
0000
0000
4000
2000
1000
0800
0800
1400
2400
4400
0a00
1200
2200
0200
0200
0200
0000
ENDCHAR
STARTCHAR GkSmlKapAlt
ENCODING 1008
SWIDTH 1080 0
DWIDTH 9 0
BBX 9 18 0 -4
BITMAP
0000
0000
0000
0000
0000
0000
4200
4200
2400
2c00
3400
2400
4200
4200
0000
0000
0000
0000
ENDCHAR
STARTCHAR GkSmlRhoAlt
ENCODING 1009
SWIDTH 1080 0
DWIDTH 9 0
BBX 9 18 0 -4
BITMAP
0000
0000
0000
0000
0000
0000
3c00
4200
4200
4200
4200
4200
6200
5c00
4000
4000
3c00
0000
ENDCHAR
STARTCHAR GkSmlSigLunate
ENCODING 1010
SWIDTH 1080 0
DWIDTH 9 0
BBX 9 18 0 -4
BITMAP
0000
0000
0000
0000
0000
0000
1c00
2200
4000
4000
4000
4000
2200
1c00
0000
0000
0000
0000
ENDCHAR
STARTCHAR GkSmlYot
ENCODING 1011
SWIDTH 1080 0
DWIDTH 9 0
BBX 9 18 0 -4
BITMAP
0000
0000
0400
0400
0000
0000
1c00
0400
0400
0400
0400
0400
0400
0400
4400
4400
3800
0000
ENDCHAR
STARTCHAR GkCapTheAlt
ENCODING 1012
SWIDTH 1080 0
DWIDTH 9 0
BBX 9 18 0 -4
BITMAP
0000
0000
0000
3c00
4200
4200
4200
4200
7e00
4200
4200
4200
4200
3c00
0000
0000
0000
0000
ENDCHAR
STARTCHAR GkSmlEpsAlt
ENCODING 1013
SWIDTH 1080 0
DWIDTH 9 0
BBX 9 18 0 -4
BITMAP
0000
0000
0000
0000
0000
0000
1e00
2000
4000
7c00
4000
4000
2000
1e00
0000
0000
0000
0000
ENDCHAR
STARTCHAR GkSmlEpsRevAlt
ENCODING 1014
SWIDTH 1080 0
DWIDTH 9 0
BBX 9 18 0 -4
BITMAP
0000
0000
0000
0000
0000
0000
7800
0400
0200
3e00
0200
0200
0400
7800
0000
0000
0000
0000
ENDCHAR
STARTCHAR GkCapSho
ENCODING 1015
SWIDTH 1080 0
DWIDTH 9 0
BBX 9 18 0 -4
BITMAP
0000
0000
0000
4000
4000
4000
7c00
4200
4200
4200
7c00
4000
4000
4000
0000
0000
0000
0000
ENDCHAR
STARTCHAR GkSmlSho
ENCODING 1016
SWIDTH 1080 0
DWIDTH 9 0
BBX 9 18 0 -4
BITMAP
0000
0000
0000
4000
4000
4000
5c00
6200
4200
4200
4200
4200
6200
5c00
4000
4000
4000
0000
ENDCHAR
STARTCHAR GkCapSigLunate
ENCODING 1017
SWIDTH 1080 0
DWIDTH 9 0
BBX 9 18 0 -4
BITMAP
0000
0000
0000
1c00
2200
4000
4000
4000
4000
4000
4000
4000
2200
1c00
0000
0000
0000
0000
ENDCHAR
STARTCHAR GkCapSan
ENCODING 1018
SWIDTH 1080 0
DWIDTH 9 0
BBX 9 18 0 -4
BITMAP
0000
0000
0000
2200
2200
3600
4900
4900
4100
4100
4100
4100
4100
0000
0000
0000
0000
0000
ENDCHAR
STARTCHAR GkSmlSan
ENCODING 1019
SWIDTH 1080 0
DWIDTH 9 0
BBX 9 18 0 -4
BITMAP
0000
0000
0000
0000
0000
0000
4200
6600
5a00
4200
4200
4200
4200
4300
4000
4000
4000
0000
ENDCHAR
STARTCHAR GkSmlRhoStroke
ENCODING 1020
SWIDTH 1080 0
DWIDTH 9 0
BBX 9 18 0 -4
BITMAP
0000
0000
0000
0000
0000
0000
3c00
4200
4200
4200
4200
4200
6200
5c00
4000
fc00
4000
0000
ENDCHAR
STARTCHAR GkCapSigLunateRev
ENCODING 1021
SWIDTH 1080 0
DWIDTH 9 0
BBX 9 18 0 -4
BITMAP
0000
0000
0000
3800
4400
0200
0200
0200
0200
0200
0200
0200
4400
3800
0000
0000
0000
0000
ENDCHAR
STARTCHAR GkCapSigLunateDot
ENCODING 1022
SWIDTH 1080 0
DWIDTH 9 0
BBX 9 18 0 -4
BITMAP
0000
0000
0000
1c00
2200
4000
4000
4800
4800
4000
4000
4000
2200
1c00
0000
0000
0000
0000
ENDCHAR
STARTCHAR GkCapSigLunateRevDot
ENCODING 1023
SWIDTH 1080 0
DWIDTH 9 0
BBX 9 18 0 -4
BITMAP
0000
0000
0000
3800
4400
0200
0200
1200
1200
0200
0200
0200
4400
3800
0000
0000
0000
0000
ENDCHAR
STARTCHAR CyCapIeGrave
ENCODING 1024
SWIDTH 1080 0
DWIDTH 9 0
BBX 9 18 0 -4
BITMAP
2000
1800
0000
7e00
4000
4000
4000
4000
7800
4000
4000
4000
4000
7e00
0000
0000
0000
0000
ENDCHAR
STARTCHAR CyCapIeDrss
ENCODING 1025
SWIDTH 1080 0
DWIDTH 9 0
BBX 9 18 0 -4
BITMAP
2400
2400
0000
7e00
4000
4000
4000
4000
7800
4000
4000
4000
4000
7e00
0000
0000
0000
0000
ENDCHAR
STARTCHAR CyCapDje
ENCODING 1026
SWIDTH 1080 0
DWIDTH 9 0
BBX 9 18 0 -4
BITMAP
0000
0000
0000
fe00
1000
1000
1000
1e00
1100
1100
1100
1100
1100
1100
0100
0100
0600
0000
ENDCHAR
STARTCHAR CyCapGheAcute
ENCODING 1027
SWIDTH 1080 0
DWIDTH 9 0
BBX 9 18 0 -4
BITMAP
0200
0c00
0000
3f00
2000
2000
2000
2000
2000
2000
2000
2000
2000
2000
0000
0000
0000
0000
ENDCHAR
STARTCHAR CyCapIeUkr
ENCODING 1028
SWIDTH 1080 0
DWIDTH 9 0
BBX 9 18 0 -4
BITMAP
0000
0000
0000
1c00
2200
4000
4000
4000
7c00
4000
4000
4000
2200
1c00
0000
0000
0000
0000
ENDCHAR
STARTCHAR CyCapDze
ENCODING 1029
SWIDTH 1080 0
DWIDTH 9 0
BBX 9 18 0 -4
BITMAP
0000
0000
0000
3c00
4200
4000
4000
2000
1800
0400
0200
0200
4200
3c00
0000
0000
0000
0000
ENDCHAR
STARTCHAR CyCapIUkr
ENCODING 1030
SWIDTH 1080 0
DWIDTH 9 0
BBX 9 18 0 -4
BITMAP
0000
0000
0000
3e00
0800
0800
0800
0800
0800
0800
0800
0800
0800
3e00
0000
0000
0000
0000
ENDCHAR
STARTCHAR CyCapIUkrDrss
ENCODING 1031
SWIDTH 1080 0
DWIDTH 9 0
BBX 9 18 0 -4
BITMAP
1200
1200
0000
3e00
0800
0800
0800
0800
0800
0800
0800
0800
0800
3e00
0000
0000
0000
0000
ENDCHAR
STARTCHAR CyCapJe
ENCODING 1032
SWIDTH 1080 0
DWIDTH 9 0
BBX 9 18 0 -4
BITMAP
0000
0000
0000
0e00
0400
0400
0400
0400
0400
0400
0400
4400
4400
3800
0000
0000
0000
0000
ENDCHAR
STARTCHAR CyCapLje
ENCODING 1033
SWIDTH 1080 0
DWIDTH 9 0
BBX 9 18 0 -4
BITMAP
0000
0000
0000
3800
2800
4800
4800
4800
4e00
4900
4900
4900
c900
8e00
0000
0000
0000
0000
ENDCHAR
STARTCHAR CyCapNje
ENCODING 1034
SWIDTH 1080 0
DWIDTH 9 0
BBX 9 18 0 -4
BITMAP
0000
0000
0000
8800
8800
8800
8800
8800
fe00
8900
8900
8900
8900
8e00
0000
0000
0000
0000
ENDCHAR
STARTCHAR CyCapTshe
ENCODING 1035
SWIDTH 1080 0
DWIDTH 9 0
BBX 9 18 0 -4
BITMAP
0000
0000
0000
fe00
1000
1000
1000
1e00
1100
1100
1100
1100
1100
1100
0000
0000
0000
0000
ENDCHAR
STARTCHAR CyCapKaAcute
ENCODING 1036
SWIDTH 1080 0
DWIDTH 9 0
BBX 9 18 0 -4
BITMAP
0400
1800
0000
4200
4200
4400
4400
4800
5000
6800
4400
4400
4200
4200
0000
0000
0000
0000
ENDCHAR
STARTCHAR CyCapIGrave
ENCODING 1037
SWIDTH 1080 0
DWIDTH 9 0
BBX 9 18 0 -4
BITMAP
2000
1800
0000
4200
4200
4200
4600
4a00
4a00
5200
5200
6200
4200
4200
0000
0000
0000
0000
ENDCHAR
STARTCHAR CyCapUBreve
ENCODING 1038
SWIDTH 1080 0
DWIDTH 9 0
BBX 9 18 0 -4
BITMAP
2400
3c00
0000
8100
4100
4200
2200
2200
1400
1400
0c00
0800
4800
3000
0000
0000
0000
0000
ENDCHAR
STARTCHAR CyCapDzhe
ENCODING 1039
SWIDTH 1080 0
DWIDTH 9 0
BBX 9 18 0 -4
BITMAP
0000
0000
0000
4200
4200
4200
4200
4200
4200
4200
4200
4200
4200
7e00
0800
0800
0800
0000
ENDCHAR
STARTCHAR CyCapA
ENCODING 1040
SWIDTH 1080 0
DWIDTH 9 0
BBX 9 18 0 -4
BITMAP
0000
0000
0000
0800
0800
0800
1400
1400
2200
2200
3e00
4100
4100
4100
0000
0000
0000
0000
ENDCHAR
STARTCHAR CyCapBe
ENCODING 1041
SWIDTH 1080 0
DWIDTH 9 0
BBX 9 18 0 -4
BITMAP
0000
0000
0000
7c00
4000
4000
4000
4000
7c00
4200
4200
4200
4200
7c00
0000
0000
0000
0000
ENDCHAR
STARTCHAR CyCapVe
ENCODING 1042
SWIDTH 1080 0
DWIDTH 9 0
BBX 9 18 0 -4
BITMAP
0000
0000
0000
7c00
4200
4200
4200
4400
7c00
4200
4200
4200
4200
7c00
0000
0000
0000
0000
ENDCHAR
STARTCHAR CyCapGhe
ENCODING 1043
SWIDTH 1080 0
DWIDTH 9 0
BBX 9 18 0 -4
BITMAP
0000
0000
0000
3f00
2000
2000
2000
2000
2000
2000
2000
2000
2000
2000
0000
0000
0000
0000
ENDCHAR
STARTCHAR CyCapDe
ENCODING 1044
SWIDTH 1080 0
DWIDTH 9 0
BBX 9 18 0 -4
BITMAP
0000
0000
0000
3e00
2200
2200
2200
2200
2200
2200
2200
4200
4200
ff00
8100
8100
8100
0000
ENDCHAR
STARTCHAR CyCapIe
ENCODING 1045
SWIDTH 1080 0
DWIDTH 9 0
BBX 9 18 0 -4
BITMAP
0000
0000
0000
7e00
4000
4000
4000
4000
7800
4000
4000
4000
4000
7e00
0000
0000
0000
0000
ENDCHAR
STARTCHAR CyCapZhe
ENCODING 1046
SWIDTH 1080 0
DWIDTH 9 0
BBX 9 18 0 -4
BITMAP
0000
0000
0000
4900
4900
4900
4900
2a00
1c00
2a00
4900
4900
4900
4900
0000
0000
0000
0000
ENDCHAR
STARTCHAR CyCapZe
ENCODING 1047
SWIDTH 1080 0
DWIDTH 9 0
BBX 9 18 0 -4
BITMAP
0000
0000
0000
3800
4400
0200
0200
0400
1800
0400
0200
0200
4400
3800
0000
0000
0000
0000
ENDCHAR
STARTCHAR CyCapI
ENCODING 1048
SWIDTH 1080 0
DWIDTH 9 0
BBX 9 18 0 -4
BITMAP
0000
0000
0000
4200
4200
4200
4600
4a00
4a00
5200
5200
6200
4200
4200
0000
0000
0000
0000
ENDCHAR
STARTCHAR CyCapIBreve
ENCODING 1049
SWIDTH 1080 0
DWIDTH 9 0
BBX 9 18 0 -4
BITMAP
2400
3c00
0000
4200
4200
4200
4600
4a00
4a00
5200
5200
6200
4200
4200
0000
0000
0000
0000
ENDCHAR
STARTCHAR CyCapKa
ENCODING 1050
SWIDTH 1080 0
DWIDTH 9 0
BBX 9 18 0 -4
BITMAP
0000
0000
0000
4200
4200
4400
4400
4800
5000
6800
4400
4400
4200
4200
0000
0000
0000
0000
ENDCHAR
STARTCHAR CyCapEl
ENCODING 1051
SWIDTH 1080 0
DWIDTH 9 0
BBX 9 18 0 -4
BITMAP
0000
0000
0000
0e00
1200
2200
2200
2200
2200
2200
2200
2200
2200
c200
0000
0000
0000
0000
ENDCHAR
STARTCHAR CyCapEm
ENCODING 1052
SWIDTH 1080 0
DWIDTH 9 0
BBX 9 18 0 -4
BITMAP
0000
0000
0000
4100
4100
6300
6300
5500
5500
4900
4900
4100
4100
4100
0000
0000
0000
0000
ENDCHAR
STARTCHAR CyCapEn
ENCODING 1053
SWIDTH 1080 0
DWIDTH 9 0
BBX 9 18 0 -4
BITMAP
0000
0000
0000
4200
4200
4200
4200
4200
7e00
4200
4200
4200
4200
4200
0000
0000
0000
0000
ENDCHAR
STARTCHAR CyCapO
ENCODING 1054
SWIDTH 1080 0
DWIDTH 9 0
BBX 9 18 0 -4
BITMAP
0000
0000
0000
3c00
4200
4200
4200
4200
4200
4200
4200
4200
4200
3c00
0000
0000
0000
0000
ENDCHAR
STARTCHAR CyCapPe
ENCODING 1055
SWIDTH 1080 0
DWIDTH 9 0
BBX 9 18 0 -4
BITMAP
0000
0000
0000
7e00
4200
4200
4200
4200
4200
4200
4200
4200
4200
4200
0000
0000
0000
0000
ENDCHAR
STARTCHAR CyCapEr
ENCODING 1056
SWIDTH 1080 0
DWIDTH 9 0
BBX 9 18 0 -4
BITMAP
0000
0000
0000
7c00
4200
4200
4200
4200
7c00
4000
4000
4000
4000
4000
0000
0000
0000
0000
ENDCHAR
STARTCHAR CyCapEs
ENCODING 1057
SWIDTH 1080 0
DWIDTH 9 0
BBX 9 18 0 -4
BITMAP
0000
0000
0000
1c00
2200
4000
4000
4000
4000
4000
4000
4000
2200
1c00
0000
0000
0000
0000
ENDCHAR
STARTCHAR CyCapTe
ENCODING 1058
SWIDTH 1080 0
DWIDTH 9 0
BBX 9 18 0 -4
BITMAP
0000
0000
0000
7f00
0800
0800
0800
0800
0800
0800
0800
0800
0800
0800
0000
0000
0000
0000
ENDCHAR
STARTCHAR CyCapU
ENCODING 1059
SWIDTH 1080 0
DWIDTH 9 0
BBX 9 18 0 -4
BITMAP
0000
0000
0000
8100
4100
4200
2200
2200
1400
1400
0c00
0800
4800
3000
0000
0000
0000
0000
ENDCHAR
STARTCHAR CyCapEf
ENCODING 1060
SWIDTH 1080 0
DWIDTH 9 0
BBX 9 18 0 -4
BITMAP
0000
0000
0800
0800
1c00
2a00
4900
4900
4900
4900
4900
2a00
1c00
0800
0800
0000
0000
0000
ENDCHAR
STARTCHAR CyCapHa
ENCODING 1061
SWIDTH 1080 0
DWIDTH 9 0
BBX 9 18 0 -4
BITMAP
0000
0000
0000
4200
4200
2400
2400
1800
1800
1800
2400
2400
4200
4200
0000
0000
0000
0000
ENDCHAR
STARTCHAR CyCapTse
ENCODING 1062
SWIDTH 1080 0
DWIDTH 9 0
BBX 9 18 0 -4
BITMAP
0000
0000
0000
4200
4200
4200
4200
4200
4200
4200
4200
4200
4200
7f00
0100
0100
0100
0000
ENDCHAR
STARTCHAR CyCapChe
ENCODING 1063
SWIDTH 1080 0
DWIDTH 9 0
BBX 9 18 0 -4
BITMAP
0000
0000
0000
4200
4200
4200
4200
4200
3e00
0200
0200
0200
0200
0200
0000
0000
0000
0000
ENDCHAR
STARTCHAR CyCapSha
ENCODING 1064
SWIDTH 1080 0
DWIDTH 9 0
BBX 9 18 0 -4
BITMAP
0000
0000
0000
4900
4900
4900
4900
4900
4900
4900
4900
4900
4900
7f00
0000
0000
0000
0000
ENDCHAR
STARTCHAR CyCapShcha
ENCODING 1065
SWIDTH 1080 0
DWIDTH 9 0
BBX 9 18 0 -4
BITMAP
0000
0000
0000
4900
4900
4900
4900
4900
4900
4900
4900
4900
4900
7f80
0080
0080
0080
0000
ENDCHAR
STARTCHAR CyCapHardsign
ENCODING 1066
SWIDTH 1080 0
DWIDTH 9 0
BBX 9 18 0 -4
BITMAP
0000
0000
0000
f000
1000
1000
1000
1000
1e00
1100
1100
1100
1100
1e00
0000
0000
0000
0000
ENDCHAR
STARTCHAR CyCapYeru
ENCODING 1067
SWIDTH 1080 0
DWIDTH 9 0
BBX 9 18 0 -4
BITMAP
0000
0000
0000
4100
4100
4100
4100
4100
7900
4500
4500
4500
4500
7900
0000
0000
0000
0000
ENDCHAR
STARTCHAR CyCapSoftsign
ENCODING 1068
SWIDTH 1080 0
DWIDTH 9 0
BBX 9 18 0 -4
BITMAP
0000
0000
0000
4000
4000
4000
4000
4000
7c00
4200
4200
4200
4200
7c00
0000
0000
0000
0000
ENDCHAR
STARTCHAR CyCapE
ENCODING 1069
SWIDTH 1080 0
DWIDTH 9 0
BBX 9 18 0 -4
BITMAP
0000
0000
0000
3800
4400
0200
0200
0200
3e00
0200
0200
0200
4400
3800
0000
0000
0000
0000
ENDCHAR
STARTCHAR CyCapYu
ENCODING 1070
SWIDTH 1080 0
DWIDTH 9 0
BBX 9 18 0 -4
BITMAP
0000
0000
0000
8e00
9100
9100
9100
9100
f100
9100
9100
9100
9100
8e00
0000
0000
0000
0000
ENDCHAR
STARTCHAR CyCapYa
ENCODING 1071
SWIDTH 1080 0
DWIDTH 9 0
BBX 9 18 0 -4
BITMAP
0000
0000
0000
3e00
4200
4200
4200
4200
3e00
1200
2200
2200
4200
4200
0000
0000
0000
0000
ENDCHAR
STARTCHAR CySmlA
ENCODING 1072
SWIDTH 1080 0
DWIDTH 9 0
BBX 9 18 0 -4
BITMAP
0000
0000
0000
0000
0000
0000
3c00
0200
0200
3e00
4200
4200
4600
3a00
0000
0000
0000
0000
ENDCHAR
STARTCHAR CySmlBe
ENCODING 1073
SWIDTH 1080 0
DWIDTH 9 0
BBX 9 18 0 -4
BITMAP
0000
0000
0000
0400
1800
2000
4000
5c00
6200
4200
4200
4200
4200
3c00
0000
0000
0000
0000
ENDCHAR
STARTCHAR CySmlVe
ENCODING 1074
SWIDTH 1080 0
DWIDTH 9 0
BBX 9 18 0 -4
BITMAP
0000
0000
0000
0000
0000
0000
7c00
4200
4200
7c00
4200
4200
4200
7c00
0000
0000
0000
0000
ENDCHAR
STARTCHAR CySmlGhe
ENCODING 1075
SWIDTH 1080 0
DWIDTH 9 0
BBX 9 18 0 -4
BITMAP
0000
0000
0000
0000
0000
0000
3e00
2000
2000
2000
2000
2000
2000
2000
0000
0000
0000
0000
ENDCHAR
STARTCHAR CySmlDe
ENCODING 1076
SWIDTH 1080 0
DWIDTH 9 0
BBX 9 18 0 -4
BITMAP
0000
0000
0000
0000
0000
0000
3e00
2200
2200
2200
2200
2200
2200
7f00
4100
4100
4100
0000
ENDCHAR
STARTCHAR CySmlIe
ENCODING 1077
SWIDTH 1080 0
DWIDTH 9 0
BBX 9 18 0 -4
BITMAP
0000
0000
0000
0000
0000
0000
1c00
2200
4200
7e00
4000
4000
2200
1c00
0000
0000
0000
0000
ENDCHAR
STARTCHAR CySmlZhe
ENCODING 1078
SWIDTH 1080 0
DWIDTH 9 0
BBX 9 18 0 -4
BITMAP
0000
0000
0000
0000
0000
0000
4900
4900
2a00
1c00
2a00
4900
4900
4900
0000
0000
0000
0000
ENDCHAR
STARTCHAR CySmlZe
ENCODING 1079
SWIDTH 1080 0
DWIDTH 9 0
BBX 9 18 0 -4
BITMAP
0000
0000
0000
0000
0000
0000
3c00
4200
0200
0c00
0200
0200
4200
3c00
0000
0000
0000
0000
ENDCHAR
STARTCHAR CySmlI
ENCODING 1080
SWIDTH 1080 0
DWIDTH 9 0
BBX 9 18 0 -4
BITMAP
0000
0000
0000
0000
0000
0000
4200
4600
4a00
4a00
5200
5200
6200
4200
0000
0000
0000
0000
ENDCHAR
STARTCHAR CySmlIBreve
ENCODING 1081
SWIDTH 1080 0
DWIDTH 9 0
BBX 9 18 0 -4
BITMAP
0000
0000
0000
2400
3c00
0000
4200
4600
4a00
4a00
5200
5200
6200
4200
0000
0000
0000
0000
ENDCHAR
STARTCHAR CySmlKa
ENCODING 1082
SWIDTH 1080 0
DWIDTH 9 0
BBX 9 18 0 -4
BITMAP
0000
0000
0000
0000
0000
0000
4200
4400
4800
5000
7000
4800
4400
4200
0000
0000
0000
0000
ENDCHAR
STARTCHAR CySmlEl
ENCODING 1083
SWIDTH 1080 0
DWIDTH 9 0
BBX 9 18 0 -4
BITMAP
0000
0000
0000
0000
0000
0000
0e00
1200
2200
2200
2200
2200
2200
c200
0000
0000
0000
0000
ENDCHAR
STARTCHAR CySmlEm
ENCODING 1084
SWIDTH 1080 0
DWIDTH 9 0
BBX 9 18 0 -4
BITMAP
0000
0000
0000
0000
0000
0000
4100
4100
6300
6300
5500
5500
4900
4900
0000
0000
0000
0000
ENDCHAR
STARTCHAR CySmlEn
ENCODING 1085
SWIDTH 1080 0
DWIDTH 9 0
BBX 9 18 0 -4
BITMAP
0000
0000
0000
0000
0000
0000
4200
4200
4200
7e00
4200
4200
4200
4200
0000
0000
0000
0000
ENDCHAR
STARTCHAR CySmlO
ENCODING 1086
SWIDTH 1080 0
DWIDTH 9 0
BBX 9 18 0 -4
BITMAP
0000
0000
0000
0000
0000
0000
3c00
4200
4200
4200
4200
4200
4200
3c00
0000
0000
0000
0000
ENDCHAR
STARTCHAR CySmlPe
ENCODING 1087
SWIDTH 1080 0
DWIDTH 9 0
BBX 9 18 0 -4
BITMAP
0000
0000
0000
0000
0000
0000
7e00
4200
4200
4200
4200
4200
4200
4200
0000
0000
0000
0000
ENDCHAR
STARTCHAR CySmlEr
ENCODING 1088
SWIDTH 1080 0
DWIDTH 9 0
BBX 9 18 0 -4
BITMAP
0000
0000
0000
0000
0000
0000
5c00
6200
4200
4200
4200
4200
6200
5c00
4000
4000
4000
0000
ENDCHAR
STARTCHAR CySmlEs
ENCODING 1089
SWIDTH 1080 0
DWIDTH 9 0
BBX 9 18 0 -4
BITMAP
0000
0000
0000
0000
0000
0000
1c00
2200
4000
4000
4000
4000
2200
1c00
0000
0000
0000
0000
ENDCHAR
STARTCHAR CySmlTe
ENCODING 1090
SWIDTH 1080 0
DWIDTH 9 0
BBX 9 18 0 -4
BITMAP
0000
0000
0000
0000
0000
0000
7f00
0800
0800
0800
0800
0800
0800
0800
0000
0000
0000
0000
ENDCHAR
STARTCHAR CySmlU
ENCODING 1091
SWIDTH 1080 0
DWIDTH 9 0
BBX 9 18 0 -4
BITMAP
0000
0000
0000
0000
0000
0000
4200
4200
4200
2400
2400
1400
1800
0800
1000
5000
2000
0000
ENDCHAR
STARTCHAR CySmlEf
ENCODING 1092
SWIDTH 1080 0
DWIDTH 9 0
BBX 9 18 0 -4
BITMAP
0000
0000
0000
0800
0800
0800
3e00
4900
4900
4900
4900
4900
4900
3e00
0800
0800
0800
0000
ENDCHAR
STARTCHAR CySmlHa
ENCODING 1093
SWIDTH 1080 0
DWIDTH 9 0
BBX 9 18 0 -4
BITMAP
0000
0000
0000
0000
0000
0000
4200
4200
2400
1800
1800
2400
4200
4200
0000
0000
0000
0000
ENDCHAR
STARTCHAR CySmlTse
ENCODING 1094
SWIDTH 1080 0
DWIDTH 9 0
BBX 9 18 0 -4
BITMAP
0000
0000
0000
0000
0000
0000
4200
4200
4200
4200
4200
4200
4200
7f00
0100
0100
0100
0000
ENDCHAR
STARTCHAR CySmlChe
ENCODING 1095
SWIDTH 1080 0
DWIDTH 9 0
BBX 9 18 0 -4
BITMAP
0000
0000
0000
0000
0000
0000
4200
4200
4200
3e00
0200
0200
0200
0200
0000
0000
0000
0000
ENDCHAR
STARTCHAR CySmlSha
ENCODING 1096
SWIDTH 1080 0
DWIDTH 9 0
BBX 9 18 0 -4
BITMAP
0000
0000
0000
0000
0000
0000
4900
4900
4900
4900
4900
4900
4900
7f00
0000
0000
0000
0000
ENDCHAR
STARTCHAR CySmlShcha
ENCODING 1097
SWIDTH 1080 0
DWIDTH 9 0
BBX 9 18 0 -4
BITMAP
0000
0000
0000
0000
0000
0000
4900
4900
4900
4900
4900
4900
4900
7f80
0080
0080
0080
0000
ENDCHAR
STARTCHAR CySmlHardsign
ENCODING 1098
SWIDTH 1080 0
DWIDTH 9 0
BBX 9 18 0 -4
BITMAP
0000
0000
0000
0000
0000
0000
f000
9000
1000
1e00
1100
1100
1100
1e00
0000
0000
0000
0000
ENDCHAR
STARTCHAR CySmlYeru
ENCODING 1099
SWIDTH 1080 0
DWIDTH 9 0
BBX 9 18 0 -4
BITMAP
0000
0000
0000
0000
0000
0000
4100
4100
4100
7900
4500
4500
4500
7900
0000
0000
0000
0000
ENDCHAR
STARTCHAR CySmlSoftsign
ENCODING 1100
SWIDTH 1080 0
DWIDTH 9 0
BBX 9 18 0 -4
BITMAP
0000
0000
0000
0000
0000
0000
4000
4000
4000
7c00
4200
4200
4200
7c00
0000
0000
0000
0000
ENDCHAR
STARTCHAR CySmlE
ENCODING 1101
SWIDTH 1080 0
DWIDTH 9 0
BBX 9 18 0 -4
BITMAP
0000
0000
0000
0000
0000
0000
3800
4400
0200
1e00
0200
0200
4400
3800
0000
0000
0000
0000
ENDCHAR
STARTCHAR CySmlYu
ENCODING 1102
SWIDTH 1080 0
DWIDTH 9 0
BBX 9 18 0 -4
BITMAP
0000
0000
0000
0000
0000
0000
8e00
9100
9100
f100
9100
9100
9100
8e00
0000
0000
0000
0000
ENDCHAR
STARTCHAR CySmlYa
ENCODING 1103
SWIDTH 1080 0
DWIDTH 9 0
BBX 9 18 0 -4
BITMAP
0000
0000
0000
0000
0000
0000
3e00
4200
4200
3e00
1200
2200
2200
4200
0000
0000
0000
0000
ENDCHAR
STARTCHAR CySmlIeGrave
ENCODING 1104
SWIDTH 1080 0
DWIDTH 9 0
BBX 9 18 0 -4
BITMAP
0000
0000
1000
1000
0800
0000
1c00
2200
4200
7e00
4000
4000
2200
1c00
0000
0000
0000
0000
ENDCHAR
STARTCHAR CySmlIeDrss
ENCODING 1105
SWIDTH 1080 0
DWIDTH 9 0
BBX 9 18 0 -4
BITMAP
0000
0000
0000
2400
2400
0000
1c00
2200
4200
7e00
4000
4000
2200
1c00
0000
0000
0000
0000
ENDCHAR
STARTCHAR CySmlDje
ENCODING 1106
SWIDTH 1080 0
DWIDTH 9 0
BBX 9 18 0 -4
BITMAP
0000
0000
0000
4000
f800
4000
5800
6400
4200
4200
4200
4200
4200
4400
0400
0800
3000
0000
ENDCHAR
STARTCHAR CySmlGheAcute
ENCODING 1107
SWIDTH 1080 0
DWIDTH 9 0
BBX 9 18 0 -4
BITMAP
0000
0000
0800
0800
1000
0000
3e00
2000
2000
2000
2000
2000
2000
2000
0000
0000
0000
0000
ENDCHAR
STARTCHAR CySmlIeUkr
ENCODING 1108
SWIDTH 1080 0
DWIDTH 9 0
BBX 9 18 0 -4
BITMAP
0000
0000
0000
0000
0000
0000
1c00
2200
4000
7800
4000
4000
2200
1c00
0000
0000
0000
0000
ENDCHAR
STARTCHAR CySmlDze
ENCODING 1109
SWIDTH 1080 0
DWIDTH 9 0
BBX 9 18 0 -4
BITMAP
0000
0000
0000
0000
0000
0000
3c00
4200
4000
3000
0c00
0200
4200
3c00
0000
0000
0000
0000
ENDCHAR
STARTCHAR CySmlIUkr
ENCODING 1110
SWIDTH 1080 0
DWIDTH 9 0
BBX 9 18 0 -4
BITMAP
0000
0000
0800
0800
0000
0000
1800
0800
0800
0800
0800
0800
0800
3e00
0000
0000
0000
0000
ENDCHAR
STARTCHAR CySmlIUkrDrss
ENCODING 1111
SWIDTH 1080 0
DWIDTH 9 0
BBX 9 18 0 -4
BITMAP
0000
0000
0000
2400
2400
0000
1800
0800
0800
0800
0800
0800
0800
3e00
0000
0000
0000
0000
ENDCHAR
STARTCHAR CySmlJe
ENCODING 1112
SWIDTH 1080 0
DWIDTH 9 0
BBX 9 18 0 -4
BITMAP
0000
0000
0400
0400
0000
0000
1c00
0400
0400
0400
0400
0400
0400
0400
4400
4400
3800
0000
ENDCHAR
STARTCHAR CySmlLje
ENCODING 1113
SWIDTH 1080 0
DWIDTH 9 0
BBX 9 18 0 -4
BITMAP
0000
0000
0000
0000
0000
0000
3800
2800
4800
4e00
4900
4900
c900
8e00
0000
0000
0000
0000
ENDCHAR
STARTCHAR CySmlNje
ENCODING 1114
SWIDTH 1080 0
DWIDTH 9 0
BBX 9 18 0 -4
BITMAP
0000
0000
0000
0000
0000
0000
8800
8800
8800
fe00
8900
8900
8900
8e00
0000
0000
0000
0000
ENDCHAR
STARTCHAR CySmlTshe
ENCODING 1115
SWIDTH 1080 0
DWIDTH 9 0
BBX 9 18 0 -4
BITMAP
0000
0000
0000
4000
f800
4000
5c00
6200
4200
4200
4200
4200
4200
4200
0000
0000
0000
0000
ENDCHAR
STARTCHAR CySmlKaAcute
ENCODING 1116
SWIDTH 1080 0
DWIDTH 9 0
BBX 9 18 0 -4
BITMAP
0000
0000
0800
0800
1000
0000
4200
4400
4800
5000
7000
4800
4400
4200
0000
0000
0000
0000
ENDCHAR
STARTCHAR CySmlIGrave
ENCODING 1117
SWIDTH 1080 0
DWIDTH 9 0
BBX 9 18 0 -4
BITMAP
0000
0000
1000
1000
0800
0000
4200
4600
4a00
4a00
5200
5200
6200
4200
0000
0000
0000
0000
ENDCHAR
STARTCHAR CySmlUBreve
ENCODING 1118
SWIDTH 1080 0
DWIDTH 9 0
BBX 9 18 0 -4
BITMAP
0000
0000
0000
2400
3c00
0000
4200
4200
4200
2400
2400
1400
1800
0800
1000
5000
2000
0000
ENDCHAR
STARTCHAR CySmlDzhe
ENCODING 1119
SWIDTH 1080 0
DWIDTH 9 0
BBX 9 18 0 -4
BITMAP
0000
0000
0000
0000
0000
0000
4200
4200
4200
4200
4200
4200
4200
7e00
0800
0800
0800
0000
ENDCHAR
STARTCHAR CyCapOmega
ENCODING 1120
SWIDTH 1080 0
DWIDTH 9 0
BBX 9 18 0 -4
BITMAP
0000
0000
0000
4100
4900
4900
4900
4900
4900
4900
4900
4900
3600
3600
0000
0000
0000
0000
ENDCHAR
STARTCHAR CySmlOmega
ENCODING 1121
SWIDTH 1080 0
DWIDTH 9 0
BBX 9 18 0 -4
BITMAP
0000
0000
0000
0000
0000
0000
4100
4900
4900
4900
4900
4900
3600
3600
0000
0000
0000
0000
ENDCHAR
STARTCHAR CyCapYat
ENCODING 1122
SWIDTH 1080 0
DWIDTH 9 0
BBX 9 18 0 -4
BITMAP
0000
0000
0000
2000
2000
f800
2000
2000
3e00
2100
2100
2100
2100
3e00
0000
0000
0000
0000
ENDCHAR
STARTCHAR CySmlYat
ENCODING 1123
SWIDTH 1080 0
DWIDTH 9 0
BBX 9 18 0 -4
BITMAP
0000
0000
0000
2000
2000
2000
f800
2000
2000
3c00
2200
2200
2200
3c00
0000
0000
0000
0000
ENDCHAR
STARTCHAR CyCapIE
ENCODING 1124
SWIDTH 1080 0
DWIDTH 9 0
BBX 9 18 0 -4
BITMAP
0000
0000
0000
8600
8900
9000
9000
9000
fe00
9000
9000
9000
8900
8600
0000
0000
0000
0000
ENDCHAR
STARTCHAR CySmlIE
ENCODING 1125
SWIDTH 1080 0
DWIDTH 9 0
BBX 9 18 0 -4
BITMAP
0000
0000
0000
0000
0000
0000
8600
8900
9000
fe00
9000
9000
8900
8600
0000
0000
0000
0000
ENDCHAR
STARTCHAR CyCapLittleyus
ENCODING 1126
SWIDTH 1080 0
DWIDTH 9 0
BBX 9 18 0 -4
BITMAP
0000
0000
0000
0800
0800
0800
1400
1400
2200
3e00
2a00
4900
4900
4900
0000
0000
0000
0000
ENDCHAR
STARTCHAR CySmlLittleyus
ENCODING 1127
SWIDTH 1080 0
DWIDTH 9 0
BBX 9 18 0 -4
BITMAP
0000
0000
0000
0000
0000
0000
0800
0800
1400
1400
3e00
2a00
4900
4900
0000
0000
0000
0000
ENDCHAR
STARTCHAR CyCapILittleyus
ENCODING 1128
SWIDTH 1080 0
DWIDTH 9 0
BBX 9 18 0 -4
BITMAP
0000
0000
0000
8400
8400
8400
8a00
8a00
fa00
9f00
9500
9500
a480
a480
0000
0000
0000
0000
ENDCHAR
STARTCHAR CySmlILittleyus
ENCODING 1129
SWIDTH 1080 0
DWIDTH 9 0
BBX 9 18 0 -4
BITMAP
0000
0000
0000
0000
0000
0000
8400
8400
8a00
fa00
8e00
9500
9500
9500
0000
0000
0000
0000
ENDCHAR
STARTCHAR CyCapBigyus
ENCODING 1130
SWIDTH 1080 0
DWIDTH 9 0
BBX 9 18 0 -4
BITMAP
0000
0000
0000
7f00
4100
2200
2200
1400
1c00
2a00
4900
4900
4900
4900
0000
0000
0000
0000
ENDCHAR
STARTCHAR CySmlBigyus
ENCODING 1131
SWIDTH 1080 0
DWIDTH 9 0
BBX 9 18 0 -4
BITMAP
0000
0000
0000
0000
0000
0000
7f00
4100
2200
1400
1c00
2a00
4900
4900
0000
0000
0000
0000
ENDCHAR
STARTCHAR CyCapIBigyus
ENCODING 1132
SWIDTH 1080 0
DWIDTH 9 0
BBX 9 18 0 -4
BITMAP
0000
0000
0000
9f00
9100
8a00
8a00
8400
fc00
8e00
9500
9500
a480
a480
0000
0000
0000
0000
ENDCHAR
STARTCHAR CySmlIBigyus
ENCODING 1133
SWIDTH 1080 0
DWIDTH 9 0
BBX 9 18 0 -4
BITMAP
0000
0000
0000
0000
0000
0000
9f00
9100
8a00
8400
fe00
9500
9500
9500
0000
0000
0000
0000
ENDCHAR
STARTCHAR CyCapKsi
ENCODING 1134
SWIDTH 1080 0
DWIDTH 9 0
BBX 9 18 0 -4
BITMAP
2400
1800
0000
3800
4400
0200
0200
0400
1800
0400
0200
0200
0400
3800
4000
3c00
0200
0000
ENDCHAR
STARTCHAR CySmlKsi
ENCODING 1135
SWIDTH 1080 0
DWIDTH 9 0
BBX 9 18 0 -4
BITMAP
0000
0000
0000
2400
1800
0000
3c00
4200
0200
0c00
0200
0200
0200
3c00
4000
3c00
0200
0000
ENDCHAR
STARTCHAR CyCapPsi
ENCODING 1136
SWIDTH 1080 0
DWIDTH 9 0
BBX 9 18 0 -4
BITMAP
0000
0000
0000
4900
4900
4900
4900
4900
4900
3e00
0800
0800
0800
0800
0000
0000
0000
0000
ENDCHAR
STARTCHAR CySmlPsi
ENCODING 1137
SWIDTH 1080 0
DWIDTH 9 0
BBX 9 18 0 -4
BITMAP
0000
0000
0000
0800
0800
0800
4900
4900
4900
4900
4900
4900
2a00
1c00
0800
0800
0800
0000
ENDCHAR
STARTCHAR CyCapFita
ENCODING 1138
SWIDTH 1080 0
DWIDTH 9 0
BBX 9 18 0 -4
BITMAP
0000
0000
0000
3c00
4200
4200
4200
4200
7e00
4200
4200
4200
4200
3c00
0000
0000
0000
0000
ENDCHAR
STARTCHAR CySmlFita
ENCODING 1139
SWIDTH 1080 0
DWIDTH 9 0
BBX 9 18 0 -4
BITMAP
0000
0000
0000
0000
0000
0000
3c00
4200
4200
7e00
4200
4200
4200
3c00
0000
0000
0000
0000
ENDCHAR
STARTCHAR CyCapIzhitsa
ENCODING 1140
SWIDTH 1080 0
DWIDTH 9 0
BBX 9 18 0 -4
BITMAP
0000
0000
0000
4100
4200
4200
2200
2400
2400
1400
1400
0800
0800
0800
0000
0000
0000
0000
ENDCHAR
STARTCHAR CySmlIzhitsa
ENCODING 1141
SWIDTH 1080 0
DWIDTH 9 0
BBX 9 18 0 -4
BITMAP
0000
0000
0000
0000
0000
0000
4100
4200
2400
2400
1400
1800
0800
0800
0000
0000
0000
0000
ENDCHAR
STARTCHAR CyCapIzhitsaGrave2
ENCODING 1142
SWIDTH 1080 0
DWIDTH 9 0
BBX 9 18 0 -4
BITMAP
2400
2400
1200
0000
4100
4200
2200
2200
2400
1400
1400
0800
0800
0800
0000
0000
0000
0000
ENDCHAR
STARTCHAR CySmlIzhitsaGrave2
ENCODING 1143
SWIDTH 1080 0
DWIDTH 9 0
BBX 9 18 0 -4
BITMAP
0000
0000
2400
2400
1200
0000
4100
4200
2400
2400
1400
1800
0800
0800
0000
0000
0000
0000
ENDCHAR
STARTCHAR CyCapOu
ENCODING 1144
SWIDTH 1080 0
DWIDTH 9 0
BBX 9 18 0 -4
BITMAP
0000
0000
0000
6000
9000
9000
9500
9500
9500
9500
9500
9500
9600
6200
0200
0400
0400
0000
ENDCHAR
STARTCHAR CySmlOu
ENCODING 1145
SWIDTH 1080 0
DWIDTH 9 0
BBX 9 18 0 -4
BITMAP
0000
0000
0000
0000
0000
0000
6500
9500
9500
9500
9500
9500
9600
6200
0200
0400
0400
0000
ENDCHAR
STARTCHAR CyCapOmegaRound
ENCODING 1146
SWIDTH 1080 0
DWIDTH 9 0
BBX 9 18 0 -4
BITMAP
0000
0000
0800
3e00
4900
4100
4100
4100
4100
4100
4100
4100
4900
3e00
0800
0000
0000
0000
ENDCHAR
STARTCHAR CySmlOmegaRound
ENCODING 1147
SWIDTH 1080 0
DWIDTH 9 0
BBX 9 18 0 -4
BITMAP
0000
0000
0000
0000
0000
0800
3e00
4900
4100
4100
4100
4100
4900
3e00
0800
0000
0000
0000
ENDCHAR
STARTCHAR CyCapOmegaOrnate
ENCODING 1148
SWIDTH 1080 0
DWIDTH 9 0
BBX 9 18 0 -4
BITMAP
3800
4400
5b00
0800
2200
4100
4100
4100
5d00
4900
4900
4900
4900
3600
0000
0000
0000
0000
ENDCHAR
STARTCHAR CySmlOmegaOrnate
ENCODING 1149
SWIDTH 1080 0
DWIDTH 9 0
BBX 9 18 0 -4
BITMAP
0000
3800
4400
5a00
4900
0000
2200
4100
4100
5d00
4900
4900
4900
3600
0000
0000
0000
0000
ENDCHAR
STARTCHAR CyCapOmegaT
ENCODING 1150
SWIDTH 1080 0
DWIDTH 9 0
BBX 9 18 0 -4
BITMAP
3e00
2a00
0000
4100
4900
4900
4900
4900
4900
4900
4900
4900
3600
3600
0000
0000
0000
0000
ENDCHAR
STARTCHAR CySmlOmegaT
ENCODING 1151
SWIDTH 1080 0
DWIDTH 9 0
BBX 9 18 0 -4
BITMAP
0000
0000
3e00
2a00
0000
0000
4100
4900
4900
4900
4900
4900
3600
3600
0000
0000
0000
0000
ENDCHAR
STARTCHAR CyCapKoppa
ENCODING 1152
SWIDTH 1080 0
DWIDTH 9 0
BBX 9 18 0 -4
BITMAP
0000
0000
0000
1c00
2200
4000
4000
4000
4000
4000
4000
4000
2000
1c00
0400
0400
0400
0000
ENDCHAR
STARTCHAR CySmlKoppa
ENCODING 1153
SWIDTH 1080 0
DWIDTH 9 0
BBX 9 18 0 -4
BITMAP
0000
0000
0000
0000
0000
0000
1c00
2200
4000
4000
4000
4000
2000
1c00
0400
0400
0400
0000
ENDCHAR
STARTCHAR SCyThousands
ENCODING 1154
SWIDTH 1080 0
DWIDTH 9 0
BBX 9 18 0 -4
BITMAP
0000
0000
0000
0200
0200
1c00
0700
0800
0800
0800
7000
1c00
2000
2000
0000
0000
0000
0000
ENDCHAR
STARTCHAR CombTitlo
ENCODING 1155
SWIDTH 1080 0
DWIDTH 9 0
BBX 9 18 0 -4
BITMAP
0000
0000
0200
3e00
2000
0000
0000
0000
0000
0000
0000
0000
0000
0000
0000
0000
0000
0000
ENDCHAR
STARTCHAR CombCyPalat
ENCODING 1156
SWIDTH 1080 0
DWIDTH 9 0
BBX 9 18 0 -4
BITMAP
0000
0000
0000
0700
0880
0000
0000
0000
0000
0000
0000
0000
0000
0000
0000
0000
0000
0000
ENDCHAR
STARTCHAR CombCyDasia
ENCODING 1157
SWIDTH 1080 0
DWIDTH 9 0
BBX 9 18 0 -4
BITMAP
0000
0000
1800
1000
0800
0000
0000
0000
0000
0000
0000
0000
0000
0000
0000
0000
0000
0000
ENDCHAR
STARTCHAR CombCyPsili
ENCODING 1158
SWIDTH 1080 0
DWIDTH 9 0
BBX 9 18 0 -4
BITMAP
0000
0000
1800
0800
1000
0000
0000
0000
0000
0000
0000
0000
0000
0000
0000
0000
0000
0000
ENDCHAR
STARTCHAR CombPokrytie
ENCODING 1159
SWIDTH 1080 0
DWIDTH 9 0
BBX 9 18 0 -4
BITMAP
0000
3800
4400
4200
4100
0000
0000
0000
0000
0000
0000
0000
0000
0000
0000
0000
0000
0000
ENDCHAR
STARTCHAR CyCapIBreveTail
ENCODING 1162
SWIDTH 1080 0
DWIDTH 9 0
BBX 9 18 0 -4
BITMAP
2400
3c00
0000
4200
4200
4200
4600
4a00
4a00
5200
5200
6200
4200
4700
0100
0200
0400
0000
ENDCHAR
STARTCHAR CySmlIBreveTail
ENCODING 1163
SWIDTH 1080 0
DWIDTH 9 0
BBX 9 18 0 -4
BITMAP
0000
0000
0000
2400
3c00
0000
4200
4600
4a00
4a00
5200
5200
6200
4700
0100
0200
0400
0000
ENDCHAR
STARTCHAR CyCapSemisoftsign
ENCODING 1164
SWIDTH 1080 0
DWIDTH 9 0
BBX 9 18 0 -4
BITMAP
0000
0000
0000
4000
4000
e000
4000
4000
7c00
4200
4200
4200
4200
7c00
0000
0000
0000
0000
ENDCHAR
STARTCHAR CySmlSemisoftsign
ENCODING 1165
SWIDTH 1080 0
DWIDTH 9 0
BBX 9 18 0 -4
BITMAP
0000
0000
0000
0000
0000
0000
4000
e000
4000
7c00
4200
4200
4200
7c00
0000
0000
0000
0000
ENDCHAR
STARTCHAR CyCapErTick
ENCODING 1166
SWIDTH 1080 0
DWIDTH 9 0
BBX 9 18 0 -4
BITMAP
0000
0000
0000
7c00
4200
4200
4a00
4400
7c00
4200
4000
4000
4000
4000
0000
0000
0000
0000
ENDCHAR
STARTCHAR CySmlErTick
ENCODING 1167
SWIDTH 1080 0
DWIDTH 9 0
BBX 9 18 0 -4
BITMAP
0000
0000
0000
0000
0000
0000
5c00
6200
4200
4200
4200
4a00
6400
5c00
4200
4000
4000
0000
ENDCHAR
STARTCHAR CyCapGheUpturn
ENCODING 1168
SWIDTH 1080 0
DWIDTH 9 0
BBX 9 18 0 -4
BITMAP
0000
0100
0100
3f00
2000
2000
2000
2000
2000
2000
2000
2000
2000
2000
0000
0000
0000
0000
ENDCHAR
STARTCHAR CySmlGheUpturn
ENCODING 1169
SWIDTH 1080 0
DWIDTH 9 0
BBX 9 18 0 -4
BITMAP
0000
0000
0000
0000
0200
0200
3e00
2000
2000
2000
2000
2000
2000
2000
0000
0000
0000
0000
ENDCHAR
STARTCHAR CyCapGheStroke
ENCODING 1170
SWIDTH 1080 0
DWIDTH 9 0
BBX 9 18 0 -4
BITMAP
0000
0000
0000
3f00
2000
2000
2000
2000
7800
2000
2000
2000
2000
2000
0000
0000
0000
0000
ENDCHAR
STARTCHAR CySmlGheStroke
ENCODING 1171
SWIDTH 1080 0
DWIDTH 9 0
BBX 9 18 0 -4
BITMAP
0000
0000
0000
0000
0000
0000
3e00
2000
2000
7800
2000
2000
2000
2000
0000
0000
0000
0000
ENDCHAR
STARTCHAR CyCapGheMhook
ENCODING 1172
SWIDTH 1080 0
DWIDTH 9 0
BBX 9 18 0 -4
BITMAP
0000
0000
0000
7e00
4000
4000
4000
4000
7800
4400
4200
4200
4200
4200
0200
0400
3800
0000
ENDCHAR
STARTCHAR CySmlGheMhook
ENCODING 1173
SWIDTH 1080 0
DWIDTH 9 0
BBX 9 18 0 -4
BITMAP
0000
0000
0000
0000
0000
0000
3e00
2000
2000
3800
2400
2200
2200
2200
0200
0400
3800
0000
ENDCHAR
STARTCHAR CyCapZheDesc
ENCODING 1174
SWIDTH 1080 0
DWIDTH 9 0
BBX 9 18 0 -4
BITMAP
0000
0000
0000
4900
4900
4900
4900
2a00
1c00
2a00
4900
4900
4900
4900
0080
0080
0080
0000
ENDCHAR
STARTCHAR CySmlZheDesc
ENCODING 1175
SWIDTH 1080 0
DWIDTH 9 0
BBX 9 18 0 -4
BITMAP
0000
0000
0000
0000
0000
0000
4900
4900
2a00
1c00
2a00
4900
4900
4980
0080
0080
0080
0000
ENDCHAR
STARTCHAR CyCapZeDesc
ENCODING 1176
SWIDTH 1080 0
DWIDTH 9 0
BBX 9 18 0 -4
BITMAP
0000
0000
0000
3800
4400
0200
0200
0400
1800
0400
0200
0200
4400
3800
1000
0800
1000
0000
ENDCHAR
STARTCHAR CySmlZeDesc
ENCODING 1177
SWIDTH 1080 0
DWIDTH 9 0
BBX 9 18 0 -4
BITMAP
0000
0000
0000
0000
0000
0000
3c00
4200
0200
0c00
0200
0200
4200
3c00
1000
0800
1000
0000
ENDCHAR
STARTCHAR CyCapKaDesc
ENCODING 1178
SWIDTH 1080 0
DWIDTH 9 0
BBX 9 18 0 -4
BITMAP
0000
0000
0000
4200
4200
4400
4400
4800
5000
6800
4400
4400
4200
4300
0100
0100
0100
0000
ENDCHAR
STARTCHAR CySmlKaDesc
ENCODING 1179
SWIDTH 1080 0
DWIDTH 9 0
BBX 9 18 0 -4
BITMAP
0000
0000
0000
0000
0000
0000
4200
4400
4800
5000
7000
4800
4400
4300
0100
0100
0100
0000
ENDCHAR
STARTCHAR CyCapKaStrokeV
ENCODING 1180
SWIDTH 1080 0
DWIDTH 9 0
BBX 9 18 0 -4
BITMAP
0000
0000
0000
4100
4100
4200
5200
5400
7800
5400
5200
4200
4100
4100
0000
0000
0000
0000
ENDCHAR
STARTCHAR CySmlKaStrokeV
ENCODING 1181
SWIDTH 1080 0
DWIDTH 9 0
BBX 9 18 0 -4
BITMAP
0000
0000
0000
0000
0000
0000
4100
4200
5200
5400
7800
5400
5200
4100
0000
0000
0000
0000
ENDCHAR
STARTCHAR CyCapKaStroke
ENCODING 1182
SWIDTH 1080 0
DWIDTH 9 0
BBX 9 18 0 -4
BITMAP
0000
0000
0000
4200
f200
4400
4400
4800
5000
6800
4400
4400
4200
4200
0000
0000
0000
0000
ENDCHAR
STARTCHAR CySmlKaStroke
ENCODING 1183
SWIDTH 1080 0
DWIDTH 9 0
BBX 9 18 0 -4
BITMAP
0000
0000
0000
4000
f800
4000
4200
4400
4800
5000
7000
4800
4400
4200
0000
0000
0000
0000
ENDCHAR
STARTCHAR CyCapKaBshk
ENCODING 1184
SWIDTH 1080 0
DWIDTH 9 0
BBX 9 18 0 -4
BITMAP
0000
0000
0000
f100
1100
1100
1200
1200
1400
1a00
1200
1100
1100
1100
0000
0000
0000
0000
ENDCHAR
STARTCHAR CySmlKaBshk
ENCODING 1185
SWIDTH 1080 0
DWIDTH 9 0
BBX 9 18 0 -4
BITMAP
0000
0000
0000
0000
0000
0000
f100
1200
1200
1400
1800
1400
1200
1100
0000
0000
0000
0000
ENDCHAR
STARTCHAR CyCapEnDesc
ENCODING 1186
SWIDTH 1080 0
DWIDTH 9 0
BBX 9 18 0 -4
BITMAP
0000
0000
0000
4200
4200
4200
4200
4200
7e00
4200
4200
4200
4200
4300
0100
0100
0100
0000
ENDCHAR
STARTCHAR CySmlEnDesc
ENCODING 1187
SWIDTH 1080 0
DWIDTH 9 0
BBX 9 18 0 -4
BITMAP
0000
0000
0000
0000
0000
0000
4200
4200
4200
7e00
4200
4200
4200
4300
0100
0100
0100
0000
ENDCHAR
STARTCHAR CyCapEnGhe
ENCODING 1188
SWIDTH 1080 0
DWIDTH 9 0
BBX 9 18 0 -4
BITMAP
0000
0000
0000
4780
4400
4400
4400
4400
7c00
4400
4400
4400
4400
4400
0000
0000
0000
0000
ENDCHAR
STARTCHAR CySmlEnGhe
ENCODING 1189
SWIDTH 1080 0
DWIDTH 9 0
BBX 9 18 0 -4
BITMAP
0000
0000
0000
0000
0000
0000
8f00
8800
8800
f800
8800
8800
8800
8800
0000
0000
0000
0000
ENDCHAR
STARTCHAR CyCapPeMhook
ENCODING 1190
SWIDTH 1080 0
DWIDTH 9 0
BBX 9 18 0 -4
BITMAP
0000
0000
0000
f800
8800
8800
8800
8800
8e00
8900
8900
8900
8900
8900
0100
0100
0e00
0000
ENDCHAR
STARTCHAR CySmlPeMhook
ENCODING 1191
SWIDTH 1080 0
DWIDTH 9 0
BBX 9 18 0 -4
BITMAP
0000
0000
0000
0000
0000
0000
f800
8800
8800
8e00
8900
8900
8900
8900
0100
0100
0e00
0000
ENDCHAR
STARTCHAR CyCapHaAbkh
ENCODING 1192
SWIDTH 1080 0
DWIDTH 9 0
BBX 9 18 0 -4
BITMAP
0000
0000
0000
3c00
4200
4400
4a00
4a00
4a00
4a00
4a00
4a00
4600
3d00
0000
0000
0000
0000
ENDCHAR
STARTCHAR CySmlHaAbkh
ENCODING 1193
SWIDTH 1080 0
DWIDTH 9 0
BBX 9 18 0 -4
BITMAP
0000
0000
0000
0000
0000
0000
3c00
4200
4400
4a00
4a00
4a00
4600
3d00
0000
0000
0000
0000
ENDCHAR
STARTCHAR CyCapEsDesc
ENCODING 1194
SWIDTH 1080 0
DWIDTH 9 0
BBX 9 18 0 -4
BITMAP
0000
0000
0000
1c00
2200
4000
4000
4000
4000
4000
4000
4000
2200
1c00
1000
0800
1000
0000
ENDCHAR
STARTCHAR CySmlEsDesc
ENCODING 1195
SWIDTH 1080 0
DWIDTH 9 0
BBX 9 18 0 -4
BITMAP
0000
0000
0000
0000
0000
0000
1c00
2200
4000
4000
4000
4000
2200
1c00
1000
0800
1000
0000
ENDCHAR
STARTCHAR CyCapTeDesc
ENCODING 1196
SWIDTH 1080 0
DWIDTH 9 0
BBX 9 18 0 -4
BITMAP
0000
0000
0000
7f00
0800
0800
0800
0800
0800
0800
0800
0800
0800
0c00
0400
0400
0400
0000
ENDCHAR
STARTCHAR CySmlTeDesc
ENCODING 1197
SWIDTH 1080 0
DWIDTH 9 0
BBX 9 18 0 -4
BITMAP
0000
0000
0000
0000
0000
0000
7f00
0800
0800
0800
0800
0800
0800
0c00
0400
0400
0400
0000
ENDCHAR
STARTCHAR CyCapUStrt
ENCODING 1198
SWIDTH 1080 0
DWIDTH 9 0
BBX 9 18 0 -4
BITMAP
0000
0000
0000
4100
4100
2200
2200
1400
1400
0800
0800
0800
0800
0800
0000
0000
0000
0000
ENDCHAR
STARTCHAR CySmlUStrt
ENCODING 1199
SWIDTH 1080 0
DWIDTH 9 0
BBX 9 18 0 -4
BITMAP
0000
0000
0000
0000
0000
0000
4100
4100
2200
2200
1400
1400
0800
0800
0800
0800
0800
0000
ENDCHAR
STARTCHAR CyCapUStrtStroke
ENCODING 1200
SWIDTH 1080 0
DWIDTH 9 0
BBX 9 18 0 -4
BITMAP
0000
0000
0000
4100
4100
2200
2200
1400
1400
0800
3e00
0800
0800
0800
0000
0000
0000
0000
ENDCHAR
STARTCHAR CySmlUStrtStroke
ENCODING 1201
SWIDTH 1080 0
DWIDTH 9 0
BBX 9 18 0 -4
BITMAP
0000
0000
0000
0000
0000
0000
4100
4100
2200
2200
1400
1400
0800
3e00
0800
0800
0800
0000
ENDCHAR
STARTCHAR CyCapHaDesc
ENCODING 1202
SWIDTH 1080 0
DWIDTH 9 0
BBX 9 18 0 -4
BITMAP
0000
0000
0000
4200
4200
2400
2400
1800
1800
1800
2400
2400
4200
4300
0100
0100
0100
0000
ENDCHAR
STARTCHAR CySmlHaDesc
ENCODING 1203
SWIDTH 1080 0
DWIDTH 9 0
BBX 9 18 0 -4
BITMAP
0000
0000
0000
0000
0000
0000
4200
4200
2400
1800
1800
2400
4200
4300
0100
0100
0100
0000
ENDCHAR
STARTCHAR CyCapTeTse
ENCODING 1204
SWIDTH 1080 0
DWIDTH 9 0
BBX 9 18 0 -4
BITMAP
0000
0000
0000
fa00
2200
2200
2200
2200
2200
2200
2200
2200
2200
3f00
0100
0100
0100
0000
ENDCHAR
STARTCHAR CySmlTeTse
ENCODING 1205
SWIDTH 1080 0
DWIDTH 9 0
BBX 9 18 0 -4
BITMAP
0000
0000
0000
0000
0000
0000
fa00
2200
2200
2200
2200
2200
2200
3f00
0100
0100
0100
0000
ENDCHAR
STARTCHAR CyCapCheDesc
ENCODING 1206
SWIDTH 1080 0
DWIDTH 9 0
BBX 9 18 0 -4
BITMAP
0000
0000
0000
4200
4200
4200
4200
4200
3e00
0200
0200
0200
0200
0300
0100
0100
0100
0000
ENDCHAR
STARTCHAR CySmlCheDesc
ENCODING 1207
SWIDTH 1080 0
DWIDTH 9 0
BBX 9 18 0 -4
BITMAP
0000
0000
0000
0000
0000
0000
4200
4200
4200
3e00
0200
0200
0200
0300
0100
0100
0100
0000
ENDCHAR
STARTCHAR CyCapCheStrokeV
ENCODING 1208
SWIDTH 1080 0
DWIDTH 9 0
BBX 9 18 0 -4
BITMAP
0000
0000
0000
4200
4200
4200
4a00
4a00
3e00
0a00
0a00
0200
0200
0200
0000
0000
0000
0000
ENDCHAR
STARTCHAR CySmlCheStrokeV
ENCODING 1209
SWIDTH 1080 0
DWIDTH 9 0
BBX 9 18 0 -4
BITMAP
0000
0000
0000
0000
0000
0000
4200
4a00
4a00
3e00
0a00
0a00
0200
0200
0000
0000
0000
0000
ENDCHAR
STARTCHAR CyCapShha
ENCODING 1210
SWIDTH 1080 0
DWIDTH 9 0
BBX 9 18 0 -4
BITMAP
0000
0000
0000
4000
4000
4000
4000
4000
7c00
4200
4200
4200
4200
4200
0000
0000
0000
0000
ENDCHAR
STARTCHAR CySmlShha
ENCODING 1211
SWIDTH 1080 0
DWIDTH 9 0
BBX 9 18 0 -4
BITMAP
0000
0000
0000
4000
4000
4000
5c00
6200
4200
4200
4200
4200
4200
4200
0000
0000
0000
0000
ENDCHAR
STARTCHAR CyCapCheAbkh
ENCODING 1212
SWIDTH 1080 0
DWIDTH 9 0
BBX 9 18 0 -4
BITMAP
0000
0000
0000
4e00
9100
a100
a100
7f00
2000
2000
2000
2000
1100
0e00
0000
0000
0000
0000
ENDCHAR
STARTCHAR CySmlCheAbkh
ENCODING 1213
SWIDTH 1080 0
DWIDTH 9 0
BBX 9 18 0 -4
BITMAP
0000
0000
0000
0000
0000
0000
4e00
9100
a100
7f00
2000
2000
1100
0e00
0000
0000
0000
0000
ENDCHAR
STARTCHAR CyCapCheAbkhDesc
ENCODING 1214
SWIDTH 1080 0
DWIDTH 9 0
BBX 9 18 0 -4
BITMAP
0000
0000
0000
4e00
9100
a100
a100
7f00
2000
2000
2000
2000
1100
0e00
0400
0400
0400
0000
ENDCHAR
STARTCHAR CySmlCheAbkhDesc
ENCODING 1215
SWIDTH 1080 0
DWIDTH 9 0
BBX 9 18 0 -4
BITMAP
0000
0000
0000
0000
0000
0000
4e00
9100
a100
7f00
2000
2000
1100
0e00
0400
0400
0400
0000
ENDCHAR
STARTCHAR CyCapPalochka
ENCODING 1216
SWIDTH 1080 0
DWIDTH 9 0
BBX 9 18 0 -4
BITMAP
0000
0000
0000
1c00
0800
0800
0800
0800
0800
0800
0800
0800
0800
1c00
0000
0000
0000
0000
ENDCHAR
STARTCHAR CyCapZheBreve
ENCODING 1217
SWIDTH 1080 0
DWIDTH 9 0
BBX 9 18 0 -4
BITMAP
2400
3c00
0000
4900
4900
4900
4900
2a00
1c00
2a00
4900
4900
4900
4900
0000
0000
0000
0000
ENDCHAR
STARTCHAR CySmlZheBreve
ENCODING 1218
SWIDTH 1080 0
DWIDTH 9 0
BBX 9 18 0 -4
BITMAP
0000
0000
0000
2400
3c00
0000
4900
4900
2a00
1c00
2a00
4900
4900
4900
0000
0000
0000
0000
ENDCHAR
STARTCHAR CyCapKaLhook
ENCODING 1219
SWIDTH 1080 0
DWIDTH 9 0
BBX 9 18 0 -4
BITMAP
0000
0000
0000
4200
4200
4400
4400
4800
5000
6800
4400
4200
4200
4200
0200
0400
3800
0000
ENDCHAR
STARTCHAR CySmlKaLhook
ENCODING 1220
SWIDTH 1080 0
DWIDTH 9 0
BBX 9 18 0 -4
BITMAP
0000
0000
0000
0000
0000
0000
4200
4400
4800
5000
7800
4400
4200
4200
0200
0400
3800
0000
ENDCHAR
STARTCHAR CyCapElTail
ENCODING 1221
SWIDTH 1080 0
DWIDTH 9 0
BBX 9 18 0 -4
BITMAP
0000
0000
0000
0e00
1200
2200
2200
2200
2200
2200
2200
2200
2200
c700
0100
0200
0400
0000
ENDCHAR
STARTCHAR CySmlElTail
ENCODING 1222
SWIDTH 1080 0
DWIDTH 9 0
BBX 9 18 0 -4
BITMAP
0000
0000
0000
0000
0000
0000
0e00
1200
2200
2200
2200
2200
2200
c700
0100
0200
0400
0000
ENDCHAR
STARTCHAR CyCapEnLhook
ENCODING 1223
SWIDTH 1080 0
DWIDTH 9 0
BBX 9 18 0 -4
BITMAP
0000
0000
0000
4200
4200
4200
4200
4200
7e00
4200
4200
4200
4200
4200
0200
0400
3800
0000
ENDCHAR
STARTCHAR CySmlEnLhook
ENCODING 1224
SWIDTH 1080 0
DWIDTH 9 0
BBX 9 18 0 -4
BITMAP
0000
0000
0000
0000
0000
0000
4200
4200
4200
7e00
4200
4200
4200
4200
0200
0400
3800
0000
ENDCHAR
STARTCHAR CyCapEnTail
ENCODING 1225
SWIDTH 1080 0
DWIDTH 9 0
BBX 9 18 0 -4
BITMAP
0000
0000
0000
4200
4200
4200
4200
4200
7e00
4200
4200
4200
4200
4700
0100
0200
0400
0000
ENDCHAR
STARTCHAR CySmlEnTail
ENCODING 1226
SWIDTH 1080 0
DWIDTH 9 0
BBX 9 18 0 -4
BITMAP
0000
0000
0000
0000
0000
0000
4200
4200
4200
7e00
4200
4200
4200
4700
0100
0200
0400
0000
ENDCHAR
STARTCHAR CyCapCheKhks
ENCODING 1227
SWIDTH 1080 0
DWIDTH 9 0
BBX 9 18 0 -4
BITMAP
0000
0000
0000
4200
4200
4200
4200
4200
3e00
0200
0200
0200
0200
0600
0400
0400
0400
0000
ENDCHAR
STARTCHAR CySmlCheKhks
ENCODING 1228
SWIDTH 1080 0
DWIDTH 9 0
BBX 9 18 0 -4
BITMAP
0000
0000
0000
0000
0000
0000
4200
4200
4200
3e00
0200
0200
0200
0600
0400
0400
0400
0000
ENDCHAR
STARTCHAR CyCapEmTail
ENCODING 1229
SWIDTH 1080 0
DWIDTH 9 0
BBX 9 18 0 -4
BITMAP
0000
0000
0000
4100
4100
6300
6300
5500
5500
4900
4900
4100
4100
4380
0080
0100
0200
0000
ENDCHAR
STARTCHAR CySmlEmTail
ENCODING 1230
SWIDTH 1080 0
DWIDTH 9 0
BBX 9 18 0 -4
BITMAP
0000
0000
0000
0000
0000
0000
4100
4100
6300
6300
5500
5500
4900
4b80
0080
0100
0200
0000
ENDCHAR
STARTCHAR CySmlPalochka
ENCODING 1231
SWIDTH 1080 0
DWIDTH 9 0
BBX 9 18 0 -4
BITMAP
0000
0000
0000
1c00
0800
0800
0800
0800
0800
0800
0800
0800
0800
1c00
0000
0000
0000
0000
ENDCHAR
STARTCHAR CyCapABreve
ENCODING 1232
SWIDTH 1080 0
DWIDTH 9 0
BBX 9 18 0 -4
BITMAP
2200
1c00
0000
0800
0800
0800
1400
1400
2200
2200
3e00
4100
4100
4100
0000
0000
0000
0000
ENDCHAR
STARTCHAR CySmlABreve
ENCODING 1233
SWIDTH 1080 0
DWIDTH 9 0
BBX 9 18 0 -4
BITMAP
0000
0000
0000
2200
1c00
0000
3c00
0200
0200
3e00
4200
4200
4600
3a00
0000
0000
0000
0000
ENDCHAR
STARTCHAR CyCapADrss
ENCODING 1234
SWIDTH 1080 0
DWIDTH 9 0
BBX 9 18 0 -4
BITMAP
1200
1200
0000
0800
0800
0800
1400
1400
2200
2200
3e00
4100
4100
4100
0000
0000
0000
0000
ENDCHAR
STARTCHAR CySmlADrss
ENCODING 1235
SWIDTH 1080 0
DWIDTH 9 0
BBX 9 18 0 -4
BITMAP
0000
0000
0000
2400
2400
0000
3c00
0200
0200
3e00
4200
4200
4600
3a00
0000
0000
0000
0000
ENDCHAR
STARTCHAR CyCapAIe
ENCODING 1236
SWIDTH 1080 0
DWIDTH 9 0
BBX 9 18 0 -4
BITMAP
0000
0000
0000
1f00
1800
2800
2800
2800
4e00
4800
7800
8800
8800
8f00
0000
0000
0000
0000
ENDCHAR
STARTCHAR CySmlAIe
ENCODING 1237
SWIDTH 1080 0
DWIDTH 9 0
BBX 9 18 0 -4
BITMAP
0000
0000
0000
0000
0000
0000
3600
4900
0900
3f00
4800
4800
4900
7600
0000
0000
0000
0000
ENDCHAR
STARTCHAR CyCapIeBreve
ENCODING 1238
SWIDTH 1080 0
DWIDTH 9 0
BBX 9 18 0 -4
BITMAP
2200
1c00
0000
7e00
4000
4000
4000
4000
7800
4000
4000
4000
4000
7e00
0000
0000
0000
0000
ENDCHAR
STARTCHAR CySmlIeBreve
ENCODING 1239
SWIDTH 1080 0
DWIDTH 9 0
BBX 9 18 0 -4
BITMAP
0000
0000
0000
2200
1c00
0000
1c00
2200
4200
7e00
4000
4000
2200
1c00
0000
0000
0000
0000
ENDCHAR
STARTCHAR CyCapSchwa
ENCODING 1240
SWIDTH 1080 0
DWIDTH 9 0
BBX 9 18 0 -4
BITMAP
0000
0000
0000
3800
2400
0200
0200
0200
7e00
4200
4200
4200
2400
1800
0000
0000
0000
0000
ENDCHAR
STARTCHAR CySmlSchwa
ENCODING 1241
SWIDTH 1080 0
DWIDTH 9 0
BBX 9 18 0 -4
BITMAP
0000
0000
0000
0000
0000
0000
3800
4400
0200
0200
7e00
4200
4400
3800
0000
0000
0000
0000
ENDCHAR
STARTCHAR CyCapSchwaDrss
ENCODING 1242
SWIDTH 1080 0
DWIDTH 9 0
BBX 9 18 0 -4
BITMAP
2400
2400
0000
3800
2400
0200
0200
0200
7e00
4200
4200
4200
2400
1800
0000
0000
0000
0000
ENDCHAR
STARTCHAR CySmlSchwaDrss
ENCODING 1243
SWIDTH 1080 0
DWIDTH 9 0
BBX 9 18 0 -4
BITMAP
0000
0000
0000
2400
2400
0000
3800
4400
0200
0200
7e00
4200
4400
3800
0000
0000
0000
0000
ENDCHAR
STARTCHAR CyCapZheDrss
ENCODING 1244
SWIDTH 1080 0
DWIDTH 9 0
BBX 9 18 0 -4
BITMAP
1200
1200
0000
4900
4900
4900
4900
2a00
1c00
2a00
4900
4900
4900
4900
0000
0000
0000
0000
ENDCHAR
STARTCHAR CySmlZheDrss
ENCODING 1245
SWIDTH 1080 0
DWIDTH 9 0
BBX 9 18 0 -4
BITMAP
0000
0000
0000
1200
1200
0000
4900
4900
2a00
1c00
2a00
4900
4900
4900
0000
0000
0000
0000
ENDCHAR
STARTCHAR CyCapZeDrss
ENCODING 1246
SWIDTH 1080 0
DWIDTH 9 0
BBX 9 18 0 -4
BITMAP
2400
2400
0000
3800
4400
0200
0200
0400
1800
0400
0200
0200
4400
3800
0000
0000
0000
0000
ENDCHAR
STARTCHAR CySmlZeDrss
ENCODING 1247
SWIDTH 1080 0
DWIDTH 9 0
BBX 9 18 0 -4
BITMAP
0000
0000
0000
2400
2400
0000
3c00
4200
0200
0c00
0200
0200
4200
3c00
0000
0000
0000
0000
ENDCHAR
STARTCHAR CyCapDzeAbkh
ENCODING 1248
SWIDTH 1080 0
DWIDTH 9 0
BBX 9 18 0 -4
BITMAP
0000
0000
0000
7e00
0200
0400
0400
0800
1c00
0200
0200
0200
4200
3c00
0000
0000
0000
0000
ENDCHAR
STARTCHAR CySmlDzeAbkh
ENCODING 1249
SWIDTH 1080 0
DWIDTH 9 0
BBX 9 18 0 -4
BITMAP
0000
0000
0000
0000
0000
0000
7e00
0200
0400
0400
0800
1c00
0200
0200
0200
4200
3c00
0000
ENDCHAR
STARTCHAR CyCapIMacron
ENCODING 1250
SWIDTH 1080 0
DWIDTH 9 0
BBX 9 18 0 -4
BITMAP
3c00
0000
0000
4200
4200
4200
4600
4a00
4a00
5200
5200
6200
4200
4200
0000
0000
0000
0000
ENDCHAR
STARTCHAR CySmlIMacron
ENCODING 1251
SWIDTH 1080 0
DWIDTH 9 0
BBX 9 18 0 -4
BITMAP
0000
0000
0000
3c00
0000
0000
4200
4600
4a00
4a00
5200
5200
6200
4200
0000
0000
0000
0000
ENDCHAR
STARTCHAR CyCapIDrss
ENCODING 1252
SWIDTH 1080 0
DWIDTH 9 0
BBX 9 18 0 -4
BITMAP
2400
2400
0000
4200
4200
4200
4600
4a00
4a00
5200
5200
6200
4200
4200
0000
0000
0000
0000
ENDCHAR
STARTCHAR CySmlIDrss
ENCODING 1253
SWIDTH 1080 0
DWIDTH 9 0
BBX 9 18 0 -4
BITMAP
0000
0000
0000
2400
2400
0000
4200
4600
4a00
4a00
5200
5200
6200
4200
0000
0000
0000
0000
ENDCHAR
STARTCHAR CyCapODrss
ENCODING 1254
SWIDTH 1080 0
DWIDTH 9 0
BBX 9 18 0 -4
BITMAP
2400
2400
0000
3c00
4200
4200
4200
4200
4200
4200
4200
4200
4200
3c00
0000
0000
0000
0000
ENDCHAR
ENDFONT
